<?xml version="1.0" encoding="UTF-8"?>
<svg id="Layer_1" data-name="Layer 1" xmlns="http://www.w3.org/2000/svg" viewBox="0 0 145.65 55.6">
  <defs>
    <style>
      .cls-1 {
        fill: #586AAA;
      }

      .cls-2 {
        fill: #586AAA;
      }
    </style>
  </defs>
  <g>
    <polygon class="cls-2" points="22.14 37.02 22.14 37.02 22.14 37.02 22.14 37.02"/>
    <path class="cls-2" d="m45.2,36.7c-.49,0-.73-.29-.98-.62-.25-.33-.38-.78-.38-1.33,0-.5.13-.88.38-1.14.24-.24.55-.38.92-.39h0c.87,0,1.91.17,1.91.17v-1.18s-1.04-.17-1.91-.17h0c-.38,0-.73.07-1.06.19-.34.12-.64.3-.88.54-.25.23-.44.52-.57.86-.14.34-.2.72-.2,1.14,0,.17.02.35.07.52.04.18.1.34.17.5.07.16.15.31.23.44.08.13.3.36.38.44v.05h-6.5c-.12,0-.24-.02-.36-.06-.12-.04-.23-.11-.33-.21-.1-.09-.17-.21-.23-.36-.06-.14-.09-.32-.09-.52v-6.19l-1.41.55v5.87c0,.18-.03.33-.08.45-.06.12-.13.21-.21.28-.08.07-.17.12-.27.15-.1.03-.18.04-.26.04h-1.11v-4.7l-1.41.55v4.15h-1.33v1.21h3.71c.13,0,.27,0,.44-.02.17-.02.34-.05.52-.1.18-.05.36-.12.54-.22.18-.09.34-.22.48-.39.16.2.38.37.67.52.29.14.58.21.88.21h.5s.03,0,.05,0c.02,0,.03,0,.05,0h10.23v-1.21h-2.56Z"/>
    <path class="cls-2" d="m55.55,35.55v-6.19l-1.41.55v5.87c0,.18-.03.33-.08.45-.06.12-.13.21-.21.28-.08.07-.17.12-.27.15-.1.03-.18.04-.26.04h-1.11v-4.7l-1.41.55v4.15h-1.33v1.21h3.71c.13,0,.27,0,.44-.02s.34-.05.52-.1c.18-.05.36-.11.54-.22.47-.28.88-.8.88-2.02Z"/>
    <polygon class="cls-2" points="58.63 29.36 57.27 29.9 57.27 37.91 58.63 37.91 58.63 29.36"/>
    <path class="cls-2" d="m66.92,32.78c-.26-.25-.57-.43-.93-.56-.36-.12-.77-.19-1.21-.19s-.85.06-1.21.19c-.36.12-.67.31-.93.56-.26.25-.46.55-.6.92-.14.37-.21.79-.21,1.28s.07.91.21,1.28c.14.37.34.67.6.92.26.25.57.43.93.56.36.12.77.19,1.21.19s.85-.06,1.21-.19c.36-.13.67-.31.93-.56.26-.25.46-.55.6-.92.14-.37.21-.79.21-1.28s-.07-.91-.21-1.28c-.14-.37-.34-.67-.6-.92Zm-.97,3.44c-.26.33-.65.49-1.17.49s-.91-.16-1.17-.49c-.26-.33-.39-.74-.39-1.24s.13-.91.39-1.24c.26-.33.65-.49,1.17-.49s.91.16,1.17.49c.26.33.39.74.39,1.24s-.13.91-.39,1.24Z"/>
    <path class="cls-2" d="m70.33,40.26c.31-.47.47-1.15.47-2.03v-6.21l-1.36.54v5.68c0,.34-.02.62-.06.83-.04.21-.1.37-.17.49-.07.11-.16.19-.26.23-.1.04-.22.06-.36.06h-.89v1.14h1.04c.75,0,1.28-.24,1.59-.71Z"/>
    <polygon class="cls-2" points="73.87 29.36 72.51 29.91 72.51 37.79 73.87 37.79 73.87 29.36"/>
    <path class="cls-2" d="m76.5,40.26c.31-.47.47-1.15.47-2.03v-6.2l-1.36.54v5.66c0,.34-.02.62-.06.83-.04.21-.1.37-.17.49-.07.11-.16.19-.26.23-.1.04-.22.06-.36.06h-.89v1.14h1.04c.75,0,1.28-.24,1.59-.71Z"/>
    <polygon class="cls-2" points="76.97 29.36 76.97 31 75.61 30.46 75.61 29.36 76.97 29.36"/>
    <g>
      <polygon class="cls-2" points="66.75 29.36 66.75 31 65.39 30.46 65.39 29.36 66.75 29.36"/>
      <polygon class="cls-2" points="64.16 29.36 64.16 31 62.8 30.46 62.8 29.36 64.16 29.36"/>
    </g>
    <path class="cls-2" d="m51.58,40.49c-.14,0-.25-.04-.33-.13-.08-.09-.12-.21-.12-.36s.04-.26.11-.35c.07-.08.16-.12.27-.12.33,0,.72.06.72.06v-.45s-.39-.06-.72-.06c-.3,0-.54.07-.7.22-.17.15-.25.36-.25.63,0,.09.02.18.05.27.04.09.08.17.14.23v.05h-.41v.48h2.12v-.48h-.88Z"/>
    <path class="cls-2" d="m84.15,34.05c-.09-.43-.25-.8-.47-1.1-.22-.3-.51-.53-.88-.69-.37-.16-.82-.23-1.36-.23s-.99.08-1.35.25-.64.39-.85.67c-.21.28-.36.6-.44.96-.08.36-.13.87-.13,1.26,0,.41.07.79.21,1.12.14.34.34.63.59.87.25.24.55.43.9.56.35.13.73.19,1.15.19h.37c.33-.12.92-.62.92-.62-.11,1.38-.34,2.53-2.29,2.53h-1.13v1.15h1.31c.67,0,1.23-.09,1.68-.28.45-.18.82-.48,1.1-.88.28-.41.48-1.2.6-1.83.12-.64.18-1.41.18-2.31,0-.55-.05-1.18-.14-1.61Zm-1.28,2.65h-1.34c-.49,0-.86-.12-1.09-.36-.23-.24-.35-.63-.35-1.17,0-.24.02-.6.07-.83.04-.22.12-.42.23-.58.11-.16.25-.29.43-.39.18-.1.4-.15.67-.15.53,0,.9.19,1.1.57.2.38.3,1.07.3,1.8,0,.41-.01.77-.04,1.1Z"/>
    <path class="cls-2" d="m28.32,33.65c-.15-.36-.35-.66-.62-.9-.27-.24-.58-.42-.94-.54-.36-.12-.76-.18-1.19-.18s-.83.06-1.19.19c-.36.12-.68.31-.94.56-.27.25-.47.55-.62.9-.15.36-.22.74-.22,1.21,0,.3.11.87.3,1.21.1.16.81.56,1.02.63-.18-.02-.54.02-.54.02-.09.01-.17.03-.25.05-.01,0-.03,0-.04.01-.23.05-.43.13-.61.22-.25.13-.46.29-.62.5-.32.41-.48.93-.48,1.56v1.88h1.36v-1.89c0-.15.02-.29.05-.43.04-.14.1-.27.2-.37.1-.11.22-.2.39-.26.16-.06.37-.09.63-.09h1.58c.45,0,.85-.06,1.22-.18.37-.12.68-.29.94-.53.26-.24.46-.54.6-.9.14-.36.21-.93.21-1.42s-.07-.88-.22-1.24Zm-1.59,2.63c-.27.31-.65.47-1.16.47s-.9-.16-1.16-.47c-.27-.31-.4-.88-.4-1.39s.13-.9.39-1.22c.26-.32.65-.47,1.17-.47s.91.16,1.17.47c.26.32.39.7.39,1.22s-.13,1.08-.4,1.39Z"/>
    <g>
      <path class="cls-2" d="m8.14,45.41v7.79h-1.35v-5.47c-.11.29-.25.64-.49,1.11l-1.65,3.23h-1.18l-1.62-3.23c-.25-.48-.42-.83-.53-1.13v5.49H0v-7.79h1.48l1.77,3.43c.34.66.66,1.35.83,1.86.17-.52.49-1.21.83-1.86l1.78-3.43h1.45Z"/>
      <polygon class="cls-2" points="9.25 47.89 10.55 47.76 10.55 53.2 9.25 53.2 9.25 47.89"/>
      <path class="cls-2" d="m16.47,49.37v3.84h-1.3v-3.41c0-.78-.22-1.03-.85-1.03-.42,0-.9.14-1.36.37v4.08h-1.3v-5.31l1.3-.13v.52c.52-.3,1.17-.57,1.88-.57,1,0,1.64.48,1.64,1.66Z"/>
      <polygon class="cls-2" points="17.58 47.89 18.87 47.76 18.87 53.2 17.58 53.2 17.58 47.89"/>
      <path class="cls-2" d="m19.98,52.64l.55-.88c.64.46,1.27.61,1.82.61.64,0,.96-.22.96-.6,0-.31-.2-.54-1.11-.78l-.36-.1c-1.12-.3-1.62-.76-1.62-1.59,0-.95.87-1.6,2.08-1.6.7,0,1.41.16,2.13.58l-.51.87c-.67-.35-1.07-.46-1.6-.46s-.78.22-.78.53c0,.29.18.42.84.59l.38.1c1.31.35,1.85.88,1.85,1.74,0,.97-.75,1.71-2.24,1.71-1,0-1.74-.25-2.4-.72Z"/>
      <path class="cls-2" d="m29.36,53c-.32.17-.79.36-1.44.36-.9,0-1.65-.5-1.65-1.71v-2.75h-1.02v-1.02h1.02v-1.2l1.3-.19v1.39h1.66l-.13,1.02h-1.53v2.55c0,.6.23.85.64.85.26,0,.49-.07.79-.19l.36.89Z"/>
      <path class="cls-2" d="m33.98,47.82l-.22,1.32c-.2-.07-.43-.14-.73-.14-.41,0-.83.12-1.26.75v3.46h-1.3v-5.33l1.3-.12v.76c.4-.54.93-.81,1.51-.81.25,0,.46.04.7.11Z"/>
      <path class="cls-2" d="m39.76,47.88v.07l-1.84,5.37c-.55,1.62-1.23,2.27-2.45,2.27-.48,0-.87-.11-1.12-.19l.34-.95c.23.07.44.11.67.11.5,0,.91-.13,1.31-1.19l.06-.17h-.35l-2.02-5.25v-.07h1.37l1.11,3.16c.13.37.23.69.3.96.08-.3.18-.65.28-.96l1.01-3.16h1.33Z"/>
      <polygon class="cls-2" points="18.89 45.41 18.89 47.05 17.53 46.51 17.53 45.41 18.89 45.41"/>
      <polygon class="cls-2" points="10.58 45.41 10.58 47.05 9.22 46.51 9.22 45.41 10.58 45.41"/>
      <g>
        <path class="cls-2" d="m42.19,50.62c0-1.98,1.27-2.84,2.69-2.84,1.74,0,2.63,1.19,2.63,2.87,0,1.98-1.26,2.73-2.68,2.73-1.74,0-2.63-1.08-2.63-2.77Zm4.12.03c0-1.08-.46-1.82-1.43-1.82s-1.49.73-1.49,1.78.46,1.73,1.43,1.73,1.48-.63,1.48-1.68Z"/>
        <path class="cls-2" d="m50.8,47.53v.93h1.53l-.13,1.02h-1.39v3.75h-1.3v-3.75h-.89v-1.02h.89v-.9c0-1.24.72-2.13,2.02-2.13.52,0,.91.08,1.27.23l-.32,1.02c-.29-.12-.55-.17-.84-.17-.54,0-.83.38-.83,1.02Z"/>
      </g>
      <path class="cls-2" d="m63.88,45.44v7.79h-1.35v-5.47c-.11.29-.25.64-.49,1.11l-1.65,3.23h-1.18l-1.62-3.23c-.25-.48-.42-.83-.53-1.13v5.49h-1.32v-7.79h1.48l1.77,3.43c.34.66.66,1.35.83,1.86.17-.52.49-1.21.83-1.86l1.78-3.43h1.45Z"/>
      <path class="cls-2" d="m69.87,50.82h-3.58c.06,1.13.72,1.54,1.45,1.54.63,0,1.05-.18,1.57-.48l.46.84c-.52.36-1.24.66-2.13.66-1.45,0-2.66-.73-2.66-2.75,0-1.67.9-2.9,2.61-2.9,1.53,0,2.31,1,2.31,2.28,0,.2-.01.52-.04.81Zm-3.52-.9h2.31v-.04c0-.87-.43-1.21-1.05-1.21-.73,0-1.13.48-1.26,1.25Z"/>
      <path class="cls-2" d="m76.06,45.42v7.8h-1.14l-.08-.4c-.54.35-1.11.55-1.67.55-1.45,0-2.22-1-2.22-2.69,0-2.03,1.31-2.96,2.77-2.96.36,0,.72.06,1.06.16v-2.33l1.3-.13Zm-2.55,6.92c.41,0,.81-.12,1.25-.38v-3.11c-.28-.1-.57-.14-.9-.14-.89,0-1.56.63-1.56,1.97,0,1.17.44,1.67,1.21,1.67Z"/>
      <polygon class="cls-2" points="77.17 47.91 78.47 47.78 78.47 53.23 77.17 53.23 77.17 47.91"/>
      <path class="cls-2" d="m84.29,49.5v3.73h-1.13l-.1-.44c-.63.46-1.25.6-1.86.6-.97,0-1.62-.58-1.62-1.45,0-1.36,1.57-1.94,3.41-1.98v-.2c0-.67-.2-.97-.87-.97-.54,0-1.13.19-1.78.61l-.53-.83c.75-.52,1.54-.82,2.5-.82,1.27,0,1.97.5,1.97,1.77Zm-2.67,2.87c.43,0,.88-.12,1.37-.41v-1.15c-1.25.06-2.06.38-2.06.97,0,.38.24.59.69.59Z"/>
      <polygon class="cls-2" points="78.5 45.44 78.5 47.07 77.14 46.53 77.14 45.44 78.5 45.44"/>
    </g>
  </g>
  <path class="cls-1" d="m131.28,14c-.82-2.88-3.05-5.17-5.9-6.07.85-.27,1.76-.41,2.7-.41.67,0,1.33.07,1.96.22.19.04.31-.19.18-.32-.39-.38-.82-.72-1.27-1.02-1.41-.93-3.11-1.48-4.93-1.48-.06,0-.12,0-.18,0,.86-.71,1.86-1.26,2.95-1.6.18-.06.17-.32-.02-.36-.61-.13-1.24-.2-1.89-.2-1.12,0-2.19.2-3.17.58.28-.9.84-1.68,1.57-2.24.15-.11.05-.35-.13-.34-1.49.09-2.77.91-3.49,1.94-.04-.99-.42-1.92-.98-2.63-.07-.09-.22-.09-.29,0-.57.71-.94,1.64-.98,2.63-.73-1.04-2-1.85-3.49-1.94-.18-.01-.28.22-.13.34.73.56,1.28,1.34,1.57,2.24-.99-.37-2.05-.58-3.17-.58-.65,0-1.28.07-1.89.2-.18.04-.2.3-.02.36,1.09.35,2.09.9,2.95,1.6-.06,0-.12,0-.18,0-1.82,0-3.51.54-4.93,1.48-.45.3-.88.64-1.27,1.02-.14.13,0,.36.18.32.63-.14,1.29-.22,1.96-.22.94,0,1.85.15,2.7.41-2.85.9-5.08,3.19-5.9,6.07-.05.19.18.33.32.18,1.44-1.53,3.42-2.55,5.64-2.75-2.26,1.46-4.25,4.34-4.04,7.96.01.2.29.25.37.06.93-2.34,2.82-4.2,5.2-5.06-1.41,1.56-2.27,3.64-2.27,5.91,0,1.04.18,2.04.51,2.97.07.19.34.16.37-.04.31-2.83,2.01-5.25,4.4-6.56l.31-.18s.1,0,.11.05c.09.44.4,1.65.4,5.22,0,4.45-.36,13.06-.4,13.42,0,.02,0,.04.02.05l1.79,1.31s.05.01.07,0l1.78-1.31s.03-.03.02-.06c-.04-.37-.4-8.97-.4-13.42,0-3.57.31-4.78.4-5.22.01-.05.07-.08.11-.05l.31.18c2.39,1.31,4.09,3.72,4.4,6.56.02.2.3.22.37.04.33-.93.51-1.93.51-2.97,0-2.27-.86-4.34-2.27-5.91,2.38.86,4.27,2.71,5.2,5.06.07.19.35.14.37-.06.21-3.62-1.78-6.5-4.04-7.96,2.22.2,4.2,1.22,5.64,2.75.14.14.37,0,.32-.18Z"/>
  <g>
    <path class="cls-1" d="m124.55,49.19c-.1.1-.21.19-.32.27-.09.07-.19.12-.29.16-.09.03-.18.05-.27.04-.09,0-.17-.04-.24-.09-.1-.07-.16-.18-.24-.27-.11-.14-.25-.26-.41-.35-.18-.1-.38-.16-.58-.18-.19-.02-.38,0-.57.06,0,0,0,0-.01,0-.17.05-.34.14-.48.25-.14.11-.25.24-.34.39-.08.13-.13.27-.17.41-.07.28-.04.59.05.87.28.83,1.19,1.15,2.02,1.09,1.13-.08,2.27-1.43,2.36-1.54.24-.29.26-.93-.17-1.46-.11.12-.22.24-.34.36Z"/>
    <path class="cls-1" d="m116.23,49.48c-.09-.15-.2-.28-.34-.39-.14-.11-.3-.2-.48-.25,0,0,0,0-.01,0-.18-.06-.38-.07-.57-.06-.2.02-.4.08-.58.18-.16.09-.3.21-.41.35-.08.09-.14.2-.24.27-.07.05-.15.08-.24.09-.09,0-.18-.01-.27-.04-.11-.04-.2-.1-.29-.16-.11-.08-.22-.17-.32-.27-.12-.11-.23-.23-.34-.36-.44.53-.41,1.17-.17,1.46.09.11,1.23,1.46,2.36,1.54.84.06,1.74-.26,2.02-1.09.09-.28.12-.58.05-.87-.03-.14-.09-.28-.17-.41Z"/>
    <path class="cls-1" d="m145.51,33.34c-10.19-4.01-19.97.55-27,5.59-7.03-5.05-16.81-9.6-27-5.59-.24.09-.16.45.1.43,8.94-.7,16.01,1.23,24.4,7.06-2.52,2.02-4.56,3.95-5.96,5.29-.22-.3-.58-.77-.77-.99-.09-.11-1.23-1.46-2.36-1.54-.84-.06-1.74.26-2.02,1.09-.09.28-.12.58-.05.87.03.14.09.28.17.41.09.15.2.28.34.39.14.11.3.2.48.25,0,0,0,0,.01,0,.18.06.38.07.57.06.2-.02.4-.08.58-.18.16-.09.3-.21.41-.35.08-.09.14-.2.24-.27.07-.05.15-.08.24-.09.09,0,.18.01.27.04.11.04.2.1.29.16.35.24.97,1.02,1.11,1.21.13.16.28.35.41.52.01.02.17.22.18.24,0,0-1.44-.53-1.66-.33-1.06,1-1.9,1.79-2.67,2.49-.22.2-.46.4-.71.57-.2.14-.41.26-.63.37-.18.08-.37.15-.56.2-.17.04-.34.06-.51.05-.16,0-.31-.02-.46-.05-.15-.03-.29-.08-.43-.13-.14-.05-.27-.12-.4-.18-.13-.07-.26-.14-.41-.2-.13-.05-.27-.08-.42-.09-.09,0-.18,0-.27,0-.27.03-.53.12-.75.28-.23.16-.41.39-.52.64-.11.24-.15.51-.12.78.03.27.13.54.29.76.11.16.26.3.41.43.17.14.36.25.56.34.22.1.44.18.68.25.25.07.51.11.77.14.28.03.56.04.83.03.13,0,.25-.01.38-.03,1.8-.18,3.57-1.71,4.48-2.57,3.82-3.6,7.26-6.59,10.47-9.03,3.21,2.44,6.65,5.43,10.47,9.03.91.86,2.68,2.39,4.48,2.57.12.01.25.02.38.03.28.01.56,0,.83-.03.26-.03.52-.07.77-.14.23-.06.46-.14.68-.25.2-.09.39-.21.56-.34.16-.12.3-.27.41-.43.16-.22.26-.49.29-.76.03-.26-.02-.53-.12-.78-.11-.25-.3-.48-.52-.64-.22-.16-.48-.25-.75-.28-.09,0-.18-.01-.27,0-.14.01-.28.04-.42.09-.14.05-.27.13-.41.2-.13.07-.26.13-.4.18-.14.05-.28.1-.43.13-.15.03-.31.05-.46.05-.17,0-.34-.02-.51-.05-.19-.04-.38-.11-.56-.2-.22-.1-.43-.23-.63-.37-.25-.17-.48-.37-.71-.57-.77-.7-1.61-1.49-2.67-2.49-.22-.21-1.66.33-1.66.33.01-.02.17-.22.18-.24.13-.17.28-.35.41-.52.15-.19.77-.97,1.11-1.21.09-.06.19-.12.29-.16.09-.03.18-.05.27-.04.09,0,.17.04.24.09.1.07.16.18.24.27.11.14.25.26.41.35.18.1.38.16.58.18.19.02.38,0,.57-.06,0,0,0,0,.01,0,.17-.05.34-.14.48-.25.13-.11.25-.24.34-.39.08-.13.13-.27.17-.41.07-.28.04-.59-.05-.87-.28-.83-1.19-1.15-2.02-1.09-1.13.08-2.27,1.43-2.36,1.54-.19.22-.55.68-.77.99-1.4-1.34-3.44-3.27-5.96-5.29,8.4-5.83,15.47-7.76,24.4-7.06.26.02.34-.34.1-.43Z"/>
  </g>
</svg>