<?xml version="1.0" encoding="UTF-8"?>
<svg id="Layer_1" data-name="Layer 1" xmlns="http://www.w3.org/2000/svg" viewBox="0 0 408.42 258.57">
  <defs>
    <style>
      .cls-1 {
        fill: #586AAA;
      }
    </style>
  </defs>
  <path class="cls-1" d="m283.28,205.99l4.43,2.33c.4.21.89.04,1.07-.38l4.33-9.91c.18-.41-.03-.89-.45-1.04l-4.72-1.67c-13.73-4.85-27.34-10.14-40.8-15.87-.61-.26-1.24.32-1.04.94.57,1.8,1.13,3.59,1.69,5.39.06.18.18.34.34.43,11.5,6.91,23.21,13.51,35.14,19.77"/>
  <path class="cls-1" d="m323.4,193.93l4.88,1.13c.43.1.86-.18.94-.61l1.98-10.26c.08-.43-.21-.85-.65-.92l-4.95-.76c-28.03-4.32-55.86-10.29-83.3-17.93-.6-.17-1.14.4-.95.99.48,1.49.96,2.98,1.44,4.47.07.23.25.42.48.5,26.18,9.3,52.95,17.12,80.13,23.39"/>
  <path class="cls-1" d="m266.86,162.38c9.99,1.86,20.02,3.53,30.08,4.98,20.13,2.91,40.4,5.02,60.75,6.29l4.82.3c.54.03,1-.39,1.03-.93l.36-9.95c.02-.54-.41-1-.96-1l-4.83-.05c-20.07-.2-40.15-1.23-60.18-3.07-10.01-.92-20.01-2.04-30-3.37-9.98-1.33-19.93-2.86-29.86-4.6-.72-.13-1.31.56-1.08,1.26.41,1.24.82,2.47,1.23,3.71.11.32.37.57.7.64,9.27,2.1,18.58,4.03,27.93,5.78"/>
  <path class="cls-1" d="m271.47,147.61c12.74,1.17,25.53,2.01,38.33,2.52,25.6,1.02,51.29.73,76.93-.92l4.73-.3c.59-.04,1.04-.56.99-1.15l-.83-9.68c-.05-.59-.58-1.02-1.17-.96l-4.71.5c-25.13,2.66-50.43,4.02-75.77,4.06-12.67.02-25.34-.28-38.01-.92-12.66-.63-25.32-1.62-37.95-2.88l-.23-.02c-.76-.08-1.35.66-1.11,1.39.38,1.12.75,2.23,1.13,3.35.13.38.46.66.86.71,12.23,1.72,24.5,3.18,36.82,4.31"/>
  <path class="cls-1" d="m402.86,122.28l4.67-.79c.59-.1.97-.66.87-1.24l-1.79-9.53c-.11-.58-.67-.96-1.25-.84l-4.65.96c-56.02,11.59-113.57,16.33-171,14.31h-.32c-.74-.04-1.28.68-1.04,1.39l1.11,3.25c.14.4.5.69.93.72,57.41,4.06,115.45,1.41,172.47-8.22"/>
  <path class="cls-1" d="m329.17,65.21l4.45-1.61c.56-.2.84-.82.63-1.38l-3.57-9.11c-.22-.55-.85-.82-1.4-.59l-4.36,1.85c-34.87,14.8-71.04,26.77-108.02,35.8h-.04c-.61.16-.96.8-.74,1.39.37,1.03.8,2.23,1.08,3.02.17.49.68.78,1.19.68,37.4-7.01,74.82-17.09,110.78-30.06"/>
  <path class="cls-1" d="m302.56,51.36l4.31-1.94c.54-.25.78-.89.52-1.43l-4.33-8.84c-.26-.54-.92-.75-1.45-.47-28.62,15.44-58.31,28.97-88.92,40.33-.54.2-.82.8-.62,1.35.37,1,.73,2.01,1.09,3.01.19.53.76.82,1.3.66,29.98-8.9,59.44-19.8,88.1-32.68"/>
  <path class="cls-1" d="m284.84,34.93l4.08-2.37c.52-.3.68-.98.36-1.48l-5.29-8.35c-.32-.51-1-.65-1.49-.3-23.73,16.5-48.47,31.59-74.19,45.05-.47.25-.68.8-.5,1.3.37,1.01.74,2.02,1.11,3.03.21.57.86.85,1.41.61,25.49-10.97,50.39-23.47,74.49-37.48"/>
  <path class="cls-1" d="m256.81,26.64l3.82-2.76c.49-.36.59-1.05.21-1.52l-6.27-7.8c-.38-.47-1.08-.53-1.53-.12-15.84,14.29-32.31,27.93-49.48,40.73-.38.28-.52.78-.36,1.21.39,1.04.78,2.09,1.17,3.13.23.62.97.88,1.53.54,17.42-10.36,34.41-21.5,50.91-33.42"/>
  <path class="cls-1" d="m235.69,15.63l3.34-3.31c.43-.43.41-1.14-.05-1.54l-7.61-6.73c-.46-.41-1.17-.34-1.54.15-9.98,13.08-20.38,25.87-31.32,38.24-.26.3-.34.71-.2,1.07.43,1.13.87,2.27,1.3,3.41.26.69,1.13.91,1.68.43,11.8-10.15,23.28-20.72,34.39-31.72"/>
  <path class="cls-1" d="m211.92,9.52c-3.74,6.81-7.6,13.53-11.58,20.15l-.9,1.5c-.27.45-.84.64-1.32.43l-2.49-1.06c-.49-.21-.74-.74-.61-1.25l.46-1.69c2-7.4,3.87-14.81,5.58-22.24l1.05-4.54c.14-.62.81-.98,1.41-.75l10.1,3.87c.6.23.86.93.55,1.5l-2.24,4.08Z"/>
  <path class="cls-1" d="m222.33,106.76c38.96-3.36,78.05-10.03,116.11-19.69.58-.14.92-.74.76-1.31l-2.62-9.43c-.16-.58-.76-.9-1.33-.72-37.23,11.71-75.44,20.43-114.24,25.93-.66.09-1.07.76-.85,1.39.38,1.08.81,2.33,1.08,3.12.16.46.61.75,1.09.71"/>
  <path class="cls-1" d="m241.62,118.32c46.09-.8,90.63-5.76,135.29-14.97.58-.12.95-.69.82-1.27l-2.12-9.49c-.13-.58-.71-.94-1.29-.79-48.69,12.3-98.74,19.48-149.14,21.34-.71.03-1.19.73-.96,1.4.37,1.05.73,2.11,1.09,3.16.15.43.55.71,1,.71,5.1.02,10.2-.02,15.3-.1"/>
  <path class="cls-1" d="m160.79,258.57c-7.55,0-12.43-5.35-12.43-13.62v-4.05c0-8.27,4.88-13.62,12.43-13.62h9.02c.29,0,.53.24.53.53v3.76c0,.29-.24.53-.53.53l-9.02-.38c-4.76,0-7.5,3.34-7.5,9.18v4.05c0,5.83,2.73,9.18,7.5,9.18h5.96c.2,0,.36-.16.36-.36v-7.21c0-.32-.28-.57-.6-.53l-6.44.6c-.32.04-.6-.2-.6-.53v-4.06c0-.29.24-.53.53-.53h10.76c.29,0,.53.24.53.53v16.17c0,.2-.16.36-.36.36h-10.14Z"/>
  <path class="cls-1" d="m178.02,204.15h-5.28c-.81-1.33-2.13-4.13-3.12-5.78-4.74-7.89-7.88-12.48-15.6-12.48h-4.96c-.15,0-.28.13-.28.28v4.32c0,.17.15.3.32.28l4.26-.5c.52-.06,1.05-.08,1.57-.04,4.06.33,5.91,3.08,10.48,10.68.48.8,1.04,2.35,1.59,3.24h-23.14c-.47-6.16-3.18-13.61-15.39-13.61h-22.13c-.1,0-.14-.12-.07-.19l8.77-8.54c.16-.16.17-.42,0-.58l-3.77-3.79c-.17-.17-.45-.16-.6.02l-11.68,13.84c-.05.06-.06.15-.02.22l1.76,3.21c.04.06.1.1.17.1h27.58c7.68,0,9.98,4.15,10.46,9.31-7.79,0-30.84,0-44.93-.01.14-5.98-2.27-12.15-5.45-15.27-2.02-1.98-4.53-2.88-7.05-2.51-2.36.34-4.41,1.61-5.93,3.68-2.41,3.28-2.99,7.87-2.49,10.97.72,4.45,4.56,7.44,9.55,7.44h5.06c-1.05,2.73-3.8,5.11-12.45,5.18-.2,0-.38.17-.38.37v3.55c0,.21.17.38.38.38,9.15-.05,16.26-1.78,18.15-9.48,16.29,0,85.51.01,89.54.01.1,0,.19-.08.19-.19l.6-31.05c0-.16-.13-.3-.29-.3h-5.56c-.16,0-.29.13-.29.3l.6,26.74c0,.11-.08.2-.19.2m-89.55-.01c-3.22,0-5.38,0-5.84,0-1.92,0-4.3-1.48-4.69-3.93-.33-2.07.11-5.24,1.6-7.27.74-1,1.61-1.57,2.66-1.72.13-.02.27-.03.4-.03.86,0,1.7.4,2.51,1.19,1.89,1.85,3.53,6.52,3.36,11.75"/>
  <path class="cls-1" d="m189.55,208.42h4.37c.15,0,.27-.12.28-.27l.6-30.94c0-.16-.12-.28-.28-.28h-5.58c-.15,0-.28.13-.28.28l.6,30.94c0,.15.13.27.28.27"/>
  <rect class="cls-1" x="23.22" y="212.61" width="5.44" height="5.44" rx=".53" ry=".53"/>
  <rect class="cls-1" x="13.93" y="212.61" width="5.44" height="5.44" rx=".53" ry=".53"/>
  <rect class="cls-1" x="166.68" y="133.18" width="5.44" height="5.44" rx=".53" ry=".53"/>
  <rect class="cls-1" x="157.4" y="133.18" width="5.44" height="5.44" rx=".53" ry=".53"/>
  <path class="cls-1" d="m177.95,157.95h-10.42c-.13,0-.23-.1-.23-.23l.54-14.59c0-.18-.14-.32-.31-.32h-5.49c-.18,0-.33.16-.31.34l.63,14.57c0,.13-.08.23-.2.23-2.62,0-6.29,0-10.34,0,.26-6.02-2.06-12.16-5.26-15.3-2.06-2.01-4.62-2.92-7.22-2.54-2.36.34-4.41,1.61-5.93,3.68-2.41,3.28-2.99,7.87-2.49,10.97.72,4.45,4.56,7.44,9.55,7.44.65,0,2.48,0,4.86,0-1.2,2.64-4.14,5.11-12.26,5.18-.2,0-.36.16-.36.36v3.59c0,.2.17.36.36.36,10.24-.07,16.22-2.94,18.03-9.48,4.37,0,31.72.01,31.72.01.17,0,.31-.14.31-.31l.6-30.77c0-.25-.2-.46-.45-.46h-5.23c-.25,0-.45.21-.45.46l.6,26.57c0,.14-.11.26-.26.26m-31.67-.01c-2.84,0-5.08,0-5.81,0-1.92,0-4.3-1.54-4.69-3.98-.34-2.07.1-5.24,1.6-7.27.74-1,1.61-1.57,2.66-1.72.15-.02.3-.03.45-.03.92,0,1.8.41,2.63,1.22,2.23,2.18,3.41,7.1,3.17,11.79"/>
  <path class="cls-1" d="m55.12,171.67c5.81,0,9.76-1.92,11.73-5.72.61-1.18,1-2.44,1.24-3.75h46.39c.16,0,.28-.13.28-.28v-2.18c0-10.24-1.43-16.96-8.55-18.78-7.88-2.03-15.97,6.21-21.74,12.96l.6-10.82c0-.15-.11-.28-.27-.28h-5.6c-.15,0-.27.13-.26.27l.6,14.62c0,.13-.1.25-.24.25h-10.81l.61-27.01c0-.15-.12-.28-.27-.28h-5.59c-.15,0-.28.13-.27.28l.6,24.41c0,3.07,0,6.24-1.08,8.33-.69,1.32-2.2,3.69-7.37,3.69-8.75,0-7.39-9.09-7.13-12.15.02-.19-.14-.35-.33-.35h-5.58c-.18,0-.33.14-.33.33,0,3.58.05,7.69,1.64,10.76,1.97,3.8,5.92,5.72,11.74,5.72m49.87-25.95c2.46.63,3.3,2.66,3.59,12.24h-21.65c9.6-12.05,15.74-12.83,18.06-12.24"/>
  <path class="cls-1" d="m188.68,131.12l.6,30.73c0,.17.14.31.31.31h4.31c.17,0,.31-.14.31-.31l.6-30.73c0-.25-.2-.46-.45-.46h-5.23c-.25,0-.46.21-.45.46"/>
  <path class="cls-1" d="m57.49,186.14c-3.91,0-22.89.04-25.21.04-.15,0-.29.08-.36.21l-1.6,3c-.08.15-.06.33.05.46,3.34,3.88,5.33,8.42,5.83,10.94.13.67.92,3.3-2.2,3.3H13.37c-7.09,0-7.11-3.5-7.21-9.96,0-.53,0-2.65,0-3.55,0-.28-.23-.51-.51-.51H.51c-.28,0-.51.23-.51.51,0,.92,0,3.09.01,3.63.07,4.6.23,14.18,13.36,14.18h20.64c8.65,0,8.05-6.44,7.64-8.56-.54-2.74-2-6.27-4.04-9.37,3.4,0,8.04-.01,12.04-.02-2.31,3.44-3.4,8.32-2.62,11.81.66,2.93,2.91,6.42,9.9,6.42,3.02,0,11.06,0,11.06-8.47,0-7.22-3.93-14.07-10.5-14.07m-.56,18.24c-4.53,0-4.9-2.29-5.11-3.19-.46-2.02.21-5.67,2.11-8.28.74-1.02,1.98-2.26,3.67-2.46,3.57.11,4.86,5.71,4.86,9.77,0,1.83.61,4.17-5.53,4.17"/>
  <path class="cls-1" d="m125.53,130.66h-5.55c-.17,0-.3.14-.29.3l.6,30.91c0,.16.13.29.29.29h4.34c.16,0,.29-.13.29-.29l.6-30.91c0-.16-.13-.3-.29-.3"/>
  <path class="cls-1" d="m176.22,244.92c0,8.27,4.88,13.62,12.43,13.62,1.71,0,4.48.05,5.63.03.29,0,.52-.24.52-.53v-3.78c0-.29-.24-.53-.53-.53-1.08,0-3.62.37-5.62.37-4.77,0-7.5-3.34-7.5-9.18v-4.13c0-5.83,2.73-9.18,7.5-9.18,2,0,4.54.37,5.62.37.29,0,.53-.24.53-.53v-3.78c0-.29-.23-.53-.52-.53-1.15-.02-3.92.03-5.63.03-7.55,0-12.43,5.34-12.43,13.62v4.13Z"/>
  <path class="cls-1" d="m124.84,244.9c0,8.27,4.88,13.62,12.43,13.62,1.71,0,4.48.05,5.63.03.29,0,.52-.24.52-.53v-3.79c0-.29-.24-.53-.53-.53-1.08,0-3.62.37-5.62.37-4.77,0-7.5-3.34-7.5-9.18v-4.11c0-5.83,2.73-9.18,7.5-9.18,2,0,4.54.37,5.62.37.29,0,.53-.24.53-.53v-3.78c0-.29-.23-.53-.52-.53-1.15-.02-3.92.03-5.63.03-7.55,0-12.43,5.34-12.43,13.62v4.11Z"/>
</svg>