<?xml version="1.0" encoding="UTF-8"?>
<svg id="Layer_1" data-name="Layer 1" xmlns="http://www.w3.org/2000/svg" viewBox="0 0 273.22 124.79">
  <defs>
    <style>
      .cls-1 {
        fill: #586AAA;
      }
    </style>
  </defs>
  <g>
    <path class="cls-1" d="m239.31,67.31c-.59-.34-1.68-.9-3.17-1.37-2.16-.69-5.16-1.2-8.72-.64-1.2.19-2.46.51-3.77.98-.13.05-.25.09-.38.14-.67.25-1.33.55-2,.89-.57.29-1.14.6-1.7.94-1.29.77-2.56,1.67-3.8,2.61-1.41-8.52-.72-16.44-.39-20.32,0-.02.03-.03.05-.02,3.01,1.9,2.17,7.21,1.54,8.72-.01.03.03.05.06.03,3.75-4.44,1.92-9.35,1.15-10.59-.02-.03.02-.05.05-.03.54.44.99.91,1.36,1.39,1.16,1.49,1.59,3.09,1.7,4.51.06.75.04,1.44,0,2.04-.01.16-.02.31-.04.45,0,.02.02.03.04.02,0,0,.02,0,.02,0,1.01-1.99,1.5-5.01-.02-7.93-.41-.79-.97-1.58-1.7-2.34-.21-.22-.44-.43-.68-.65-.02-.02,0-.06.03-.05.23.06.44.12.65.19.64.22,1.21.53,1.7.9,1.14.84,1.91,2,2.38,3.21.38,1,.56,2.02.55,2.93,0,.03.05.04.06,0,.7-2.6.28-4.56-.61-6-.63-1.02-1.51-1.77-2.38-2.3-.59-.36-1.19-.61-1.7-.76-.3-.09-.58-.15-.82-.18-.03,0-.03-.05,0-.06.28-.03.55-.04.81-.04.63-.01,1.19.04,1.7.14,1,.19,1.79.54,2.38.94.96.65,1.43,1.4,1.59,1.71.02.03.06,0,.06-.02-.14-1.37-.77-2.44-1.65-3.22-.68-.59-1.51-1.01-2.38-1.25-.56-.16-1.14-.24-1.7-.25-.76,0-1.5.12-2.13.38-.03.01-.05-.02-.03-.04.55-.79,1.33-1.28,2.16-1.54.57-.17,1.16-.23,1.7-.2.52.03,1.01.14,1.4.33.03.01.05-.02.03-.05-.43-.49-.92-.88-1.43-1.16-.54-.3-1.12-.49-1.7-.56-1.52-.17-3.07.47-4.1,2.04-.01.02-.04.02-.05,0-.2-.35-.39-.75-.57-1.16-.41-.96-.75-2.04-.93-3.1,0-.03-.05-.03-.05,0-.18,1.07-.52,2.16-.94,3.12-.18.41-.37.8-.56,1.15,0,.02-.04.02-.05,0-1.8-2.73-5.18-2.68-7.24-.32-.02.02,0,.06.03.05,1.37-.65,3.97-.46,5.26,1.41.02.02,0,.05-.03.04-2-.84-5.1-.29-6.76,1.68-.59.7-1,1.59-1.1,2.66,0,.03.04.05.05.02.13-.24.45-.76,1.05-1.29.96-.85,2.65-1.72,5.44-1.46.03,0,.04.05,0,.06-1.43.18-4.36,1.45-5.44,4.36-.48,1.29-.6,2.9-.06,4.88,0,.03.06.03.06,0,0-.04,0-.09,0-.13.03-2.65,1.54-6.19,5.28-7.1.03,0,.05.03.03.05-4.18,3.69-3.77,8.23-2.41,10.92.01.03.06.02.06-.01-.18-2.03-.33-5.65,3.03-8.39.03-.02.07,0,.05.03-.77,1.24-2.61,6.15,1.15,10.59.02.02.07,0,.05-.03-.63-1.52-1.48-6.82,1.54-8.72.02-.01.05,0,.05.02.33,3.89,1.01,11.8-.39,20.32-2.42-1.86-4.98-3.5-7.51-4.45-.31-.12-.62-.22-.92-.32-2.61-.86-5-1.1-7.09-1.01-3.35.15-5.91,1.15-7.32,1.85-.28.14-.52.27-.71.38-.08.04-.02.15.06.13.22-.07.43-.13.65-.19,2.58-.73,5.01-.92,7.32-.72,2.52.22,4.88.92,7.09,1.91,3.1,1.4,5.91,3.39,8.44,5.5-3.58,3.12-6.6,6.16-8.44,7.23-.09.05-.18.1-.27.15-.44-.6-1.2-.95-2.04-.77-.72.16-1.32.74-1.48,1.46-.15.65.02,1.34.39,1.71.98.98,2.11,1.04,3.4.5,2.48-1.04,5.56-4.33,9.35-7.8.32-.29.63-.58.96-.87.33.29.64.58.96.87,1.71,1.57,3.28,3.1,4.72,4.41.59.54,1.16,1.03,1.7,1.48.84.69,1.64,1.26,2.38,1.65,1.45.77,2.7.86,3.77-.08.06-.05.12-.1.17-.16.25-.25.53-1.06.39-1.71-.08-.37-.29-.71-.56-.97-.25-.24-.57-.42-.92-.5-.84-.18-1.6.17-2.04.77-.25-.12-.52-.29-.82-.5-.68-.47-1.48-1.13-2.38-1.92-.53-.47-1.1-.99-1.7-1.53-1.17-1.06-2.45-2.24-3.81-3.43,1.21-1.01,2.48-1.99,3.81-2.89.56-.38,1.12-.74,1.7-1.08.77-.46,1.57-.89,2.38-1.28,1.21-.58,2.47-1.07,3.77-1.45,2.7-.77,5.6-1.04,8.72-.54,1.01.16,2.05.4,3.11.73.08.03.14-.08.06-.13"/>
    <g>
      <rect class="cls-1" x="209.83" y="115.01" width="8.1" height="8.1" transform="translate(-21.55 186.11) rotate(-45)"/>
      <rect class="cls-1" x="166.62" y="81.41" width="6.71" height="6.71" transform="translate(36.82 220.21) rotate(-71.99)"/>
      <rect class="cls-1" x="185.92" y="24.95" width="5.56" height="5.56" transform="translate(131.78 209.76) rotate(-81)"/>
      <rect class="cls-1" x="253.95" y="59.62" width="5.56" height="5.56" transform="translate(31.07 199.81) rotate(-45)"/>
      <rect class="cls-1" x="251.85" y="46.38" width="5.56" height="5.56" transform="translate(95.25 253.73) rotate(-63.01)"/>
      <rect class="cls-1" x="185.92" y="94.28" width="5.56" height="5.56" transform="translate(-12.86 30.72) rotate(-9)"/>
      <rect class="cls-1" x="236.29" y="24.95" width="5.56" height="5.56" transform="translate(-1.39 37.75) rotate(-9)"/>
      <rect class="cls-1" x="197.86" y="100.37" width="5.56" height="5.56" transform="translate(-24.96 102.31) rotate(-26.99)"/>
      <rect class="cls-1" x="211.1" y="16.77" width="5.56" height="5.56" transform="translate(48.82 156.96) rotate(-45)"/>
      <rect class="cls-1" x="205.75" y="23.29" width="4.6" height="4.6" transform="translate(65.06 178.87) rotate(-54)"/>
      <rect class="cls-1" x="217.41" y="96.89" width="4.6" height="4.6" transform="translate(10.32 218.64) rotate(-54)"/>
      <rect class="cls-1" x="178.38" y="43.18" width="4.6" height="4.6" transform="translate(-5.21 58.05) rotate(-18)"/>
      <rect class="cls-1" x="244.78" y="77.01" width="4.6" height="4.6" transform="translate(-12.42 80.22) rotate(-18)"/>
      <rect class="cls-1" x="174.78" y="65.92" width="4.6" height="4.6" transform="translate(17.8 171.38) rotate(-54)"/>
      <rect class="cls-1" x="263.72" y="75.86" width="8.1" height="8.1" transform="translate(-7.09 130.3) rotate(-27)"/>
      <rect class="cls-1" x="176.52" y="104.19" width="8.1" height="8.1" transform="translate(-14.72 29.6) rotate(-9.01)"/>
      <rect class="cls-1" x="243.14" y="12.5" width="8.1" height="8.1" transform="translate(.46 38.9) rotate(-9.01)"/>
      <rect class="cls-1" x="161.86" y="66.75" width="6.71" height="6.71" transform="translate(11.38 162.55) rotate(-54)"/>
      <rect class="cls-1" x="197.86" y="18.87" width="5.56" height="5.56" transform="translate(90.28 190.6) rotate(-63.01)"/>
      <rect class="cls-1" x="170.35" y="46.38" width="5.56" height="5.56" transform="translate(-3.45 83.94) rotate(-26.99)"/>
      <rect class="cls-1" x="211.1" y="102.47" width="5.56" height="5.56" transform="translate(-11.77 182.06) rotate(-45)"/>
      <rect class="cls-1" x="244.78" y="43.18" width="4.6" height="4.6" transform="translate(127.48 266.42) rotate(-72)"/>
      <rect class="cls-1" x="185.23" y="86.44" width="4.6" height="4.6"/>
      <rect class="cls-1" x="155.94" y="40.83" width="8.1" height="8.1" transform="translate(-2.94 77.54) rotate(-27)"/>
      <rect class="cls-1" x="155.94" y="75.86" width="8.1" height="8.1" transform="translate(16.15 186.17) rotate(-63)"/>
      <rect class="cls-1" x="188.15" y="15.13" width="6.71" height="6.71" transform="translate(114.74 194.91) rotate(-72)"/>
      <rect class="cls-1" x="232.9" y="102.95" width="6.71" height="6.71" transform="translate(62.14 298.13) rotate(-72)"/>
      <rect class="cls-1" x="254.43" y="81.41" width="6.71" height="6.71" transform="translate(-13.58 83.82) rotate(-18)"/>
      <rect class="cls-1" x="259.2" y="66.75" width="6.71" height="6.71" transform="translate(8.94 167.72) rotate(-36)"/>
      <rect class="cls-1" x="254.43" y="36.67" width="6.71" height="6.71" transform="translate(140.05 272.82) rotate(-72)"/>
      <rect class="cls-1" x="245.37" y="24.2" width="6.71" height="6.71"/>
      <rect class="cls-1" x="188.16" y="102.95" width="6.71" height="6.71" transform="translate(-23.48 64.39) rotate(-18)"/>
      <rect class="cls-1" x="218.23" y="107.71" width="6.71" height="6.71" transform="translate(1.49 225.04) rotate(-54)"/>
      <rect class="cls-1" x="170.35" y="72.86" width="5.56" height="5.56" transform="translate(27.15 195.57) rotate(-63.01)"/>
      <rect class="cls-1" x="185.23" y="33.75" width="4.6" height="4.6"/>
      <rect class="cls-1" x="174.78" y="54.27" width="4.6" height="4.6" transform="translate(.57 114.89) rotate(-36)"/>
      <rect class="cls-1" x="228.49" y="26.9" width="4.6" height="4.6" transform="translate(2.27 72.74) rotate(-18)"/>
      <rect class="cls-1" x="217.41" y="23.29" width="4.6" height="4.6" transform="translate(26.91 134.03) rotate(-36)"/>
      <rect class="cls-1" x="238.19" y="79.53" width="3.81" height="3.81" transform="translate(-9.79 38.59) rotate(-9.01)"/>
      <rect class="cls-1" x="244.37" y="60.49" width="3.81" height="3.81" transform="translate(28.01 192.42) rotate(-45)"/>
      <rect class="cls-1" x="263.72" y="40.83" width="8.1" height="8.1" transform="translate(106.2 263.08) rotate(-63)"/>
      <rect class="cls-1" x="245.37" y="93.88" width="6.71" height="6.71"/>
      <rect class="cls-1" x="166.62" y="36.67" width="6.71" height="6.71" transform="translate(-4.05 54.49) rotate(-18)"/>
      <rect class="cls-1" x="232.9" y="15.13" width="6.71" height="6.71" transform="translate(5.86 73.94) rotate(-18.01)"/>
      <rect class="cls-1" x="202.82" y="10.37" width="6.71" height="6.71" transform="translate(73.88 172.45) rotate(-54)"/>
      <rect class="cls-1" x="251.85" y="72.86" width="5.56" height="5.56" transform="translate(-6.59 123.82) rotate(-26.99)"/>
      <rect class="cls-1" x="168.25" y="59.62" width="5.56" height="5.56" transform="translate(5.97 139.21) rotate(-45)"/>
      <rect class="cls-1" x="248.38" y="65.92" width="4.6" height="4.6" transform="translate(7.77 160.37) rotate(-36)"/>
      <rect class="cls-1" x="194.66" y="93.29" width="4.6" height="4.6" transform="translate(-19.9 65.53) rotate(-18)"/>
      <rect class="cls-1" x="211.97" y="92.89" width="3.81" height="3.81" transform="translate(-4.38 179) rotate(-45)"/>
      <rect class="cls-1" x="192.93" y="34.28" width="3.81" height="3.81" transform="translate(128.6 222.95) rotate(-80.99)"/>
      <rect class="cls-1" x="181.16" y="70.5" width="3.81" height="3.81" transform="translate(35.43 202.64) rotate(-63)"/>
      <rect class="cls-1" x="175.68" y="24.2" width="6.71" height="6.71"/>
      <rect class="cls-1" x="218.23" y="10.37" width="6.71" height="6.71" transform="translate(34.26 132.87) rotate(-36)"/>
      <rect class="cls-1" x="224.34" y="100.37" width="5.56" height="5.56" transform="translate(32.12 258.7) rotate(-63.01)"/>
      <rect class="cls-1" x="176.44" y="84.8" width="5.56" height="5.56" transform="translate(64.67 250.88) rotate(-81)"/>
      <rect class="cls-1" x="245.77" y="34.43" width="5.56" height="5.56" transform="translate(172.9 276.87) rotate(-81)"/>
      <rect class="cls-1" x="237.93" y="86.44" width="4.6" height="4.6"/>
      <rect class="cls-1" x="248.38" y="54.27" width="4.6" height="4.6" transform="translate(57.57 226.12) rotate(-54)"/>
      <rect class="cls-1" x="205.75" y="96.89" width="4.6" height="4.6" transform="translate(-18.57 141.23) rotate(-36)"/>
      <rect class="cls-1" x="201.96" y="29.68" width="3.81" height="3.81" transform="translate(83.16 198.88) rotate(-63)"/>
      <rect class="cls-1" x="221.99" y="91.3" width="3.81" height="3.81" transform="translate(39.19 250.37) rotate(-63)"/>
      <rect class="cls-1" x="231.02" y="86.7" width="3.81" height="3.81" transform="translate(108.95 304.79) rotate(-80.99)"/>
      <rect class="cls-1" x="181.16" y="50.48" width="3.81" height="3.81" transform="translate(-3.83 88.84) rotate(-27)"/>
      <rect class="cls-1" x="242.79" y="70.5" width="3.81" height="3.81" transform="translate(-6.2 119) rotate(-27)"/>
      <rect class="cls-1" x="185.76" y="79.53" width="3.81" height="3.81" transform="translate(77.86 254.04) rotate(-80.99)"/>
      <rect class="cls-1" x="231.02" y="34.28" width="3.81" height="3.81" transform="translate(-2.79 36.91) rotate(-9.01)"/>
      <rect class="cls-1" x="201.96" y="91.3" width="3.81" height="3.81" transform="translate(-20.09 102.73) rotate(-27)"/>
      <rect class="cls-1" x="176.52" y="12.5" width="8.1" height="8.1" transform="translate(135.96 192.3) rotate(-80.99)"/>
      <rect class="cls-1" x="243.14" y="104.19" width="8.1" height="8.1" transform="translate(101.59 335.44) rotate(-80.99)"/>
      <rect class="cls-1" x="209.83" y="1.68" width="8.1" height="8.1" transform="translate(58.59 152.91) rotate(-45)"/>
      <rect class="cls-1" x="161.86" y="51.33" width="6.71" height="6.71" transform="translate(-.59 107.56) rotate(-36)"/>
      <rect class="cls-1" x="259.19" y="51.33" width="6.71" height="6.71" transform="translate(63.98 234.94) rotate(-54)"/>
      <rect class="cls-1" x="175.68" y="93.88" width="6.71" height="6.71"/>
      <rect class="cls-1" x="202.82" y="107.71" width="6.71" height="6.71" transform="translate(-25.91 142.4) rotate(-36)"/>
      <rect class="cls-1" x="236.29" y="94.28" width="5.56" height="5.56" transform="translate(105.79 317.99) rotate(-81)"/>
      <rect class="cls-1" x="176.44" y="34.43" width="5.56" height="5.56" transform="translate(-3.61 28.5) rotate(-9)"/>
      <rect class="cls-1" x="245.77" y="84.8" width="5.56" height="5.56" transform="translate(-10.64 39.97) rotate(-9)"/>
      <rect class="cls-1" x="224.34" y="18.87" width="5.56" height="5.56" transform="translate(14.92 105.45) rotate(-26.99)"/>
      <rect class="cls-1" x="194.66" y="26.9" width="4.6" height="4.6" transform="translate(108.34 207.5) rotate(-72)"/>
      <rect class="cls-1" x="228.49" y="93.29" width="4.6" height="4.6" transform="translate(68.57 285.56) rotate(-72)"/>
      <rect class="cls-1" x="178.38" y="77.01" width="4.6" height="4.6" transform="translate(49.43 226.65) rotate(-72)"/>
      <rect class="cls-1" x="237.93" y="33.75" width="4.6" height="4.6"/>
      <rect class="cls-1" x="211.97" y="28.09" width="3.81" height="3.81" transform="translate(41.44 160.02) rotate(-45)"/>
      <rect class="cls-1" x="185.76" y="41.45" width="3.81" height="3.81" transform="translate(-4.47 29.91) rotate(-9.01)"/>
      <rect class="cls-1" x="179.58" y="60.49" width="3.81" height="3.81" transform="translate(9.03 146.6) rotate(-45)"/>
      <rect class="cls-1" x="242.79" y="50.48" width="3.81" height="3.81" transform="translate(86.91 246.61) rotate(-63)"/>
      <rect class="cls-1" x="238.19" y="41.45" width="3.81" height="3.81" transform="translate(159.69 273.7) rotate(-80.99)"/>
      <rect class="cls-1" x="192.93" y="86.7" width="3.81" height="3.81" transform="translate(-11.47 31.59) rotate(-9.01)"/>
      <rect class="cls-1" x="221.99" y="29.68" width="3.81" height="3.81" transform="translate(10.07 105.1) rotate(-27)"/>
    </g>
  </g>
  <g>
    <g>
      <path class="cls-1" d="m5.82,35.59C1.63,35.59.05,33.64.05,30.57c0-2.83,1.75-5.42,5.7-5.42,2.57,0,4.54.76,4.54.76v7.43h2.23v2.25h-6.7Zm-2.05-14.43c.78,0,1.4.61,1.4,1.41s-.61,1.4-1.4,1.4-1.41-.65-1.41-1.4.63-1.41,1.41-1.41Zm3.76,6.63s-.82-.39-2.05-.39c-1.62,0-2.57,1.23-2.57,2.92,0,1.97.97,3.03,3.24,3.03h1.38v-5.55Zm-.3-6.63c.76,0,1.4.63,1.4,1.41s-.63,1.4-1.4,1.4-1.41-.65-1.41-1.4.63-1.41,1.41-1.41Z"/>
      <path class="cls-1" d="m12.19,33.34h2.61v2.25h-2.61v-2.25Z"/>
      <path class="cls-1" d="m14.48,33.34h2.61v2.25h-2.61v-2.25Z"/>
      <path class="cls-1" d="m16.77,33.34h2.61v2.25h-2.61v-2.25Z"/>
      <path class="cls-1" d="m18.2,33.34h2.61v2.25h-2.61v-2.25Z"/>
      <path class="cls-1" d="m20.49,33.34h2.61v2.25h-2.61v-2.25Z"/>
      <path class="cls-1" d="m22.78,33.34h2.61v2.25h-2.61v-2.25Z"/>
      <path class="cls-1" d="m25.07,33.34h2.61v2.25h-2.61v-2.25Z"/>
      <path class="cls-1" d="m27.36,33.34h2.61v2.25h-2.61v-2.25Z"/>
      <path class="cls-1" d="m29.65,33.34h2.61v2.25h-2.61v-2.25Z"/>
      <path class="cls-1" d="m31.94,33.34h2.61v2.25h-2.61v-2.25Z"/>
      <path class="cls-1" d="m34.23,33.34h2.61v2.25h-2.61v-2.25Z"/>
      <path class="cls-1" d="m36.52,33.34h2.61v2.25h-2.61v-2.25Z"/>
      <path class="cls-1" d="m38.81,33.34h2.61v2.25h-2.61v-2.25Z"/>
      <path class="cls-1" d="m41.1,33.34h2.61v2.25h-2.61v-2.25Z"/>
      <path class="cls-1" d="m43.39,33.34h2.61v2.25h-2.61v-2.25Z"/>
      <path class="cls-1" d="m44.38,34.46c0-.67.86-1.12,1.3-1.12h2.55v-7.91h2.85v7.91h2.23v2.25h-7.63c-.43,0-1.3-.43-1.3-1.12Zm3.52,2.7c.76,0,1.41.63,1.41,1.41s-.63,1.4-1.41,1.4-1.4-.65-1.4-1.4.63-1.41,1.4-1.41Zm3.46,0c.76,0,1.41.63,1.41,1.41s-.63,1.4-1.41,1.4-1.4-.65-1.4-1.4.63-1.41,1.4-1.41Z"/>
      <path class="cls-1" d="m56.5,33.92c-.39.99-1.25,1.66-3.07,1.66h-.45c-.43,0-1.3-.43-1.3-1.12s.86-1.12,1.3-1.12h.15c1.3,0,2.14-.71,2.14-2.94,0-2.75,1.88-5.25,5.62-5.25,3.37,0,4.88,1.95,4.88,4.97v3.22h1.73v2.25h-6.16c-3.11,0-4.08-.67-4.84-1.66Zm6.48-3.46c0-2.16-.86-3.07-2.31-3.07-1.62,0-2.57,1.23-2.57,2.92,0,2.03.99,3.03,3.24,3.03h1.64v-2.87Z"/>
      <path class="cls-1" d="m65.88,34.46c0-.67.86-1.12,1.3-1.12h2.55v-7.91h2.85v7.91h2.23v2.25h-7.63c-.43,0-1.3-.43-1.3-1.12Zm5.27-13.33c.8,0,1.49.67,1.49,1.49s-.69,1.49-1.49,1.49-1.49-.69-1.49-1.49.69-1.49,1.49-1.49Z"/>
      <path class="cls-1" d="m74.48,35.59c-.43,0-1.3-.43-1.3-1.12s.86-1.12,1.3-1.12h2.55v-7.91h2.85v10.16h-5.4Zm2.14-14.43c.78,0,1.4.61,1.4,1.41s-.6,1.4-1.4,1.4-1.4-.65-1.4-1.4.63-1.41,1.4-1.41Zm3.46,0c.76,0,1.4.63,1.4,1.41s-.63,1.4-1.4,1.4-1.4-.65-1.4-1.4.63-1.41,1.4-1.41Z"/>
      <path class="cls-1" d="m93.84,35.59c-3.2,0-4.06,1.06-4.06,2.38,0,1.19,1.08,2.29,3.57,2.29l-.19,2.25c-4.24,0-6.2-1.86-6.2-4.37,0-2.72,2.05-4.8,7-4.8h1.47c.06-.52.11-1.1.11-1.64,0-2.74-1.12-4.15-4.23-4.15-.89,0-1.69.06-2.48.17v-2.23c.84-.11,1.84-.19,2.77-.19,4.86,0,6.78,2.14,6.78,6.29,0,.52-.02,1.12-.09,1.75h1.36v2.25h-5.79Zm1.43,1.45c.82,0,1.47.61,1.47,1.47s-.65,1.47-1.47,1.47-1.47-.65-1.47-1.47.63-1.47,1.47-1.47Z"/>
      <path class="cls-1" d="m99.3,35.59c-.43,0-1.3-.43-1.3-1.12s.86-1.12,1.3-1.12h1.66c.76,0,1.21.15,1.21.15-.8-.58-1.21-1.56-1.21-3.09,0-2.75,1.88-5.25,5.62-5.25,3.37,0,4.88,1.95,4.88,4.97v5.47h-12.16Zm9.38-5.12c0-2.16-.86-3.07-2.31-3.07-1.62,0-2.57,1.23-2.57,2.92,0,2.03.99,3.03,3.24,3.03h1.64v-2.87Z"/>
      <path class="cls-1" d="m114.58,20.35h2.85v12.99h2.23v2.25h-5.08v-15.23Z"/>
      <path class="cls-1" d="m119.33,35.59c-.43,0-1.3-.43-1.3-1.12s.86-1.12,1.3-1.12h2.55v-7.91h2.85v10.16h-5.4Zm3.98-14.46c.8,0,1.49.67,1.49,1.49s-.69,1.49-1.49,1.49-1.49-.69-1.49-1.49.69-1.49,1.49-1.49Z"/>
      <path class="cls-1" d="m125.08,40.86l.21-2.27c.52.15,1.06.26,1.75.26,1.47,0,2.33-.69,2.33-3.03v-10.39h2.85v7.91h2.23v2.25h-2.23v.09c0,2.77-.95,5.4-5.34,5.4-.67,0-1.3-.09-1.81-.22Z"/>
      <path class="cls-1" d="m133.61,35.59c-.43,0-1.3-.43-1.3-1.12s.86-1.12,1.3-1.12h2.55v-7.91h2.85v10.16h-5.4Zm3.85,1.45c.82,0,1.47.61,1.47,1.47s-.65,1.47-1.47,1.47-1.47-.65-1.47-1.47.63-1.47,1.47-1.47Z"/>
      <g>
        <path class="cls-1" d="m5.77,60.56c-4.19,0-5.77-1.94-5.77-5.01,0-2.83,1.75-5.42,5.7-5.42,2.57,0,4.54.76,4.54.76v7.43h2.23v2.25h-6.7Zm-2.05-14.43c.78,0,1.4.61,1.4,1.41s-.61,1.41-1.4,1.41-1.41-.65-1.41-1.41.63-1.41,1.41-1.41Zm3.76,6.63s-.82-.39-2.05-.39c-1.62,0-2.57,1.23-2.57,2.92,0,1.97.97,3.03,3.24,3.03h1.38v-5.55Zm-.3-6.63c.76,0,1.4.63,1.4,1.41s-.63,1.41-1.4,1.41-1.41-.65-1.41-1.41.63-1.41,1.41-1.41Z"/>
        <path class="cls-1" d="m12.14,60.56c-.43,0-1.3-.43-1.3-1.12s.86-1.12,1.3-1.12h2.55v-7.91h2.85v10.16h-5.4Zm.69,1.58c.76,0,1.4.63,1.4,1.41s-.63,1.4-1.4,1.4-1.41-.65-1.41-1.4.63-1.41,1.41-1.41Zm3.46,0c.76,0,1.4.63,1.4,1.41s-.63,1.4-1.4,1.4-1.4-.65-1.4-1.4.63-1.41,1.4-1.41Z"/>
        <path class="cls-1" d="m18.77,65.84l.22-2.27c.52.15,1.06.26,1.75.26,1.47,0,2.33-.69,2.33-3.03v-10.39h2.85v7.91h2.23v2.25h-2.23v.09c0,2.77-.95,5.4-5.34,5.4-.67,0-1.3-.09-1.82-.22Z"/>
        <path class="cls-1" d="m37.62,59.07c-.43.93-1.58,1.66-3.26,1.66-1.41,0-2.55-.65-2.9-1.68-.43.99-1.3,1.51-2.87,1.51h-.76c-.43,0-1.3-.43-1.3-1.12s.86-1.12,1.3-1.12h.78c1.41,0,1.94-.56,1.94-2.68v-3.93h2.85v4c0,1.94.22,2.79,1.49,2.79,1.12,0,1.75-.67,1.75-2.77v-4.88h2.74v5.42c0,1.71.58,2.05,2.57,2.05h.58c.09-.86.13-1.92.13-2.59,0-2.16-.26-4.15-.63-5.79l2.79-.39c.41,1.73.69,3.85.69,5.99,0,.86-.02,1.84-.09,2.79h2.14v2.25h-5.92c-2.27,0-3.41-.3-4.04-1.49Zm-1.51-12.84c.76,0,1.41.63,1.41,1.4s-.65,1.41-1.41,1.41-1.4-.63-1.4-1.41.63-1.4,1.4-1.4Zm1.79-2.83c.78,0,1.4.63,1.4,1.4s-.63,1.41-1.4,1.41-1.4-.63-1.4-1.41.63-1.4,1.4-1.4Zm1.77,2.83c.78,0,1.41.63,1.41,1.4s-.63,1.41-1.41,1.41-1.4-.63-1.4-1.41.65-1.4,1.4-1.4Z"/>
        <path class="cls-1" d="m47.25,60.56c-.43,0-1.3-.43-1.3-1.12s.86-1.12,1.3-1.12h2.55v-7.91h2.85v7.91h2.23v2.25h-7.63Zm3.95,1.45c.82,0,1.47.61,1.47,1.47s-.65,1.47-1.47,1.47-1.47-.65-1.47-1.47.63-1.47,1.47-1.47Z"/>
        <path class="cls-1" d="m54.55,60.56c-.43,0-1.3-.43-1.3-1.12s.86-1.12,1.3-1.12h2.55v-12.99h2.85v15.23h-5.4Z"/>
        <path class="cls-1" d="m63.41,45.33h2.85v15.23h-2.85v-15.23Z"/>
        <path class="cls-1" d="m81.91,60.56c-5.88,0-7.93-2.44-7.93-6.4,0-1.17.24-2.51.56-3.39l3.07-.5c-.48.99-.76,2.42-.76,3.57,0,3.05,1.32,4.47,5.38,4.47h2.92v-7.91h2.85v10.16h-6.09Zm-2.05-14.43c.78,0,1.41.61,1.41,1.41s-.61,1.41-1.41,1.41-1.4-.65-1.4-1.41.63-1.41,1.4-1.41Zm3.46,0c.76,0,1.41.63,1.41,1.41s-.63,1.41-1.41,1.41-1.4-.65-1.4-1.41.63-1.41,1.4-1.41Z"/>
        <path class="cls-1" d="m91.48,45.33h2.85v15.23h-2.85v-15.23Z"/>
        <path class="cls-1" d="m94.7,65.84l.22-2.27c.52.15,1.06.26,1.75.26,1.47,0,2.33-.69,2.33-3.03v-10.39h2.85v10.24c0,2.77-.95,5.4-5.34,5.4-.67,0-1.3-.09-1.82-.22Z"/>
        <path class="cls-1" d="m104.05,58.32h6.4c-.13-3.2-1.69-5.19-5.1-6.05l.69-2.38c4.45,1.17,6.94,3.61,7.2,8.43h1.21v2.25h-10.39v-2.25Z"/>
        <path class="cls-1" d="m114.12,60.56c-.43,0-1.3-.43-1.3-1.12s.86-1.12,1.3-1.12h1.3c.67,0,1.34.11,1.34.11-.67-.67-1.02-1.68-1.02-2.92,0-3.11,2.23-5.38,5.51-5.38,3.05,0,5.01,1.6,5.01,5.04,0,1.25-.43,2.57-1.25,3.26,0,0,.91-.11,1.66-.11h.93v2.25h-13.48Zm5.21-14.43c.78,0,1.41.61,1.41,1.41s-.61,1.41-1.41,1.41-1.41-.65-1.41-1.41.63-1.41,1.41-1.41Zm4.08,9.18c0-1.9-.76-2.94-2.38-2.94-1.23,0-2.42.86-2.42,2.9s.8,3.05,2.38,3.05c1.36,0,2.42-.99,2.42-3Zm-.63-9.18c.76,0,1.41.63,1.41,1.41s-.63,1.41-1.41,1.41-1.4-.65-1.4-1.41.63-1.41,1.4-1.41Z"/>
        <path class="cls-1" d="m127.28,60.56c-.43,0-1.3-.43-1.3-1.12s.86-1.12,1.3-1.12h2.55v-12.99h2.85v15.23h-5.4Z"/>
        <path class="cls-1" d="m136.14,45.33h2.85v15.23h-2.85v-15.23Z"/>
      </g>
    </g>
    <g>
      <path class="cls-1" d="m8.95,85.36v-5.34H3.04v5.34h-1.58v-11.59h1.58v4.91h5.91v-4.91h1.58v11.59h-1.58Z"/>
      <path class="cls-1" d="m18.79,85.36c0-.74.05-1.34.14-1.8h-.03c-.56,1.3-1.56,1.96-3.01,1.96-1.71,0-2.56-.91-2.56-2.73v-5.96h1.53v5.5c0,1.28.49,1.92,1.46,1.92.7,0,1.29-.32,1.74-.96.45-.63.68-1.42.68-2.37v-4.09h1.54v8.54h-1.49Z"/>
      <path class="cls-1" d="m34.2,85.36v-5.48c0-1.3-.46-1.95-1.39-1.95-.64,0-1.19.3-1.65.91-.49.64-.74,1.47-.74,2.47v4.05h-1.53v-5.48c0-1.3-.46-1.95-1.39-1.95-.66,0-1.22.32-1.69.95-.47.65-.7,1.46-.7,2.42v4.05h-1.54v-8.54h1.49c0,.72-.04,1.32-.12,1.8l.02.02c.54-1.31,1.53-1.97,2.97-1.97.8,0,1.41.24,1.83.7.3.34.48.75.53,1.23.58-1.29,1.55-1.94,2.92-1.94,1.69,0,2.54.93,2.54,2.8v5.89h-1.54Z"/>
      <path class="cls-1" d="m43.55,85.36c0-.81.03-1.38.08-1.7h-.03c-.49,1.24-1.45,1.85-2.9,1.85-.7,0-1.28-.21-1.72-.63-.44-.43-.65-.98-.65-1.67,0-.92.45-1.64,1.34-2.16.91-.52,2.17-.78,3.79-.78v-.39c0-.7-.13-1.2-.39-1.52-.29-.33-.75-.49-1.41-.49-.83,0-1.69.21-2.58.62l-.29-1.22c.99-.41,2.02-.61,3.08-.61,2.1,0,3.15,1,3.15,2.99v3.26c0,.9.02,1.72.05,2.46h-1.51Zm-.09-4c-2.41,0-3.61.54-3.61,1.63,0,.38.12.69.36.93.24.25.56.38.95.38.66,0,1.22-.29,1.67-.86.42-.54.63-1.16.63-1.86v-.22Z"/>
      <path class="cls-1" d="m53.63,85.36v-5.49c0-1.29-.49-1.93-1.46-1.93-.7,0-1.28.32-1.74.96-.46.64-.69,1.43-.69,2.38v4.09h-1.54v-8.54h1.49c0,.74-.04,1.34-.13,1.8h.03c.55-1.3,1.55-1.96,3-1.96,1.72,0,2.58.91,2.58,2.73v5.96h-1.54Z"/>
      <path class="cls-1" d="m69.94,84.88c-1,.41-2.06.61-3.18.61-1.79,0-3.13-.53-4.03-1.59-.83-.97-1.24-2.32-1.24-4.05,0-1.87.46-3.34,1.37-4.42.99-1.18,2.42-1.77,4.3-1.77.95,0,1.84.12,2.66.36l-.25,1.44c-.88-.3-1.74-.44-2.58-.44-1.26,0-2.22.44-2.88,1.33-.6.8-.9,1.88-.9,3.24,0,3,1.31,4.5,3.93,4.5.92,0,1.77-.19,2.54-.58l.26,1.38Z"/>
      <path class="cls-1" d="m77.23,85.36c0-.81.03-1.38.08-1.7h-.03c-.49,1.24-1.45,1.85-2.9,1.85-.71,0-1.28-.21-1.72-.63-.44-.43-.65-.98-.65-1.67,0-.92.45-1.64,1.34-2.16.91-.52,2.17-.78,3.79-.78v-.39c0-.7-.13-1.2-.39-1.52-.29-.33-.76-.49-1.41-.49-.83,0-1.69.21-2.58.62l-.29-1.22c.99-.41,2.02-.61,3.08-.61,2.1,0,3.15,1,3.15,2.99v3.26c0,.9.02,1.72.05,2.46h-1.51Zm-.09-4c-2.4,0-3.61.54-3.61,1.63,0,.38.12.69.36.93.24.25.56.38.95.38.66,0,1.22-.29,1.67-.86.42-.54.63-1.16.63-1.86v-.22Z"/>
      <path class="cls-1" d="m87.98,84.22c-.77.83-1.85,1.24-3.24,1.24-.56,0-1.04-.03-1.44-.1v4.24h-1.54v-12.78h1.49c0,.73-.04,1.31-.13,1.74l.03.02c.51-1.27,1.47-1.9,2.87-1.9,1,0,1.77.34,2.31,1.03.55.69.82,1.69.82,2.99,0,1.52-.39,2.69-1.17,3.53Zm-2.34-6.28c-.72,0-1.31.36-1.75,1.09-.39.64-.59,1.38-.59,2.21v2.82c.45.14.95.21,1.52.21,1.81,0,2.71-1.15,2.71-3.44,0-1.92-.63-2.89-1.89-2.89Z"/>
      <path class="cls-1" d="m96.34,85.36c0-.81.03-1.38.08-1.7h-.03c-.49,1.24-1.45,1.85-2.9,1.85-.71,0-1.28-.21-1.72-.63-.44-.43-.65-.98-.65-1.67,0-.92.45-1.64,1.34-2.16.91-.52,2.17-.78,3.79-.78v-.39c0-.7-.13-1.2-.39-1.52-.29-.33-.76-.49-1.41-.49-.83,0-1.69.21-2.58.62l-.29-1.22c.99-.41,2.02-.61,3.08-.61,2.1,0,3.15,1,3.15,2.99v3.26c0,.9.02,1.72.05,2.46h-1.51Zm-.09-4c-2.4,0-3.61.54-3.61,1.63,0,.38.12.69.36.93.24.25.56.38.95.38.66,0,1.22-.29,1.67-.86.42-.54.63-1.16.63-1.86v-.22Z"/>
      <path class="cls-1" d="m107.18,84.2c-.79.85-1.87,1.28-3.26,1.28-1.09,0-2.07-.11-2.94-.34v-12.32h1.54v4.14c0,.63-.05,1.16-.15,1.59l.03.02c.49-1.27,1.43-1.9,2.82-1.9,1.01,0,1.78.34,2.32,1.03.55.69.82,1.68.82,2.99,0,1.49-.4,2.66-1.2,3.51Zm-2.31-6.27c-.72,0-1.31.36-1.75,1.09-.39.64-.59,1.37-.59,2.19v2.84c.45.14.95.21,1.52.21,1.81,0,2.71-1.15,2.71-3.44,0-1.92-.63-2.89-1.89-2.89Z"/>
      <path class="cls-1" d="m112.29,74.83c-.2.19-.44.29-.73.29s-.53-.09-.73-.29-.3-.43-.3-.7.1-.53.3-.72c.2-.2.44-.29.73-.29s.53.1.73.29c.2.2.3.44.3.72s-.1.51-.3.7Zm-1.5,10.53v-8.54h1.54v8.54h-1.54Z"/>
      <path class="cls-1" d="m115.69,85.36v-12.54h1.54v12.54h-1.54Z"/>
      <path class="cls-1" d="m122.02,74.83c-.2.19-.44.29-.73.29s-.53-.09-.73-.29-.3-.43-.3-.7.1-.53.3-.72c.2-.2.44-.29.73-.29s.53.1.73.29c.2.2.3.44.3.72s-.1.51-.3.7Zm-1.5,10.53v-8.54h1.54v8.54h-1.54Z"/>
      <path class="cls-1" d="m129.54,85.31c-.52.12-1.09.18-1.72.18-.86,0-1.46-.2-1.8-.59-.32-.37-.49-1.03-.49-1.97v-4.91h-1.75v-1.21h1.75v-2.77l1.54-.43v3.2h2.39v1.21h-2.39v4.36c0,.7.09,1.17.26,1.42.17.25.49.37.96.37.39,0,.75-.05,1.08-.14l.15,1.27Z"/>
      <path class="cls-1" d="m135.07,86.08c-.51,1.36-1.07,2.32-1.68,2.86-.59.53-1.37.8-2.34.8-.3,0-.63-.03-1-.1l.17-1.38c.3.09.64.13,1.03.13.97,0,1.73-.7,2.26-2.11l.34-.93-3.23-8.54h1.75l1.62,4.44c.18.51.4,1.22.65,2.11h.03c.15-.58.43-1.46.84-2.63l1.38-3.92h1.69l-3.51,9.26Z"/>
      <path class="cls-1" d="m7.46,99.62c-.94.83-2.22,1.24-3.84,1.24-.34,0-.78,0-1.31-.03-.53-.02-.9-.03-1.11-.03v-9.54l2.86-.06c3.25,0,4.88,1.57,4.88,4.71,0,1.59-.5,2.83-1.49,3.7Zm-3.53-7.35c-.24,0-.72.01-1.43.04v7.36c.35.06.78.08,1.27.08,1.17,0,2.08-.3,2.74-.9.71-.65,1.07-1.6,1.07-2.85,0-2.49-1.21-3.74-3.64-3.74Z"/>
      <path class="cls-1" d="m16.15,97.33h-4.6c-.04,1.72.7,2.58,2.23,2.58.71,0,1.38-.14,2.01-.41l.18,1c-.73.29-1.54.44-2.43.44-2.2,0-3.3-1.2-3.3-3.61,0-1.07.28-1.95.84-2.63.58-.7,1.36-1.05,2.34-1.05s1.64.28,2.13.85c.44.51.66,1.19.66,2.04,0,.24-.01.51-.04.79Zm-1.26-.91c.01-.57-.12-1.01-.41-1.33-.28-.32-.67-.48-1.17-.48-1,0-1.57.6-1.74,1.81h3.31Z"/>
      <path class="cls-1" d="m21.1,100.81h-1.46l-2.56-7.04h1.42l1.49,4.31c.18.58.32,1.06.41,1.43h.03c.12-.46.25-.93.4-1.4l1.51-4.33h1.36l-2.59,7.04Z"/>
      <path class="cls-1" d="m30.26,97.33h-4.6c-.04,1.72.7,2.58,2.23,2.58.71,0,1.38-.14,2.01-.41l.18,1c-.73.29-1.54.44-2.43.44-2.2,0-3.3-1.2-3.3-3.61,0-1.07.28-1.95.84-2.63.58-.7,1.36-1.05,2.34-1.05s1.64.28,2.13.85c.44.51.66,1.19.66,2.04,0,.24-.01.51-.04.79Zm-1.26-.91c.01-.57-.12-1.01-.41-1.33-.28-.32-.67-.48-1.17-.48-1,0-1.57.6-1.74,1.81h3.31Z"/>
      <path class="cls-1" d="m32.11,100.81v-10.34h1.27v10.34h-1.27Z"/>
      <path class="cls-1" d="m40.8,99.85c-.64.72-1.47,1.09-2.49,1.09-2.11,0-3.16-1.19-3.16-3.58,0-1.06.31-1.94.92-2.63.64-.72,1.47-1.08,2.51-1.08.96,0,1.71.27,2.25.81.6.6.9,1.51.9,2.72,0,1.08-.31,1.97-.93,2.68Zm-2.34-5.14c-.55,0-1.01.2-1.38.61-.41.46-.62,1.1-.62,1.91,0,1.76.67,2.63,2,2.63.56,0,1.02-.21,1.37-.64.39-.47.59-1.13.59-1.98,0-1.69-.65-2.54-1.96-2.54Z"/>
      <path class="cls-1" d="m48.55,99.87c-.64.68-1.53,1.02-2.67,1.02-.46,0-.86-.03-1.19-.08v3.5h-1.27v-10.54h1.23c0,.6-.04,1.08-.11,1.43h.03c.42-1.03,1.21-1.56,2.36-1.56.82,0,1.46.28,1.9.85.45.57.68,1.39.68,2.46,0,1.25-.32,2.22-.96,2.91Zm-1.93-5.18c-.59,0-1.08.3-1.44.9-.32.53-.48,1.14-.48,1.82v2.32c.37.12.79.17,1.25.17,1.49,0,2.23-.94,2.23-2.83,0-1.59-.52-2.38-1.56-2.38Z"/>
      <path class="cls-1" d="m59.96,100.81v-4.51c0-1.07-.38-1.6-1.15-1.6-.53,0-.98.25-1.36.75-.41.53-.61,1.21-.61,2.03v3.34h-1.26v-4.51c0-1.07-.38-1.6-1.15-1.6-.54,0-1.01.26-1.39.78-.39.53-.58,1.2-.58,2v3.34h-1.27v-7.04h1.23c0,.59-.03,1.09-.1,1.49h.01c.45-1.07,1.26-1.61,2.45-1.61.66,0,1.16.19,1.51.58.25.28.39.62.44,1.02.47-1.06,1.28-1.6,2.41-1.6,1.4,0,2.09.77,2.09,2.31v4.85h-1.27Z"/>
      <path class="cls-1" d="m68.9,97.33h-4.6c-.04,1.72.7,2.58,2.23,2.58.71,0,1.38-.14,2.01-.41l.18,1c-.73.29-1.54.44-2.43.44-2.2,0-3.3-1.2-3.3-3.61,0-1.07.28-1.95.84-2.63.58-.7,1.36-1.05,2.34-1.05s1.64.28,2.13.85c.44.51.66,1.19.66,2.04,0,.24-.01.51-.04.79Zm-1.26-.91c.01-.57-.12-1.01-.41-1.33-.28-.32-.67-.48-1.17-.48-1,0-1.57.6-1.74,1.81h3.31Z"/>
      <path class="cls-1" d="m75.27,100.81v-4.53c0-1.06-.4-1.59-1.2-1.59-.58,0-1.05.26-1.43.79s-.57,1.18-.57,1.96v3.37h-1.27v-7.04h1.23c0,.61-.04,1.11-.11,1.49h.03c.46-1.07,1.28-1.61,2.48-1.61,1.41,0,2.12.75,2.12,2.25v4.92h-1.27Z"/>
      <path class="cls-1" d="m82.34,100.77c-.43.1-.9.15-1.42.15-.71,0-1.2-.16-1.48-.48-.27-.31-.4-.85-.4-1.62v-4.04h-1.44v-1h1.44v-2.28l1.27-.35v2.63h1.97v1h-1.97v3.59c0,.58.07.97.21,1.17.14.2.4.3.8.3.32,0,.62-.04.89-.12l.12,1.05Z"/>
      <path class="cls-1" d="m91.61,96.32c-.66.61-1.55.91-2.66.91-.31,0-.6-.01-.88-.04v3.62h-1.3v-9.55c.84-.04,1.64-.06,2.39-.06,1.09,0,1.93.25,2.54.76.58.49.88,1.17.88,2.03,0,.96-.32,1.74-.97,2.33Zm-2.59-4.04c-.34,0-.66,0-.95.03v3.77c.3.06.64.08,1,.08,1.44,0,2.16-.67,2.16-2,0-1.25-.74-1.88-2.2-1.88Z"/>
      <path class="cls-1" d="m97.62,94.91c-1.47-.26-2.2.76-2.2,3.07v2.83h-1.27v-7.04h1.23c0,.58-.05,1.14-.15,1.67h.03c.4-1.32,1.21-1.92,2.42-1.8l-.06,1.26Z"/>
      <path class="cls-1" d="m104.07,99.85c-.64.72-1.47,1.09-2.49,1.09-2.11,0-3.16-1.19-3.16-3.58,0-1.06.31-1.94.92-2.63.64-.72,1.47-1.08,2.51-1.08.96,0,1.71.27,2.25.81.6.6.9,1.51.9,2.72,0,1.08-.31,1.97-.93,2.68Zm-2.34-5.14c-.55,0-1.01.2-1.38.61-.41.46-.62,1.1-.62,1.91,0,1.76.67,2.63,2,2.63.56,0,1.02-.21,1.37-.64.39-.47.59-1.13.59-1.98,0-1.69-.65-2.54-1.96-2.54Z"/>
      <path class="cls-1" d="m111.79,103.65c-.71.52-1.6.78-2.69.78-.92,0-1.64-.18-2.16-.55-.53-.37-.8-.89-.8-1.56,0-.81.39-1.43,1.18-1.87-.46-.2-.69-.55-.69-1.05,0-.54.26-.94.77-1.19-.69-.41-1.03-1.05-1.03-1.94,0-.74.26-1.36.77-1.85.55-.52,1.29-.78,2.22-.78.3,0,.63.04.99.12h2.39v1.01h-1.16c.38.3.57.73.57,1.3,0,.76-.24,1.36-.73,1.82-.53.49-1.28.73-2.24.73-.26,0-.51-.03-.75-.1-.3.14-.46.34-.46.59,0,.34.4.53,1.2.55l1.29.04c1.58.06,2.36.74,2.36,2.04,0,.76-.35,1.39-1.04,1.89Zm-1.7-2.87l-1.36-.06c-.2,0-.34,0-.41-.01-.6.41-.91.88-.91,1.38,0,.41.18.74.54.98.35.24.8.35,1.36.35.7,0,1.24-.14,1.65-.44.38-.28.57-.64.57-1.08,0-.73-.48-1.11-1.44-1.13Zm.39-5.77c-.28-.28-.67-.42-1.18-.42s-.93.15-1.24.45c-.29.29-.44.66-.44,1.12,0,1.03.54,1.54,1.63,1.54.5,0,.9-.13,1.19-.4.29-.27.44-.65.44-1.14s-.14-.87-.41-1.15Z"/>
      <path class="cls-1" d="m117.96,94.91c-1.47-.26-2.2.76-2.2,3.07v2.83h-1.27v-7.04h1.23c0,.58-.05,1.14-.15,1.67h.03c.4-1.32,1.21-1.92,2.42-1.8l-.06,1.26Z"/>
      <path class="cls-1" d="m123.3,100.81c0-.67.02-1.14.07-1.4h-.03c-.4,1.02-1.2,1.53-2.39,1.53-.58,0-1.05-.17-1.42-.52-.36-.35-.54-.81-.54-1.38,0-.76.37-1.35,1.11-1.78.75-.43,1.79-.64,3.12-.64v-.33c0-.58-.11-.99-.33-1.25-.24-.27-.62-.41-1.16-.41-.68,0-1.39.17-2.12.51l-.24-1.01c.82-.34,1.66-.5,2.54-.5,1.73,0,2.59.82,2.59,2.46v2.69c0,.74.01,1.42.04,2.03h-1.24Zm-.08-3.3c-1.98,0-2.97.45-2.97,1.34,0,.31.1.57.3.77.2.21.46.31.78.31.54,0,1-.24,1.38-.71.35-.44.52-.95.52-1.54v-.18Z"/>
      <path class="cls-1" d="m135.61,100.81v-4.51c0-1.07-.38-1.6-1.15-1.6-.53,0-.98.25-1.36.75-.41.53-.61,1.21-.61,2.03v3.34h-1.26v-4.51c0-1.07-.38-1.6-1.15-1.6-.54,0-1.01.26-1.39.78-.39.53-.58,1.2-.58,2v3.34h-1.27v-7.04h1.23c0,.59-.03,1.09-.1,1.49h.01c.45-1.07,1.26-1.61,2.45-1.61.66,0,1.16.19,1.51.58.25.28.39.62.44,1.02.47-1.06,1.28-1.6,2.41-1.6,1.4,0,2.1.77,2.1,2.31v4.85h-1.27Z"/>
    </g>
  </g>
</svg>