<?xml version="1.0" standalone="no"?>
<!DOCTYPE svg PUBLIC "-//W3C//DTD SVG 20010904//EN"
 "http://www.w3.org/TR/2001/REC-SVG-20010904/DTD/svg10.dtd">
<svg version="1.0" xmlns="http://www.w3.org/2000/svg"
 width="700.000000pt" height="700.000000pt" viewBox="0 0 700.000000 700.000000"
 preserveAspectRatio="xMidYMid meet">
<metadata>
Created by potrace 1.14, written by Peter Selinger 2001-2017
</metadata>
<g transform="translate(0.000000,700.000000) scale(0.100000,-0.100000)"
fill="#000000" stroke="none">
<path d="M567 5412 c-15 -15 -27 -33 -27 -39 0 -7 220 -10 700 -9 385 1 700
-3 700 -7 0 -5 -11 -23 -24 -40 l-25 -32 2320 0 c1275 0 2319 3 2319 7 0 4
-13 22 -29 40 l-28 32 -711 0 -710 1 -32 37 -32 38 -2197 0 -2197 0 -27 -28z"/>
<path d="M274 4957 c-14 -8 -44 -65 -44 -84 0 -5 319 -8 709 -8 682 0 709 -1
699 -18 -18 -34 -17 -57 2 -70 15 -10 490 -13 2580 -12 2453 0 2562 1 2575 18
16 22 9 53 -15 70 -13 9 -183 12 -723 12 -388 0 -705 2 -704 5 2 12 -32 78
-44 86 -19 12 -5014 13 -5035 1z"/>
<path d="M99 4473 c-18 -21 -23 -72 -10 -92 8 -13 112 -15 706 -15 l696 0 -6
-48 c-4 -32 -2 -54 5 -64 11 -12 374 -14 2726 -14 l2714 0 10 25 c12 32 2 83
-19 94 -9 4 -330 7 -714 7 -458 -1 -697 2 -698 9 -2 26 -10 63 -20 88 l-11 27
-2683 0 c-2542 0 -2683 -1 -2696 -17z"/>
<path d="M51 4004 c-15 -11 -18 -24 -16 -64 1 -28 7 -56 13 -62 7 -7 219 -10
711 -10 l701 0 1 -27 c1 -23 5 -63 8 -97 1 -6 11 -15 24 -20 13 -6 1063 -9
2730 -9 2358 1 2709 3 2721 15 22 22 28 93 10 118 -15 22 79 21 -1355 22 l-56
0 4 58 c2 31 -1 64 -6 72 -9 13 -325 15 -2740 16 -2260 1 -2734 -1 -2750 -12z"/>
<path d="M98 3528 c-13 -13 -15 -24 -7 -59 6 -24 16 -55 22 -69 l12 -25 709
-5 708 -5 23 -73 c13 -40 28 -79 34 -86 9 -11 473 -13 2617 -12 2446 1 2606 2
2618 18 7 9 19 42 26 72 22 94 84 86 -705 86 l-692 0 18 66 c17 63 14 101 -9
105 -4 1 -1211 2 -2682 3 -2482 1 -2676 0 -2692 -16z"/>
<path d="M268 3059 c-26 -14 -22 -35 20 -114 l37 -70 712 -3 712 -2 66 -100
66 -100 2327 0 c1280 0 2332 4 2338 8 6 4 32 38 58 76 42 63 45 72 32 90 -13
21 -19 21 -695 24 -374 1 -681 5 -681 8 0 3 16 35 35 73 38 73 42 90 23 109
-16 16 -5023 17 -5050 1z"/>
<path d="M576 2580 c-27 -30 -13 -51 113 -176 l34 -34 711 0 711 0 40 -36
c255 -231 803 -559 1146 -687 117 -44 237 -75 317 -82 l62 -5 0 293 0 292
1148 0 1148 0 64 47 c36 25 84 64 108 86 36 34 41 43 34 63 l-9 24 -671 5
-670 5 74 75 c82 82 94 104 70 129 -15 15 -192 16 -2217 16 -1963 1 -2201 -1
-2213 -15z"/>
</g>
</svg>
