<svg xmlns="http://www.w3.org/2000/svg" xmlns:xlink="http://www.w3.org/1999/xlink" width="477" height="119" viewBox="0 0 477 119">
  <defs>
    <clipPath id="clip-Artboard_25">
      <rect width="477" height="119"/>
    </clipPath>
  </defs>
  <g id="Artboard_25" data-name="Artboard – 25" clip-path="url(#clip-Artboard_25)">
    <g id="Group_2254" data-name="Group 2254" transform="translate(6 3)">
      <path id="Path_9824" data-name="Path 9824" d="M58.872,49.184q-1-5.533-2.244-9.956a.763.763,0,0,0-1.024-.491l-8.462,3.344a.756.756,0,0,0-.459.906q.939,3.3,1.775,7.179.914,4.254,1.666,8.343t1.208,7.248a36.217,36.217,0,0,1,.464,4.434,12.053,12.053,0,0,1-2.821,7.825,18.67,18.67,0,0,1-7.712,5.409A30.053,30.053,0,0,1,30.04,85.383q-9.78,0-14.907-5.177T10.015,65.239a49.493,49.493,0,0,1,.863-8.629Q11.7,52.023,13.4,44.853A.787.787,0,0,0,12.8,43.9l-7.61-1.537a.787.787,0,0,0-.9.561q-2.151,7.96-3.2,13.909A64.16,64.16,0,0,0,0,67.888q0,14.27,8,22.041T29.808,97.7a35.848,35.848,0,0,0,16.751-3.679,27.315,27.315,0,0,0,10.932-9.955,26.586,26.586,0,0,0,3.856-14.217,77.18,77.18,0,0,0-.69-9.033q-.7-5.583-1.785-11.628" fill="#fff"/>
      <path id="Path_9825" data-name="Path 9825" d="M154.519,51.488Q154,46.6,153.251,41.651q-.646-4.3-1.257-7.918a.878.878,0,0,0-1.2-.663l-8.289,3.236a.87.87,0,0,0-.539,1.008q.825,3.609,1.558,7.788.8,4.6,1.44,8.975T146,61.848a48.267,48.267,0,0,1,.4,5.01q0,3.568-4.029,5.291t-13.925,1.726h-8.98a55.781,55.781,0,0,0-3.16-18.24,29.844,29.844,0,0,0-7.707-12,18.443,18.443,0,0,0-9.46-4.52,16.312,16.312,0,0,0-13.165,3.517A26.18,26.18,0,0,0,78.437,52.7a34.492,34.492,0,0,0-2.815,14.162q0,9.894,5.177,14.556t16.228,4.66h11.164q-2.993,6.1-11.051,9.384-7.717,3.14-21.464,5.07a1.141,1.141,0,0,0-.966,1.343l1.963,9.438a1.151,1.151,0,0,0,1.252.9q17.659-2.022,27.445-8.057a28.16,28.16,0,0,0,12.949-17.954h10.129q13.583,0,20.429-4.719t6.85-14.734q0-2.3-.346-6.332t-.862-8.92M98.753,74.22q-7.944,0-10.991-2.012t-3.053-7.313a17.224,17.224,0,0,1,3.112-10.527q3.106-4.2,7.367-4.2a10.533,10.533,0,0,1,7.481,3.22,22.9,22.9,0,0,1,5.35,8.694,38.741,38.741,0,0,1,2.243,12.14Z" fill="#fff"/>
      <path id="Path_9826" data-name="Path 9826" d="M461.079,53.213a29.168,29.168,0,0,0-7.944-10.7A16.774,16.774,0,0,0,442.2,38.425q-10.7,0-18.763,13.925l-6.445,10.937a22.448,22.448,0,0,1-7.022,7.826,15.53,15.53,0,0,1-8.747,2.761q-8.058,0-11.623-2.416a8.068,8.068,0,0,1-3.57-7.135q0-1.149.119-3.053t.226-3.047l.728-8.473a.892.892,0,0,0-.89-.965h-7.431a.893.893,0,0,0-.89.8l-1.527,14.74A14.078,14.078,0,0,1,375.1,68.81a7.521,7.521,0,0,1-4.314,3.8q-3.172,1.262-10.3,1.262h-39.4c5.027-1.909,9.724-3.77,14.082-5.409,0,0,11.859-5.065,13.909-6.03a.911.911,0,0,0,.561-.831l1.218-9.022a.6.6,0,0,0-.5-.663,65.856,65.856,0,0,1-6.671-1.468C326.228,45.77,306.726,35.41,292.7,35.41c-11.207,0-18.606,10.225-20.132,12.528a.658.658,0,0,0,.1.842l5.625,5.425a.661.661,0,0,0,.971-.043c1.763-2.125,8.483-9.211,15.3-9.211,8.9,0,18.855,6.077,40.708,12.927-22.193,9.583-53,19.345-82.607,19.345-6.219,0-22.517.955-29.728-5.938-1.909-1.823-3.646-5.042-4.951-9.955L208.635,25.8a1.2,1.2,0,0,0-1.494-.852l-7.447,2.1a1.21,1.21,0,0,0-.842,1.478L209.935,69.5a17.049,17.049,0,0,1-6.558,4.142,28.2,28.2,0,0,1-9.783,1.5q-8.406,0-12.027-3.106a10.628,10.628,0,0,1-3.63-8.516v-5.15a1.18,1.18,0,0,0-1.181-1.181h-6.725a1.18,1.18,0,0,0-1.181,1.181V67.2q0,9.789,5.636,14.966t17.84,5.178A32.641,32.641,0,0,0,205.162,85.1a22.384,22.384,0,0,0,8.8-6.73c4.967,8.612,22.861,10.123,35.875,10.123,26.152,0,47.2-5.906,64.4-12.076a12.315,12.315,0,0,0,12.048,9.778h34.2q8.051,0,12.771-1.958a13.892,13.892,0,0,0,7.022-5.986,13.709,13.709,0,0,0,7.486,6.159,34.958,34.958,0,0,0,11.854,1.785h.9a23.379,23.379,0,0,0,11-2.551,28.207,28.207,0,0,0,9.735-8.845,32.48,32.48,0,0,0,10.446,8.98,29.206,29.206,0,0,0,13,3.549q9.2.291,14.421-4.989,4.951-5.007,4.951-14.794a34.375,34.375,0,0,0-2.993-14.329m-7.367,19.453a6.1,6.1,0,0,1-3.392,2.13,17.308,17.308,0,0,1-3.856.459,22.423,22.423,0,0,1-11.515-2.761,23.141,23.141,0,0,1-7.825-7.594l2.534-4.374q5.753-10.364,12.545-10.36a9.518,9.518,0,0,1,6.617,2.7,18.935,18.935,0,0,1,4.606,6.676,20.515,20.515,0,0,1,1.667,8,7.923,7.923,0,0,1-1.381,5.124" fill="#fff"/>
      <path id="Path_9827" data-name="Path 9827" d="M365.972,29.5h28.87a.512.512,0,0,1,.512.512v7.707a.516.516,0,0,1-.512.513h-28.87a.649.649,0,0,1-.647-.647V30.152a.649.649,0,0,1,.647-.647" fill="#fff"/>
      <path id="Path_9828" data-name="Path 9828" d="M110.239,15.692h28.87a.512.512,0,0,1,.512.512v7.707a.516.516,0,0,1-.512.513h-28.87a.649.649,0,0,1-.647-.647V16.339a.649.649,0,0,1,.647-.647" fill="#fff"/>
      <path id="Path_9829" data-name="Path 9829" d="M110.239,0h12.755a.512.512,0,0,1,.512.512V8.219a.516.516,0,0,1-.512.513H110.239a.649.649,0,0,1-.647-.647V.647A.649.649,0,0,1,110.239,0" fill="#fff"/>
      <path id="Path_9830" data-name="Path 9830" d="M24.364,24.9H37.119a.512.512,0,0,1,.512.512V33.12a.516.516,0,0,1-.512.513H24.364a.65.65,0,0,1-.647-.648V25.548a.649.649,0,0,1,.647-.647" fill="#fff"/>
    </g>
  </g>
</svg>
