<svg xmlns="http://www.w3.org/2000/svg" xmlns:xlink="http://www.w3.org/1999/xlink" width="117" height="106" viewBox="0 0 117 106">
  <defs>
    <clipPath id="clip-culture">
      <rect width="117" height="106"/>
    </clipPath>
  </defs>
  <g id="culture" clip-path="url(#clip-culture)">
    <path id="Union_19" data-name="Union 19" d="M74.335,83a38.83,38.83,0,0,1-5.553-1.663,34.582,34.582,0,0,1-4.71-3.086,1.8,1.8,0,0,1-.665-2.152,12.874,12.874,0,0,1,8.517-9.582l.852-.308c-3.664-3.48-4.071-7.3-1.117-10.163a6.376,6.376,0,0,1,9.234.39c2.035,2.282,2.609,6.786-1.5,9.722.243.1.438.19.64.262A12.934,12.934,0,0,1,88.811,76.3a1.745,1.745,0,0,1-.566,1.848,17.578,17.578,0,0,1-9.725,4.679,4.082,4.082,0,0,0-.584.171Zm-8.265-7.2a1,1,0,0,0,.386,1.221,14.866,14.866,0,0,0,8.976,3.455A15.639,15.639,0,0,0,85.7,77.033a.953.953,0,0,0,.446-1.126,10.4,10.4,0,0,0-9.949-7.552H76.1A10.4,10.4,0,0,0,66.07,75.795Zm10-19.008a3.852,3.852,0,1,0,3.862,3.875,3.812,3.812,0,0,0-3.846-3.875ZM10.979,83a6.518,6.518,0,0,0-.67-.178A17.124,17.124,0,0,1,0,77.4V76.322a36.758,36.758,0,0,1,1.943-4.5,11.966,11.966,0,0,1,6.7-5.3c.28-.094.554-.2.939-.345a6.493,6.493,0,0,1-3.122-5.613A6.18,6.18,0,0,1,8.39,56.055a6.361,6.361,0,0,1,9.046.174c2.768,2.927,2.294,6.659-1.244,9.919.971.434,1.992.8,2.923,1.321a12.862,12.862,0,0,1,6.411,8.717,1.953,1.953,0,0,1-.674,2.078,17.537,17.537,0,0,1-9.771,4.578,2.913,2.913,0,0,0-.5.157ZM12.8,68.354A10.38,10.38,0,0,0,2.826,75.74a1.034,1.034,0,0,0,.389,1.3,15.136,15.136,0,0,0,19.177.029,1.1,1.1,0,0,0,.427-1.368,10.411,10.411,0,0,0-10-7.349Zm-3.824-7.8a3.826,3.826,0,0,0,3.807,3.935,3.852,3.852,0,1,0,.069-7.7h-.028A3.811,3.811,0,0,0,8.98,60.555Zm21.764,9.379c-.966-.41-1.318-1.041-1.02-1.794.288-.729,1.009-.939,1.977-.538a32.078,32.078,0,0,0,25.508,0c.97-.4,1.69-.2,1.979.532.3.752-.054,1.387-1.016,1.8a34.323,34.323,0,0,1-13.714,2.815h-.153A34.349,34.349,0,0,1,30.745,69.934ZM27,41.513A17.458,17.458,0,1,1,44.472,59h-.011A17.509,17.509,0,0,1,27,41.513Zm3.194.588c-.494.1-.689.305-.622.859a15.023,15.023,0,0,0,18.5,13.074c-.219-1.392-.483-2.71-.627-4.042a17.262,17.262,0,0,1,2.012-10.62c.632-1.117,1.521-1.18,2.367-.236a4.836,4.836,0,0,0,1.139.994c.788.451,1.907.389,2.249-.122.978-1.462,2.189-2.357,4.1-1.783a14.785,14.785,0,0,0-3.676-8.608c-.974.835-2.381,1.24-1.906,2.946a1.168,1.168,0,0,1-.243.748,3.251,3.251,0,0,1-4.682,1.1A5.3,5.3,0,0,1,46.159,30.6c.242-1.278.61-2.532.931-3.841a14.889,14.889,0,0,0-10.746,2.177c.017.142.01.181.026.2.141.155.28.311.43.457a14.047,14.047,0,0,1,3.618,5.834,4.858,4.858,0,0,1,.347,1.833c-.185,2.022.022,2.378,1.935,3.161a1.757,1.757,0,0,1,1.011.982,9.364,9.364,0,0,1-.325,5.238,3.246,3.246,0,0,1-3.633,2.153,7.582,7.582,0,0,1-6.18-4.368,8.508,8.508,0,0,0-1.152-1.7,2.008,2.008,0,0,0-1.578-.687A3.317,3.317,0,0,0,30.193,42.1ZM50.686,55.04c3.955-1.51,7.421-5.843,8.377-10.47.225-1.089.054-1.429-1.078-2-1.732,3.141-4.258,2.746-6.964,1.48C49.622,46.628,49.429,52.9,50.686,55.04ZM35.17,42.084c.279.423.5.885.74,1.334a5.026,5.026,0,0,0,2.513,2.461c2.126.882,2.849.433,2.955-1.85.007-.15-.009-.3.012-.45a1.194,1.194,0,0,0-.8-1.381,4.281,4.281,0,0,1-2.448-4.25c.087-3.178-1.8-5.289-3.926-7.33a14.977,14.977,0,0,0-4.564,8.989,7.044,7.044,0,0,1,1.065-.085A5.093,5.093,0,0,1,35.17,42.084ZM48.6,31.742a2.847,2.847,0,0,0,1.652,2.574c.513.333.712.1.859-.519a8.555,8.555,0,0,1,1.039-2.5A9.735,9.735,0,0,1,53.816,29.7L49.872,27.43A8.217,8.217,0,0,0,48.6,31.742Zm26.135,20.6c-.763-.3-.973-.982-.571-1.968a19.777,19.777,0,0,0,0-15.5c-.391-.959-.168-1.689.573-1.976s1.352.079,1.769,1.061a22.13,22.13,0,0,1,0,17.336q-.487,1.146-1.271,1.147A1.345,1.345,0,0,1,74.732,52.34Zm-62.183-.786q-.96-3.216-1.731-6.488a11.906,11.906,0,0,1-.176-2.153,22.236,22.236,0,0,1,1.859-9.09,1.954,1.954,0,0,1,1.235-.937,1.354,1.354,0,0,1,1.083.692,2.357,2.357,0,0,1-.095,1.363c-.459,1.915-1.111,3.8-1.4,5.738a18,18,0,0,0,1.392,9.589c.046.111.092.222.13.336a1.254,1.254,0,0,1-.649,1.729,1.383,1.383,0,0,1-.529.109A1.15,1.15,0,0,1,12.549,51.554ZM1.715,24.8A22.772,22.772,0,0,1,0,23.095v-.9a15.433,15.433,0,0,1,2.526-5.517,13,13,0,0,1,6.116-4.407l.934-.326A6.515,6.515,0,0,1,6.461,6.211,6.182,6.182,0,0,1,8.4,1.795a6.333,6.333,0,0,1,9.045.216c2.743,2.9,2.277,6.647-1.295,9.945.3.111.559.21.823.306a12.925,12.925,0,0,1,8.527,9.584,2.061,2.061,0,0,1-.706,2.236A17.757,17.757,0,0,1,12.82,28.76,17.589,17.589,0,0,1,1.715,24.8Zm1.117-3.335a1.089,1.089,0,0,0,.432,1.369,15.2,15.2,0,0,0,19.179-.047,1.033,1.033,0,0,0,.381-1.3,10.472,10.472,0,0,0-9.989-7.4h-.011A10.471,10.471,0,0,0,2.832,21.467ZM8.979,6.409a3.859,3.859,0,0,0,3.811,3.86,3.916,3.916,0,0,0,3.9-3.888,3.9,3.9,0,0,0-3.838-3.853h-.028A3.846,3.846,0,0,0,8.979,6.409Zm55.91,18.326c-1.835-1.534-1.912-1.687-1.17-3.991A12.784,12.784,0,0,1,71.9,12.272c.253-.092.51-.172.764-.262.015-.005.016-.052.048-.164a6.415,6.415,0,0,1-3-5.556A6.178,6.178,0,0,1,71.749,1.73a6.377,6.377,0,0,1,9.043.338c2.029,2.19,2.864,6.732-1.427,9.9a12.888,12.888,0,0,1,8.386,6.966,27.8,27.8,0,0,1,1.035,3.056,1.683,1.683,0,0,1-.559,1.925,17.669,17.669,0,0,1-23.337.816ZM76.067,14.088a10.479,10.479,0,0,0-10.006,7.5.941.941,0,0,0,.353,1.147,14.809,14.809,0,0,0,9.258,3.481,15.223,15.223,0,0,0,10.055-3.448.945.945,0,0,0,.4-1.141,10.468,10.468,0,0,0-10.043-7.54ZM72.224,6.432a3.914,3.914,0,0,0,3.859,3.837A3.87,3.87,0,0,0,76.1,2.528h-.006A3.9,3.9,0,0,0,72.224,6.432Zm-42.5,8.427c-.29-.728.045-1.355.938-1.754a34.449,34.449,0,0,1,13.793-2.855,34.057,34.057,0,0,1,13.713,2.813c.964.412,1.319,1.044,1.022,1.794-.286.723-1.021.939-1.982.536a31.969,31.969,0,0,0-22.389-1.14c-1.084.333-2.133.782-3.2,1.183a2.252,2.252,0,0,1-.787.16A1.122,1.122,0,0,1,29.725,14.859Z" transform="translate(15 12.001)" fill="#fff" stroke="rgba(0,0,0,0)" stroke-miterlimit="10" stroke-width="1"/>
  </g>
</svg>
