<svg xmlns="http://www.w3.org/2000/svg" xmlns:xlink="http://www.w3.org/1999/xlink" width="66" height="60" viewBox="0 0 66 60">
  <defs>
    <clipPath id="clip-dep">
      <rect width="66" height="60"/>
    </clipPath>
  </defs>
  <g id="dep" clip-path="url(#clip-dep)">
    <path id="Union_7" data-name="Union 7" d="M2.946,54.153a2.891,2.891,0,0,1-2.1-2.024,3.829,3.829,0,0,1-.1-.926Q.743,31.331.747,11.46A2.84,2.84,0,0,1,.758,11.1a.72.72,0,0,1,.719-.687.694.694,0,0,1,.77.56,3.022,3.022,0,0,1,.055.722q0,19.481,0,38.962c0,.191,0,.382,0,.573a1.2,1.2,0,0,0,1.375,1.364q8.3,0,16.609,0H35.081c1.1,0,1.5-.4,1.5-1.5,0-.851-.012-1.7.007-2.552a.593.593,0,0,0-.33-.564c-.722-.506-1.42-1.048-2.1-1.605a.77.77,0,1,1,.983-1.185c.487.361.949.755,1.427,1.127a2.614,2.614,0,0,0,3.474,0c1.8-1.415,3.577-2.848,5.365-4.273a3.994,3.994,0,0,0,1.576-3.3c-.008-3.8,0-7.6-.005-11.407a2.186,2.186,0,0,0-2.342-2.34q-6.618-.005-13.235,0a1.638,1.638,0,0,0-1.778,1.781c0,3.976,0,7.952,0,11.928a4.045,4.045,0,0,0,1.592,3.345c.325.259.66.507.972.781a.763.763,0,0,1,.142,1.108.7.7,0,0,1-1.1.093,3.091,3.091,0,0,0-2.555-.788c-4.688.028-9.377.013-14.066.012-.879,0-1.276-.25-1.263-.794s.4-.768,1.243-.768H28.811a6.1,6.1,0,0,1-.749-2.905c.013-.986,0-1.973,0-3.022H27.41q-6.384,0-12.768,0H14.58a3.516,3.516,0,0,1-.61-.035.759.759,0,0,1-.033-1.484,2.608,2.608,0,0,1,.572-.041h.047q6.384,0,12.768,0h.705V28.272h-.654q-6.358,0-12.716,0a3.952,3.952,0,0,1-.672-.037.761.761,0,0,1,.034-1.505,4.309,4.309,0,0,1,.57-.019H27.929a10.377,10.377,0,0,1,.554-1.635,3,3,0,0,1,2.756-1.644c1.1-.015,2.2-.011,3.3-.008l1.421,0h.622V22.83q0-9.454,0-18.908c0-1.165-.385-1.544-1.563-1.544H3.827c-1.144,0-1.522.38-1.523,1.528,0,1.059,0,2.118,0,3.177a1.977,1.977,0,0,1-.033.465.727.727,0,0,1-.786.615.7.7,0,0,1-.725-.732C.748,6.025.713,4.617.778,3.214A2.673,2.673,0,0,1,3.311.821c.173-.01.346-.006.519-.006q3.973,0,7.947,0Q23.4.824,35.023.793a2.979,2.979,0,0,1,3.14,3.171c-.061,6.25-.023,12.5-.023,18.751v.709H38.7c1.972,0,3.945,0,5.917,0a3.739,3.739,0,0,1,3.912,3.881q.021,5.782,0,11.563a5.353,5.353,0,0,1-2.1,4.337q-2.67,2.152-5.36,4.279a4.7,4.7,0,0,1-2.932,1.07c0,.7-.043,1.408.009,2.111a3.039,3.039,0,0,1-2.193,3.487Zm4.365-8.876a1.887,1.887,0,0,1-1.979-1.995c0-.277,0-.554,0-.832h0c0-.312-.009-.624,0-.935A1.858,1.858,0,0,1,7.2,39.675c.6-.013,1.208-.01,1.812,0a1.866,1.866,0,0,1,1.905,1.855c.028.622.026,1.248,0,1.87A1.88,1.88,0,0,1,9.02,45.275c-.262.008-.525.011-.788.011C7.925,45.286,7.618,45.282,7.311,45.278Zm1.113-1.56c1.035.009.939.018.939-1.245s.071-1.249-.84-1.239c-.12,0-.258,0-.415,0-.139,0-.261,0-.37,0-.965-.008-.843-.015-.849,1.211q0,.026,0,.052c.009,1.319-.167,1.221,1.219,1.219h.033Zm26.3-5.024c-.87-.793-1.7-1.637-2.5-2.5a2.254,2.254,0,0,1,3.195-3.175c.614.581,1.17,1.225,1.781,1.871l3.818-3.837a2.259,2.259,0,0,1,3.395,2.98c-1.516,1.618-3.081,3.195-4.7,4.7a3.549,3.549,0,0,1-2.431.932A3.8,3.8,0,0,1,34.728,38.694ZM33.387,34.2c-.294.315-.254.708.13,1.1.692.7,1.392,1.4,2.089,2.1a2.388,2.388,0,0,0,1.636.7,2.437,2.437,0,0,0,1.705-.743q1.3-1.311,2.6-2.613c.55-.552,1.109-1.094,1.644-1.661a.7.7,0,1,0-.985-1c-.1.092-.2.193-.3.291q-1.686,1.692-3.372,3.385c-.963.966-1.6.97-2.555.017-.489-.49-.974-.984-1.468-1.47a.971.971,0,0,0-.655-.33A.643.643,0,0,0,33.387,34.2Zm-26.1,3.58a1.883,1.883,0,0,1-1.954-1.966c0-.294,0-.589,0-.883s-.006-.589,0-.884a1.866,1.866,0,0,1,1.885-1.872c.587-.012,1.174-.009,1.761,0a1.868,1.868,0,0,1,1.931,1.831c.033.639.032,1.283,0,1.922A1.877,1.877,0,0,1,9,37.782q-.411.009-.821.009Q7.73,37.79,7.287,37.783Zm1.152-1.56c1.023.01.923.021.925-1.274,0-1.359.081-1.212-1.181-1.209-.145,0-.275,0-.389,0-1.049-.012-.9-.025-.9,1.3,0,1.289-.151,1.192,1.195,1.188h.055ZM7.278,30.287a1.88,1.88,0,0,1-1.946-1.972c0-.277,0-.554,0-.831,0-.312-.007-.624,0-.935a1.864,1.864,0,0,1,1.841-1.864c.6-.02,1.208-.013,1.812,0a1.871,1.871,0,0,1,1.923,1.841c.032.639.032,1.283,0,1.922a1.873,1.873,0,0,1-1.924,1.841q-.421.008-.842.007T7.278,30.287Zm1.213-1.56c.928.009.877.018.873-1.179,0-1.333.1-1.32-.908-1.308-.114,0-.242,0-.386,0-1.332,0-1.173-.108-1.181,1.2.01,1.3-.141,1.289.905,1.282h.7Zm16.194-6.511a.769.769,0,1,1,.024-1.538c.55-.023,1.1-.005,1.694-.005V19.1H12.46v1.569H20.8a3.17,3.17,0,0,1,.517.028.7.7,0,0,1,.634.706.7.7,0,0,1-.6.79,2.4,2.4,0,0,1-.514.036h-.053q-4.021,0-8.041,0c-1.308,0-1.873-.563-1.877-1.861,0-.4-.007-.8,0-1.2a1.56,1.56,0,0,1,1.693-1.679c.259,0,.517,0,.834,0V13.244c-.293,0-.581.009-.867,0a1.649,1.649,0,0,1-1.635-1.91,2.962,2.962,0,0,1,1.444-2.345q2.855-1.745,5.739-3.442a2.59,2.59,0,0,1,2.765.019q2.837,1.674,5.65,3.388a2.946,2.946,0,0,1,1.494,2.473,1.626,1.626,0,0,1-1.677,1.818c-.256.008-.513,0-.8,0v4.246c.3,0,.61-.006.914,0a1.514,1.514,0,0,1,1.574,1.52c.023.572.023,1.146,0,1.718a1.462,1.462,0,0,1-1.39,1.478c-.311.022-.623.031-.936.031S25.012,22.23,24.685,22.217Zm-6.179-4.752h1.858V13.279H18.506Zm3.483,0h1.9V13.294h-1.9Zm-6.977-.009h1.865V13.272H15.012ZM18.833,6.906q-2.85,1.7-5.69,3.42a1.332,1.332,0,0,0-.676,1.327H26.412a1.351,1.351,0,0,0-.7-1.348c-1.876-1.14-3.762-2.265-5.647-3.391a1.217,1.217,0,0,0-.627-.185A1.173,1.173,0,0,0,18.833,6.906Z" transform="translate(8.261 2.207)" fill="#fff"/>
  </g>
</svg>
