<svg xmlns="http://www.w3.org/2000/svg" xmlns:xlink="http://www.w3.org/1999/xlink" width="117" height="106" viewBox="0 0 117 106">
  <defs>
    <clipPath id="clip-economy">
      <rect width="117" height="106"/>
    </clipPath>
  </defs>
  <g id="economy" clip-path="url(#clip-economy)">
    <path id="Union_9" data-name="Union 9" d="M52.618,70.092a9.579,9.579,0,0,1-1.339-.649,3.293,3.293,0,0,1-1.553-2.679c-.047-1.526-.079-3.058-.005-4.582a17.066,17.066,0,0,1,.532-2.55c-.9-1.607-.9-6.733.135-8.508-1.039-2.008-1.043-7.056-.007-8.743-1.017-2.077-1.016-6.935.021-8.841a4.017,4.017,0,0,1-.723-2.763c-.025-1.231-.026-2.465.012-3.7a3.6,3.6,0,0,1,3.779-3.731c4.29-.031,8.58-.015,12.871-.007a3.784,3.784,0,0,1,3.807,2.93v5.888c-.2.415-.42.826-.607,1.249a.506.506,0,0,0,.023.361c.183.427.388.844.584,1.265v5.888c-.2.416-.418.827-.6,1.25a.509.509,0,0,0,.02.361c.183.427.388.844.585,1.265v5.888c-.2.416-.42.826-.607,1.249a.506.506,0,0,0,.023.361c.183.427.388.845.584,1.265v5.888c-.2.416-.419.828-.605,1.252a.5.5,0,0,0,.023.36c.183.426.387.843.583,1.263v5.888a4.269,4.269,0,0,1-2.876,2.875ZM66.18,67.161c.568,0,1.021-.138,1.028-.8.015-1.344.039-2.69-.012-4.032-.035-.9-.193-1-1.09-1q-3.044,0-6.087,0c-2.12,0-4.24,0-6.36,0-.732,0-1.029.236-1.037.873-.018,1.322-.026,2.644,0,3.965.019.832.208.989,1.039.991,2.028.006,4.057,0,6.086,0l3.733,0Q64.832,67.158,66.18,67.161Zm-12.455-14.6c-.884,0-1.087.179-1.1,1.077-.022,1.208-.009,2.416-.005,3.624,0,.926.2,1.127,1.12,1.13,2.052.006,4.1,0,6.156,0q3.112,0,6.224,0c.91,0,1.044-.081,1.084-1,.053-1.251.031-2.506.018-3.759-.009-.877-.223-1.071-1.113-1.072l-6.19,0Zm12.535-2.924c.637,0,.931-.259.935-.879.01-1.275.03-2.551.024-3.827-.006-.957-.2-1.133-1.188-1.134q-3.078,0-6.156,0t-6.156,0c-.88,0-1.082.18-1.1,1.083-.022,1.253-.013,2.507,0,3.761.006.746.232.983.987.984q2.682,0,5.364,0H59.7Q62.979,49.63,66.259,49.638Zm0-8.764c.638,0,.93-.26.935-.88.01-1.275.031-2.551.024-3.827-.005-.956-.2-1.133-1.189-1.134q-3.078,0-6.156,0t-6.156,0c-.88,0-1.081.18-1.1,1.083-.022,1.253-.013,2.507,0,3.761.006.746.232.982.988.984q2.63,0,5.26,0Q62.563,40.866,66.26,40.875Zm-.081-8.769c.568,0,1.022-.136,1.029-.8.015-1.344.039-2.69-.012-4.032-.035-.9-.193-1-1.089-1q-3.078,0-6.155,0c-2.1,0-4.194,0-6.292,0-.733,0-1.029.235-1.038.871-.018,1.322-.026,2.644,0,3.966.018.833.208.99,1.038.992,2.006.006,4.012,0,6.018,0l3.822,0Q64.841,32.1,66.179,32.106ZM27.69,70.092c-.342-.164-.7-.307-1.022-.5a3.346,3.346,0,0,1-1.792-2.826,30.991,30.991,0,0,1,.137-5.455,8.922,8.922,0,0,0,.014-2.835,29.478,29.478,0,0,1-.14-5.521c.02-.621.59-1.231.59-1.846s-.57-1.226-.588-1.848a36.009,36.009,0,0,1,.132-5.593,8.926,8.926,0,0,0,.037-2.562,27.3,27.3,0,0,1-.083-6.056,3.271,3.271,0,0,1,3.23-2.9c1.276-.061,2.556-.055,3.836-.049q.682,0,1.364,0,3.935-.008,7.871,0a3.7,3.7,0,0,1,4.059,4.089c-.006,1.548-.069,3.1-.108,4.644a.4.4,0,0,1-.023.2c-.618.9-.134,1.766-.047,2.694a29.677,29.677,0,0,1-.047,6.19,6.609,6.609,0,0,0,.017,2.366,22.019,22.019,0,0,1,.212,4.082,5.418,5.418,0,0,1-.609,3.305.477.477,0,0,0,.03.427,4.323,4.323,0,0,1,.577,2.492c.016,1.209.009,2.418,0,3.627a3.7,3.7,0,0,1-2.643,3.731,1.091,1.091,0,0,0-.212.139Zm13.93-2.945a.706.706,0,0,0,.745-.79c0-1.344.013-2.689-.008-4.033-.013-.834-.2-1-1.019-1q-3.111-.005-6.222,0c-2.1,0-4.194,0-6.291,0-.792,0-1.013.223-1.018,1.011-.008,1.23-.019,2.461,0,3.691.016,1.029.132,1.128,1.163,1.128q5.812,0,11.623,0C40.937,67.159,41.279,67.169,41.62,67.147Zm-.307-8.754c.888,0,1.033-.134,1.047-1.034.019-1.253.01-2.507,0-3.76,0-.827-.218-1.035-1.064-1.036q-6.223,0-12.446,0c-.864,0-1.028.149-1.043,1.041-.02,1.23-.01,2.461,0,3.692,0,.939.163,1.1,1.13,1.1,2.052,0,4.1,0,6.154,0C37.165,58.395,39.239,58.4,41.313,58.393ZM28.8,43.8c-.787,0-.975.165-.988.955-.022,1.275-.013,2.552-.008,3.828,0,.862.179,1.045,1.043,1.046q6.258.008,12.514,0c.818,0,.977-.143.992-.948.022-1.253.012-2.507.009-3.76,0-.931-.193-1.121-1.116-1.122q-3.077,0-6.154,0h-3.7Zm-.148-8.762a.75.75,0,0,0-.849.838c0,1.322-.015,2.644.006,3.965.013.894.16,1.023,1.055,1.025q2.115,0,4.231,0H41.38c.489,0,.963-.081.972-.7.021-1.458.012-2.916-.006-4.374a.689.689,0,0,0-.768-.76H34.093Q31.374,35.035,28.656,35.037ZM2.9,70.092A3.877,3.877,0,0,1,.122,67.269,5.55,5.55,0,0,1,.03,66.117c-.01-1.369-.076-2.743.029-4.1.057-.74.584-1.456.587-2.184,0-.7-.535-1.4-.585-2.118-.1-1.453-.036-2.918-.034-4.378a3.617,3.617,0,0,1,2.615-3.595c.122-.04.248-.07.449-.126A10.2,10.2,0,0,1,.2,40.805a9.919,9.919,0,0,1,3.586-6.338,10.145,10.145,0,0,1,13.276.287,10.349,10.349,0,0,1,.455,14.8,11.934,11.934,0,0,1,1.621.885,3.125,3.125,0,0,1,1.3,2.457c.044,1.527.083,3.058.011,4.581a17.984,17.984,0,0,1-.523,2.611,3.933,3.933,0,0,1,.555,2.5c.022,1.277.025,2.555-.008,3.832a3.772,3.772,0,0,1-2.924,3.669Zm.071-8c-.019,1.389,0,2.779,0,4.168,0,.713.384.917,1.051.908,2.051-.027,4.1-.01,6.155-.01q3.18,0,6.36,0c.5,0,.981-.111,1-.689.036-1.457.02-2.916-.014-4.374-.013-.534-.333-.781-.9-.779-4.24.015-8.481.009-12.721.006C3.363,61.324,2.978,61.521,2.97,62.092Zm13.511-3.7c.487,0,1.022-.057,1.039-.634.042-1.523,0-3.049-.035-4.574-.011-.421-.306-.629-.744-.629q-6.463.005-12.926,0a.739.739,0,0,0-.846.775c-.017,1.367-.042,2.735.01,4.1.032.865.183.952,1.056.954,2.052,0,4.1,0,6.155,0H13.5Q14.991,58.394,16.481,58.4ZM2.968,42.2a7.293,7.293,0,1,0,7.388-7.156h-.141A7.3,7.3,0,0,0,2.968,42.2Zm6.061-15a1.459,1.459,0,0,1,.337-2.16q2.388-2,4.785-3.989,6.021-5.018,12.041-10.037c1.321-1.1,1.629-1.118,3.033-.12,2.917,2.073,5.837,4.142,8.788,6.237L55.5,3.178c-.933,0-1.737-.017-2.54,0a1.53,1.53,0,0,1-1.628-.876A1.435,1.435,0,0,1,52.569.269C54.939.155,57.311.057,59.683,0c1.349-.032,1.968.776,1.641,2.077q-.839,3.344-1.718,6.677a1.475,1.475,0,1,1-2.858-.676c.188-.858.419-1.707.673-2.73C56,6.481,54.724,7.5,53.446,8.527Q46.371,14.2,39.3,19.875a1.616,1.616,0,0,1-2.442.07c-2.987-2.131-5.974-4.265-8.995-6.421-1.571,1.311-3.126,2.612-4.685,3.909q-5.709,4.75-11.422,9.5c-.175.146-.357.284-.542.418a1.87,1.87,0,0,1-1.091.4A1.377,1.377,0,0,1,9.029,27.2Z" transform="translate(23.902 18)" fill="#fff" stroke="rgba(0,0,0,0)" stroke-miterlimit="10" stroke-width="1"/>
  </g>
</svg>
