<svg xmlns="http://www.w3.org/2000/svg" xmlns:xlink="http://www.w3.org/1999/xlink" width="117" height="106" viewBox="0 0 117 106">
  <defs>
    <clipPath id="clip-education">
      <rect width="117" height="106"/>
    </clipPath>
  </defs>
  <g id="education" clip-path="url(#clip-education)">
    <path id="Path_5753" data-name="Path 5753" d="M98.455,68.113a14.183,14.183,0,0,1-1.718,1.137q-7.186,3.418-14.4,6.771a1.208,1.208,0,0,0-.824,1.284c.036,4.71-.048,9.421.046,14.13a9.046,9.046,0,0,1-2.345,6.512,50.931,50.931,0,0,1-4.721,4.337,1.449,1.449,0,0,0-.665,1.34,14.186,14.186,0,0,1,0,1.921c-.08,1.386.007,2.459,1.473,3.4,2.03,1.3,2.12,4.254.653,6.265a2.267,2.267,0,0,0-.407,1.365c.14,2.3.361,4.595.548,6.892a10.655,10.655,0,0,1,.041,1.152,1.465,1.465,0,0,1-1.567,1.559c-1.473.024-2.948.018-4.421,0-1.14-.012-1.749-.591-1.677-1.731.168-2.651.424-5.3.587-7.949a2.108,2.108,0,0,0-.394-1.277A4.594,4.594,0,0,1,70.11,108.3a1.041,1.041,0,0,0,.67-1.1c-.047-.821-.012-1.646-.012-2.468-2.168.859-4.225,1.825-6.374,2.5-12.971,4.076-25.559,3.2-37.642-3.19a22.624,22.624,0,0,1-7.975-6.651A9.373,9.373,0,0,1,16.9,91.575c.073-4.741,0-9.484.042-14.226a1.266,1.266,0,0,0-.865-1.36C11.175,73.715,6.293,71.4,1.4,69.108.673,68.768.014,68.417,0,67.48s.63-1.315,1.357-1.657q23.394-11,46.777-22.022a2.373,2.373,0,0,1,2.193,0Q73.7,54.817,97.077,65.833a7.294,7.294,0,0,1,1.379,1.126ZM5.244,67.434c.311.169.473.267.643.347q21.34,10.059,42.692,20.092a1.888,1.888,0,0,0,1.408-.041c3.719-1.71,7.412-3.476,11.114-5.222,2.683-1.265,5.369-2.523,8.153-3.831-.31-.187-.516-.33-.738-.441q-8.325-4.164-16.652-8.322c-1.116-.557-2.24-1.1-3.338-1.691a1.534,1.534,0,0,1-.748-2.036,1.551,1.551,0,0,1,2.121-.714c.236.1.465.214.693.328q10.726,5.358,21.446,10.729a1.713,1.713,0,0,0,1.694.052c6.236-2.97,12.489-5.906,18.736-8.855.213-.1.409-.237.681-.4-.32-.163-.544-.284-.774-.393Q71.111,57.025,49.835,47.035a1.745,1.745,0,0,0-1.305.06Q33.762,54,19.019,60.96C14.48,63.1,9.938,65.228,5.244,67.434M70.767,81.511c-.486.215-.832.36-1.172.52Q60.01,86.539,50.432,91.06a2.536,2.536,0,0,1-2.368.016Q34.586,84.7,21.085,78.37c-.333-.157-.676-.294-1.093-.475,0,4.391.1,8.653-.039,12.907a7.9,7.9,0,0,0,2.441,6.018,26.937,26.937,0,0,0,8.341,5.723,44,44,0,0,0,27.169,3.2,39.208,39.208,0,0,0,12.2-4.43,1.323,1.323,0,0,0,.64-.9c.038-6.244.028-12.489.028-18.9m3.07,17.075.368.275c.851-.943,1.725-1.866,2.547-2.833a6.955,6.955,0,0,0,1.733-4.839c-.083-4.068-.024-8.138-.027-12.208,0-.331-.027-.663-.047-1.085-1.379.648-2.634,1.276-3.923,1.825a.987.987,0,0,0-.662,1.1c.024,2.627.011,5.255.011,7.882v9.887m0,13.786a1.532,1.532,0,1,0-1.56,1.5,1.6,1.6,0,0,0,1.56-1.5M72.419,117.2l-.247.018c-.157,1.951-.314,3.9-.475,5.91l1.224-.06c-.173-2.026-.338-3.947-.5-5.868" transform="translate(9.735 -31.531)" fill="#fff"/>
  </g>
</svg>
