<svg xmlns="http://www.w3.org/2000/svg" xmlns:xlink="http://www.w3.org/1999/xlink" width="117" height="106" viewBox="0 0 117 106">
  <defs>
    <clipPath id="clip-energy">
      <rect width="117" height="106"/>
    </clipPath>
  </defs>
  <g id="energy" clip-path="url(#clip-energy)">
    <path id="Subtraction_1" data-name="Subtraction 1" d="M17409.2,315.035h-.893c-1.383-.813-1.588-1.434-.99-3.022q.979-2.625,1.959-5.25l2.256-6.036,2.76-7.4,5.063-13.561c.074-.195.129-.347.18-.508.02-.05.037-.1.055-.155l.01-.024c.014-.038.027-.077.041-.119l.236-.666h-5.307q-1.395,0-2.787,0t-2.787,0a2,2,0,0,1-1.646-.679,1.977,1.977,0,0,1-.26-1.721c2.217-8.908,5.566-22.36,9.035-36.271a1.794,1.794,0,0,1,2.053-1.625q6.727,0,13.451,0t13.449,0a1.8,1.8,0,0,1,1.682,2.943c-2.074,3.493-4.189,7.04-6.178,10.374l-1.25,2.1q-.63,1.055-1.258,2.111l-.541.907q-.539.908-1.08,1.815l-.715,1.2c-.059.1-.121.208-.2.349-.016.03-.033.061-.051.093l-.039.07c-.033.066-.066.128-.1.189-.021.039-.043.08-.064.122l-.412.74h1.686l1.176,0,1.184,0c.789,0,1.588,0,2.361,0,1.584,0,2.6-.006,3.512-.022h.105c1.133,0,1.713.28,2.07,1,.414.829.115,1.52-.5,2.365-3.2,4.39-6.436,8.85-9.477,13.042l-.43.594q-.935,1.289-1.861,2.567-.817,1.126-1.633,2.253l-.822,1.136q-.4.559-.811,1.117c-1.344,1.861-2.717,3.751-4.043,5.579l-.131.18-1.158,1.6c-4.773,6.586-10.187,14.051-15.381,21.178a6.4,6.4,0,0,1-1.072,1.047c-.121.1-.289.237-.447.381Zm12.957-40.335h.088a1.975,1.975,0,0,1,1.682.828,2.091,2.091,0,0,1,.145,1.988c-1.316,3.343-2.629,6.9-3.684,9.758l-.127.344-.027.07-.115.313c-.443,1.208-.9,2.457-1.363,3.68-.531,1.43-1.053,2.83-1.551,4.16l-.6,1.6-.205.543.9.447,24.543-33.85h-6.252c-1.545,0-2.764,0-3.893,0a1.758,1.758,0,0,1-1.8-1.357,2.143,2.143,0,0,1,.379-1.66c2.512-4.192,5.064-8.475,7.533-12.617l.426-.714.746-1.255,1.625-2.728c.26-.435.521-.884.748-1.27l.057-.095c.084-.142.2-.33.307-.527l.4-.679-.785-.07c-.066-.008-.115-.013-.162-.017h-.008a1.711,1.711,0,0,0-.254-.022h-4.752c-5.213,0-10.6,0-15.9-.009a1.085,1.085,0,0,0-1.164.977l-.795,3.2c-1.457,5.859-2.963,11.918-4.457,17.892l0,.014-.541,2.177c-.627,2.523-1.275,5.132-1.916,7.683a2.184,2.184,0,0,0-.057.44l0,.033c0,.06-.008.11-.014.153l-.047.438.428.1.027.008c.02.006.037.011.053.014a.848.848,0,0,0,.24.039c1.016,0,2.084.01,2.943.018.92.008,2.064.018,3.152.018C17419.594,274.761,17420.883,274.741,17422.158,274.7Z" transform="translate(-17368.078 -223)" fill="#fff"/>
  </g>
</svg>
