<svg xmlns="http://www.w3.org/2000/svg" xmlns:xlink="http://www.w3.org/1999/xlink" width="66" height="60" viewBox="0 0 66 60">
  <defs>
    <clipPath id="clip-field">
      <rect width="66" height="60"/>
    </clipPath>
  </defs>
  <g id="field" clip-path="url(#clip-field)">
    <path id="Union_6" data-name="Union 6" d="M21.082,52.684a1.456,1.456,0,0,1-1.454-1.505c-.046-1.113,0-2.23-.045-3.343a7.451,7.451,0,0,0-14.89.232c-.019.97,0,1.94-.011,2.91A1.522,1.522,0,0,1,3.2,52.683a1.44,1.44,0,0,1-1.427-1.659,29.235,29.235,0,0,1,.352-5.344,10.157,10.157,0,0,1,9.293-7.809,10.407,10.407,0,0,1,10.559,6.953c.079.227.151.457.272.822,1.521-1.816,2.951-3.522,4.38-5.228q6.908-8.254,13.823-16.5a2.779,2.779,0,0,1,1.047-.845,1.3,1.3,0,0,1,1.6.539,1.394,1.394,0,0,1-.11,1.809c-1.174,1.42-2.358,2.831-3.541,4.244q-8.261,9.87-16.513,19.749a2.334,2.334,0,0,0-.359.975,5.8,5.8,0,0,0-.019.8,1.491,1.491,0,0,1-1.468,1.5ZM53.784,37.8q-.584,0-1.169,0-6.543,0-13.087,0c-1.321,0-2.018-.5-2.034-1.452-.016-.966.712-1.494,2.067-1.494h12.8c.016-.306.041-.561.042-.817q0-14.111.014-28.223c0-.615-.131-.836-.8-.835q-20.1.029-40.207.016c-.215,0-.43.019-.729.033-.015.3-.041.578-.041.856,0,3.031,0,6.062-.007,9.092a3.026,3.026,0,0,1-.128,1,1.339,1.339,0,0,1-1.475.929,1.369,1.369,0,0,1-1.276-1.184,5.654,5.654,0,0,1-.046-.87q0-4.437,0-8.874V4.982c-.546,0-1.02.015-1.492,0A1.429,1.429,0,0,1,4.733,3.525,1.458,1.458,0,0,1,6.244,2.084c1.236-.021,2.472-.007,3.708-.007h46.46c1.183,0,1.811.469,1.855,1.376a1.384,1.384,0,0,1-1.325,1.516c-.5.034-1.009.006-1.589.006V34.848c.461,0,.89-.013,1.318,0a1.46,1.46,0,0,1,1.6,1.5,1.437,1.437,0,0,1-1.585,1.434c-.582.012-1.165.015-1.748.015ZM12.073,35.185a7.607,7.607,0,1,1,.063,0Zm.033-12.309a4.716,4.716,0,0,0-4.643,4.713,4.676,4.676,0,1,0,4.673-4.713Zm9.48-2.962a3.512,3.512,0,0,1-.932-.1,1.432,1.432,0,0,1,.166-2.782,4.875,4.875,0,0,1,.868-.056q11.308,0,22.615,0c1.384,0,2.066.5,2.056,1.485s-.691,1.461-2.085,1.461H28.339Q24.963,19.918,21.587,19.913Zm5.756-5.957c-1.156,0-1.872-.694-1.734-1.649a1.342,1.342,0,0,1,1.147-1.234,4.744,4.744,0,0,1,.866-.066q8.351-.006,16.7,0a4.232,4.232,0,0,1,.937.079,1.325,1.325,0,0,1,1.089,1.281,1.349,1.349,0,0,1-.942,1.463,3.443,3.443,0,0,1-1,.124c-2.832.009-5.665.005-8.5.005H31Q29.173,13.962,27.342,13.956Z" transform="translate(3.73 2.776)" fill="#fff"/>
  </g>
</svg>
