<svg xmlns="http://www.w3.org/2000/svg" xmlns:xlink="http://www.w3.org/1999/xlink" width="117" height="106" viewBox="0 0 117 106">
  <defs>
    <clipPath id="clip-health">
      <rect width="117" height="106"/>
    </clipPath>
  </defs>
  <g id="health" clip-path="url(#clip-health)">
    <path id="Path_5754" data-name="Path 5754" d="M785.176,79.812a2.756,2.756,0,0,1-2.278.811q-3.881-.051-7.764.012a1.364,1.364,0,0,0-1,.536,73.2,73.2,0,0,1-13.715,16.4,129.269,129.269,0,0,1-18.555,14.307,18.311,18.311,0,0,0-1.635.993,1.933,1.933,0,0,1-2.5.049c-3.361-2.242-6.814-4.364-10.044-6.782A108.368,108.368,0,0,1,710.12,89.969c-1.934-2.26-3.655-4.707-5.417-7.108a1.189,1.189,0,0,0-1.126-.537q-4.887.017-9.774,0a4.239,4.239,0,0,1-1.168-.136,1.277,1.277,0,0,1-.973-1.536,1.3,1.3,0,0,1,1.382-1.2c2.009-.018,4.019-.009,6.029-.011h3.49c-.615-1.549-1.257-2.988-1.764-4.473-1.8-5.269-2.233-10.619-.215-15.9,2.807-7.339,8.043-12.081,15.811-13.691A22.73,22.73,0,0,1,729.276,46.8a42.932,42.932,0,0,1,8.954,4.459.879.879,0,0,0,1.138-.059,44.942,44.942,0,0,1,10.871-5.064c13.488-4.239,24.935,4.148,27.534,15.734a24.426,24.426,0,0,1-1.241,13.8c-.244.68-.522,1.347-.833,2.145,2.526,0,4.921.024,7.315-.012a2.522,2.522,0,0,1,2.162.911Zm-46.514,8.709c.148-.5.234-.79.319-1.08q3.9-13.422,7.789-26.847c.236-.816.557-1.508,1.505-1.589.79-.068,1.337.478,1.687,1.612q2.172,7.048,4.339,14.1c.108.352.243.7.411,1.171.94-1.378,1.864-2.559,2.594-3.849a1.7,1.7,0,0,1,3.221.071c.9,1.756,1.954,3.435,2.988,5.118a1.277,1.277,0,0,0,.88.565c2.526.045,5.054.036,7.581.009a.925.925,0,0,0,.71-.365c2.175-4.638,3.372-9.484,2.393-14.6a18.06,18.06,0,0,0-21.357-14.486,37.639,37.639,0,0,0-13.606,5.943c-1.147.753-1.329.721-2.537.031-2.346-1.339-4.675-2.732-7.123-3.861a22.845,22.845,0,0,0-12.65-2.3,18.31,18.31,0,0,0-15.419,16.372A25.827,25.827,0,0,0,705.716,78.8a1.319,1.319,0,0,0,1,.494c4.2.033,8.4.006,12.6.039a1.128,1.128,0,0,0,1.164-.76c2.064-4.1,4.154-8.182,6.235-12.271.372-.731.663-1.554,1.71-1.521s1.274.872,1.574,1.641q2.453,6.278,4.915,12.553c1.217,3.106,2.435,6.212,3.742,9.546M728.1,69.836c-.213.4-.361.657-.5.923-1.72,3.386-3.461,6.762-5.143,10.168a2.255,2.255,0,0,1-2.29,1.419c-3.745-.041-7.49-.016-11.236-.016h-1.115c.224.361.341.6.5.806,1.568,1.979,3.054,4.031,4.731,5.914,7.365,8.27,16.043,14.973,25.3,20.966a1.119,1.119,0,0,0,1-.017c3.162-2.166,6.358-4.288,9.423-6.585A95.638,95.638,0,0,0,767.044,86.15c1.342-1.711,2.549-3.526,3.948-5.474-.569-.032-.86-.062-1.15-.063-2.07,0-4.142-.046-6.211.015a2.283,2.283,0,0,1-2.335-1.355c-.763-1.442-1.643-2.821-2.535-4.331-1.128,1.651-2.19,3.2-3.25,4.759a1.624,1.624,0,0,1-1.67.872c-.733-.119-1.044-.643-1.242-1.3-.517-1.715-1.055-3.423-1.584-5.134l-2.631-8.514c-.144.422-.238.667-.312.917q-2.558,8.739-5.112,17.48-1.368,4.676-2.738,9.351a1.457,1.457,0,0,1-1.338,1.188,1.493,1.493,0,0,1-1.542-1.054c-.057-.141-.112-.282-.168-.423q-3.128-8.02-6.256-16.039c-.922-2.363-1.849-4.724-2.824-7.213" transform="translate(-679.691 -25.986)" fill="#fff"/>
  </g>
</svg>
