<svg xmlns="http://www.w3.org/2000/svg" xmlns:xlink="http://www.w3.org/1999/xlink" width="117" height="106" viewBox="0 0 117 106">
  <defs>
    <clipPath id="clip-life">
      <rect width="117" height="106"/>
    </clipPath>
  </defs>
  <g id="life" clip-path="url(#clip-life)">
    <path id="Union_18" data-name="Union 18" d="M34.629,86.339c0-4.137-.024-8.274.025-12.411a3.49,3.49,0,0,1,.569-1.816c2.455-3.623,4.97-7.205,7.463-10.8a36.6,36.6,0,0,0,6.15-15.281c-.944,0-1.84-.027-2.732.023a.747.747,0,0,0-.5.479C44.2,52.39,40.816,57.19,37.37,61.966a6.225,6.225,0,0,1-5.428,2.785c-4.084-.035-8.168-.012-12.252-.009a5.335,5.335,0,0,1-4.465-1.949c-2.788-3.641-5.529-7.332-7.3-11.607-.607-1.461-1.07-2.984-1.54-4.5-.149-.478-.318-.7-.849-.676-.8.043-1.608.011-2.468.011a35.917,35.917,0,0,0,5.71,14.61c2.586,3.824,5.269,7.582,7.85,11.409a4.009,4.009,0,0,1,.64,2.065c.068,4.076.048,8.153.058,12.229H14.439c-.01-3.809-.034-7.617-.017-11.426A3.093,3.093,0,0,0,13.84,73q-3.677-5.224-7.285-10.5a39.3,39.3,0,0,1-6.5-17.064c-.24-1.752.245-2.3,2.033-2.3,1.562,0,3.124,0,4.687,0,1.165,0,1.525.247,1.9,1.378A36.407,36.407,0,0,0,10.053,48.7c1.21,2.533,2.539,5.016,3.951,7.443.887,1.524,2.019,2.9,3.035,4.353a3.089,3.089,0,0,0,2.423,1.367,8.731,8.731,0,0,1-2.1-6.9A8.372,8.372,0,0,1,21.1,48.954a8.615,8.615,0,0,1,10.854.953c3.218,3.115,3.431,7.332.553,11.913a2.541,2.541,0,0,0,2.157-1.069c3.41-4.649,6.772-9.311,8.187-15.062.633-2.574.756-2.544,3.393-2.544,1.2,0,2.406.047,3.6-.015a2.18,2.18,0,0,1,2.091.915v1.26a6.809,6.809,0,0,0-.171.682,38.864,38.864,0,0,1-6.318,16.37c-2.473,3.647-5.02,7.245-7.5,10.885a2.494,2.494,0,0,0-.41,1.313c-.031,3.927-.018,7.855-.018,11.783ZM20.187,55.981a5.743,5.743,0,0,0,5.647,5.879,5.757,5.757,0,0,0,.244-11.511h-.116A5.739,5.739,0,0,0,20.187,55.981ZM24.953,37A43.885,43.885,0,0,1,15.2,28.143a15.662,15.662,0,0,1-3.5-7.289c-.464-3.081.183-5.848,2.768-7.795a8,8,0,0,1,8.518-.762,24.631,24.631,0,0,1,3.127,1.989,8.774,8.774,0,0,1,6.3-2.8,7.587,7.587,0,0,1,7.919,8.987c-.5,3.464-2.311,6.253-4.524,8.831a45.814,45.814,0,0,1-8.782,7.679,1.835,1.835,0,0,1-1.048.377A1.778,1.778,0,0,1,24.953,37Zm-10.4-16.632A12.629,12.629,0,0,0,16,24.191c2.351,4.049,5.887,6.981,9.6,9.71a.82.82,0,0,0,.758,0,36.914,36.914,0,0,0,9-8.717,10.611,10.611,0,0,0,2.149-5.53c-.015-3.45-2.076-5.449-5.161-5.285a5.661,5.661,0,0,0-4.943,3.1,1.509,1.509,0,0,1-2.871-.013A5.609,5.609,0,0,0,21,14.6a6.249,6.249,0,0,0-1.743-.257A4.763,4.763,0,0,0,14.555,20.364ZM1.527,22.946v-2.8H7.176v2.8Zm43.217-.009V20.177h5.688v2.759ZM38.364,8.818l4.012-3.987,1.738,1.886-3.94,3.928ZM7.8,6.608l1.72-1.723,4.029,4-1.827,1.648Zm16.793-.93V0h2.76V5.678Z" transform="translate(32.9 10.443)" fill="#fff"/>
  </g>
</svg>
