<svg xmlns="http://www.w3.org/2000/svg" xmlns:xlink="http://www.w3.org/1999/xlink" width="46" height="46" viewBox="0 0 46 46">
  <defs>
    <clipPath id="clip-partners">
      <rect width="46" height="46"/>
    </clipPath>
  </defs>
  <g id="partners" clip-path="url(#clip-partners)">
    <path id="handshake" d="M42.167,25.834H40.944a8.963,8.963,0,0,0-1.366.1L26.661,16.251l3.095-2.963a1.833,1.833,0,1,0-2.535-2.649l-7.65,7.324a1.831,1.831,0,0,1-2.8-.247,1.969,1.969,0,0,1,.308-2.446L25.7,7.151a5.563,5.563,0,0,1,6.186-.907l4.246,2.123a9.215,9.215,0,0,0,4.1.966h1.936a1.833,1.833,0,0,0,0-3.667H40.229a5.534,5.534,0,0,1-2.46-.579L33.526,2.963A9.3,9.3,0,0,0,23.185,4.481L22.052,5.548l-1.283-1.17a9.243,9.243,0,0,0-10.3-1.417L6.229,5.084a5.547,5.547,0,0,1-2.462.579H1.834a1.833,1.833,0,1,0,0,3.667H3.77a9.253,9.253,0,0,0,4.1-.966l4.246-2.123a5.7,5.7,0,0,1,6.186.847l1.076.981-4.851,4.569a5.647,5.647,0,0,0-.73,7.22,5.963,5.963,0,0,0,4.481,2.308,5.457,5.457,0,0,0,3.857-1.582l1.844-1.765,11.634,8.725c-.057.04-11.363,8.517-11.363,8.517a3.675,3.675,0,0,1-4.528-.02L8.555,27.665a9.218,9.218,0,0,0-5.5-1.833H1.832a1.833,1.833,0,0,0,0,3.667H3.055a5.533,5.533,0,0,1,3.3,1.1L17.5,38.955a7.339,7.339,0,0,0,4.512,1.551,7.262,7.262,0,0,0,4.468-1.531L37.646,30.6a5.524,5.524,0,0,1,3.3-1.1h1.223a1.833,1.833,0,1,0,0-3.667Z" transform="translate(1 1.748)" fill="#fff"/>
  </g>
</svg>
