<svg xmlns="http://www.w3.org/2000/svg" xmlns:xlink="http://www.w3.org/1999/xlink" width="41" height="41" viewBox="0 0 41 41">
  <defs>
    <clipPath id="clip-program">
      <rect width="41" height="41"/>
    </clipPath>
  </defs>
  <g id="program" clip-path="url(#clip-program)">
    <path id="chart-user" d="M10.029,20.059A5.731,5.731,0,1,0,4.3,14.328,5.73,5.73,0,0,0,10.029,20.059Zm0-8.6a2.866,2.866,0,1,1-2.866,2.866A2.874,2.874,0,0,1,10.029,11.462ZM20.059,32.954a1.433,1.433,0,1,1-2.866,0,7.164,7.164,0,1,0-14.328,0,1.433,1.433,0,1,1-2.866,0,10.029,10.029,0,0,1,20.059,0ZM34.387,7.164V18.626a7.167,7.167,0,0,1-7.164,7.164H21.492a1.433,1.433,0,1,1,0-2.866h5.731a4.311,4.311,0,0,0,4.3-4.3V7.164a4.311,4.311,0,0,0-4.3-4.3H13.554A4.338,4.338,0,0,0,9.829,5.015a1.448,1.448,0,0,1-1.963.53A1.431,1.431,0,0,1,7.35,3.582,7.226,7.226,0,0,1,13.554,0H27.223A7.167,7.167,0,0,1,34.387,7.164Zm-14.8,8.482,4.184-4.184H21.492a1.433,1.433,0,1,1,0-2.866h4.3a2.874,2.874,0,0,1,2.866,2.866v4.3a1.433,1.433,0,1,1-2.866,0V13.482l-4.184,4.184a3.473,3.473,0,0,1-2.45,1.017,3.58,3.58,0,0,1-.946-.129A1.431,1.431,0,1,1,19,15.8.6.6,0,0,0,19.586,15.646Z" transform="translate(3.613 4)" fill="#464973"/>
  </g>
</svg>
