<svg xmlns="http://www.w3.org/2000/svg" xmlns:xlink="http://www.w3.org/1999/xlink" width="41" height="41" viewBox="0 0 41 41">
  <defs>
    <clipPath id="clip-target">
      <rect width="41" height="41"/>
    </clipPath>
  </defs>
  <g id="target" clip-path="url(#clip-target)">
    <path id="bullseye-arrow" d="M37.314,18.657A18.657,18.657,0,1,1,18.657,0a18.956,18.956,0,0,1,3.389.311,1.549,1.549,0,1,1-.56,3.047A15.553,15.553,0,1,0,34.2,18.657a17.244,17.244,0,0,0-.249-2.83A1.549,1.549,0,1,1,37,15.268a18.956,18.956,0,0,1,.311,3.389ZM19.994,9.422a1.555,1.555,0,1,0,.435-3.078,13.584,13.584,0,0,0-1.772-.124A12.438,12.438,0,1,0,31.1,18.657a13.585,13.585,0,0,0-.124-1.772,1.555,1.555,0,1,0-3.078.435,9.5,9.5,0,0,1,.093,1.337,9.328,9.328,0,1,1-9.328-9.328A9.5,9.5,0,0,1,19.994,9.422Zm-3.4,6.919a1.553,1.553,0,0,0-2.068-2.317,6.221,6.221,0,1,0,8.784,8.784,1.553,1.553,0,0,0-2.317-2.068,3.106,3.106,0,0,1-5.426-2.068A3.079,3.079,0,0,1,16.6,16.356ZM19.123,16a1.548,1.548,0,0,0,0,2.192,1.527,1.527,0,0,0,1.1.451,1.593,1.593,0,0,0,1.1-.451l7.323-7.323h4.027a1.606,1.606,0,0,0,1.1-.451l3.11-3.109a1.555,1.555,0,0,0-1.088-2.659H32.7V1.555a1.535,1.535,0,0,0-.964-1.43,1.53,1.53,0,0,0-1.695.342l-3.109,3.11a1.539,1.539,0,0,0-.451,1.1V8.707l-7.323,7.323Z" transform="translate(2 2.613)" fill="#464973"/>
  </g>
</svg>
