<svg xmlns="http://www.w3.org/2000/svg" xmlns:xlink="http://www.w3.org/1999/xlink" width="117" height="106" viewBox="0 0 117 106">
  <defs>
    <clipPath id="clip-technology">
      <rect width="117" height="106"/>
    </clipPath>
  </defs>
  <g id="technology" clip-path="url(#clip-technology)">
    <path id="Union_8" data-name="Union 8" d="M38.268,82.664a3.119,3.119,0,0,0-.527-.152,3.86,3.86,0,0,1-3.672-3.44c-.193-1.192-.443-2.378-.59-3.575-.062-.5-.278-.66-.726-.773a32.453,32.453,0,0,1-8.96-3.735.805.805,0,0,0-1.059.065c-1.034.772-2.08,1.529-3.146,2.255a3.667,3.667,0,0,1-4.63-.167c-1.831-1.7-3.616-3.453-5.307-5.29a3.705,3.705,0,0,1-.18-4.893c.724-1.035,1.491-2.041,2.186-3.1a1.026,1.026,0,0,0,.052-.894,36.365,36.365,0,0,1-3.8-9.116,1.02,1.02,0,0,0-.646-.612c-1.261-.261-2.538-.445-3.809-.657A3.937,3.937,0,0,1,.169,45c-.027-.313-.112-.622-.17-.932v-5.49a6.976,6.976,0,0,0,.166-.851,3.919,3.919,0,0,1,3.373-3.666c1.247-.191,2.494-.387,3.728-.645a1.021,1.021,0,0,0,.648-.607A36.3,36.3,0,0,1,11.7,23.7a1.022,1.022,0,0,0-.051-.89c-.693-1.055-1.458-2.063-2.183-3.1a3.7,3.7,0,0,1,.169-4.892C11.3,13,13.063,11.25,14.882,9.581a3.689,3.689,0,0,1,4.76-.193c1.085.746,2.134,1.546,3.231,2.274a.937.937,0,0,0,.821.034,33.949,33.949,0,0,1,9.12-3.771.745.745,0,0,0,.661-.741c.164-1.25.405-2.489.608-3.735a3.839,3.839,0,0,1,3.54-3.3C38.345.09,39.069.012,39.793,0a2.7,2.7,0,0,1,2.936,2.752q.074,5.527,0,11.056a2.792,2.792,0,0,1-2.883,2.78,24.193,24.193,0,0,0-17,8.272,23.827,23.827,0,0,0-6.255,16.646A24.707,24.707,0,0,0,36.522,65.66a24.316,24.316,0,0,0,3.113.387c2.088.155,3.11,1.215,3.113,3.321,0,3.2-.049,6.4.021,9.6.037,1.7-.444,2.991-2.079,3.692ZM24.127,67.937A31.448,31.448,0,0,0,34.7,72.33a1.535,1.535,0,0,1,1.31,1.419c.243,1.62.538,3.231.788,4.85a1.159,1.159,0,0,0,.973,1.127c.678.1,1.371.111,2.1.164v-11a27.37,27.37,0,0,1-18.128-8.168,26.882,26.882,0,0,1-7.97-18.173A26.5,26.5,0,0,1,18.731,25.54c5.16-7.253,12.292-11.092,21.152-11.8V2.767c-.648.044-1.208.1-1.769.117a1.243,1.243,0,0,0-1.321,1.227c-.228,1.54-.549,3.067-.747,4.61A1.741,1.741,0,0,1,34.5,10.389a30.3,30.3,0,0,0-10.272,4.283,1.684,1.684,0,0,1-2.145-.1c-1.292-.966-2.624-1.877-3.927-2.828a1.157,1.157,0,0,0-1.665.092c-1.528,1.512-3.044,3.036-4.567,4.553a1.258,1.258,0,0,0-.089,1.862c.962,1.295,1.879,2.623,2.83,3.926a1.557,1.557,0,0,1,.083,1.938,31.535,31.535,0,0,0-4.394,10.577A1.534,1.534,0,0,1,8.943,36c-1.592.244-3.174.555-4.768.777a1.242,1.242,0,0,0-1.249,1.305c-.025,2.175-.027,4.352.005,6.526a1.211,1.211,0,0,0,1.2,1.261c1.541.219,3.067.549,4.61.751a1.748,1.748,0,0,1,1.672,1.546,30.328,30.328,0,0,0,4.278,10.277,1.685,1.685,0,0,1-.1,2.145c-.934,1.248-1.825,2.529-2.729,3.8-.593.834-.61,1.178.1,1.909,1.459,1.5,2.965,2.963,4.442,4.45a1.256,1.256,0,0,0,1.859.1c1.3-.959,2.622-1.882,3.924-2.834a1.733,1.733,0,0,1,1.026-.383A1.664,1.664,0,0,1,24.127,67.937ZM53.714,79.921a4.1,4.1,0,0,1-3.976-3.057,4.052,4.052,0,0,1,1.986-4.669,1.007,1.007,0,0,0,.622-1.053c-.028-2.5-.008-5.006-.014-7.508A1.429,1.429,0,0,0,50.706,62c-2.61-.012-5.221-.007-7.832,0-.2,0-.493.028-.577.153-.892,1.345-2.224,1.26-3.552,1.094a22.053,22.053,0,0,1-1.562-43.561c.9-.164,1.806-.259,2.714-.346a2.558,2.558,0,0,1,2.219.923,1.216,1.216,0,0,0,.782.381c2.61.028,5.221.025,7.831.013a1.4,1.4,0,0,0,1.6-1.576c.009-2.557-.009-5.113.015-7.67a.9.9,0,0,0-.573-.921,4.062,4.062,0,0,1-2.03-4.721,4.14,4.14,0,1,1,5.948,4.724.956.956,0,0,0-.569,1.01c.018,2.449-.047,4.9.022,7.347a4.288,4.288,0,0,1-4.562,4.586c-2.417-.118-4.843-.026-7.265-.024-.156,0-.312.017-.544.031v2.714H57.288a5.709,5.709,0,0,1,.726.015,1.394,1.394,0,0,1,1.236,1.446,1.333,1.333,0,0,1-1.295,1.291c-.268.023-.538.014-.807.014H42.811v4.137H64.138c1.573,0,1.968-.388,1.971-1.94,0-1.965-.01-3.93.008-5.894a.905.905,0,0,0-.544-.94,4.073,4.073,0,0,1-2.012-4.867,4.147,4.147,0,0,1,8.085.732A4.126,4.126,0,0,1,69.5,24.258a.95.95,0,0,0-.592.988c.03,2.045.019,4.09.011,6.136a4.179,4.179,0,0,1-4.446,4.446q-10.334,0-20.668,0H42.8v4.085h.868q15.057,0,30.114.014a1.206,1.206,0,0,0,1.243-.722,4.079,4.079,0,0,1,4.654-1.869A4.139,4.139,0,1,1,75,43.43a1.1,1.1,0,0,0-1.085-.707q-11.728.027-23.457.017h-6.9c-.236,0-.473.022-.76.036v4.048h.955q10.293,0,20.587,0a4.207,4.207,0,0,1,4.58,4.558c0,2.019.012,4.037-.008,6.056a.9.9,0,0,0,.542.935,4.079,4.079,0,0,1,1.993,4.942,4.2,4.2,0,0,1-4.393,2.833,4.129,4.129,0,0,1-3.68-3.966,3.919,3.919,0,0,1,2.15-3.783.968.968,0,0,0,.594-1c-.027-2.045,0-4.09-.015-6.136-.008-1.16-.467-1.666-1.592-1.668q-10.7-.018-21.395,0a1.948,1.948,0,0,0-.3.056v4.073H57.094c.3,0,.594-.008.887.021a1.33,1.33,0,0,1,1.269,1.315,1.388,1.388,0,0,1-1.263,1.419,6.758,6.758,0,0,1-.726.011H42.791v2.747h.874c2.341,0,4.682-.007,7.024,0a4.112,4.112,0,0,1,4.434,4.427q.032,3.674-.005,7.347a1.119,1.119,0,0,0,.663,1.2,4.063,4.063,0,0,1,1.948,4.691,4.113,4.113,0,0,1-4.006,3.012Zm-1.325-4.214a1.346,1.346,0,1,0,2.688.138,1.33,1.33,0,0,0-1.31-1.422h-.031A1.351,1.351,0,0,0,52.389,75.707ZM67.438,60.669a1.331,1.331,0,1,0,.152,2.658,1.331,1.331,0,0,0-.08-2.66ZM22.113,42.554A19.171,19.171,0,0,0,39.874,60.491V22.139A19.238,19.238,0,0,0,22.113,42.554ZM78.469,40a1.332,1.332,0,1,0,.139,2.66A1.331,1.331,0,1,0,78.531,40ZM66.181,20.628a1.284,1.284,0,0,0,1.26,1.364,1.332,1.332,0,1,0,.146-2.661h-.069A1.28,1.28,0,0,0,66.181,20.628ZM53.726,5.517a1.373,1.373,0,0,0-1.341,1.336,1.356,1.356,0,0,0,1.285,1.379,1.323,1.323,0,0,0,1.409-1.319,1.364,1.364,0,0,0-1.339-1.4Z" transform="translate(17.842 12)" fill="#fff" stroke="rgba(0,0,0,0)" stroke-miterlimit="10" stroke-width="1"/>
  </g>
</svg>
