<svg xmlns="http://www.w3.org/2000/svg" xmlns:xlink="http://www.w3.org/1999/xlink" width="117" height="106" viewBox="0 0 117 106">
  <defs>
    <clipPath id="clip-path">
      <rect id="Rectangle_1949" data-name="Rectangle 1949" width="84.983" height="84.831" fill="none"/>
    </clipPath>
    <clipPath id="clip-tourism">
      <rect width="117" height="106"/>
    </clipPath>
  </defs>
  <g id="tourism" clip-path="url(#clip-tourism)">
    <g id="Group_2948" data-name="Group 2948" transform="translate(16.397 11.05)">
      <g id="Group_2947" data-name="Group 2947" clip-path="url(#clip-path)">
        <path id="Path_16321" data-name="Path 16321" d="M0,44.912V39.9c.052-.23.12-.458.153-.691.245-1.739.4-3.495.735-5.216A42.371,42.371,0,0,1,68.03,8.606a1.389,1.389,0,0,0,1.378.281,7.729,7.729,0,0,1,5.014.1A9.14,9.14,0,0,0,78.34,9.5a3.733,3.733,0,0,1,4.1,2.844,3.817,3.817,0,0,1-2.262,4.382c-.942.483-1.885.964-2.867,1.465.179.285.3.485.429.682,7.047,10.873,9.146,22.666,5.446,35.054-4.965,16.626-16.3,26.658-33.3,30.219-1.566.328-3.173.464-4.761.689H39.747c-.26-.053-.519-.114-.781-.156a59.521,59.521,0,0,1-6.342-1.028C15.588,79.011,4.978,68.087.9,50.9.438,48.94.293,46.908,0,44.912m81.835-8.445c-.155-4.5-4.23-14.535-6.925-17.083-2.678,1.349-5.355,2.719-8.057,4.041a1.274,1.274,0,0,0-.8,1.223c-.282,3.716-.618,7.429-.917,11.144a1.746,1.746,0,0,1-1.2,1.688c-1.253.474-2.471,1.038-3.711,1.548-1.184.486-1.806.193-2.15-1.022-.511-1.805-1-3.617-1.5-5.425-.314-1.131-.636-2.261-.968-3.439-.389.188-.684.325-.974.471q-7.622,3.84-15.245,7.681a5.121,5.121,0,0,1-5.751-.312c-2.46-1.931-4.748-4.082-7.081-6.171a1.106,1.106,0,0,1-.044-1.744,6.381,6.381,0,0,1,3.842-1.919,7.913,7.913,0,0,1,4.481,1.289,1.3,1.3,0,0,0,1.459-.064c4.146-2.533,8.312-5.033,12.472-7.544.5-.3,1-.607,1.568-.951-.271-.254-.457-.437-.652-.609Q47.088,17,44.5,14.728c-1.056-.927-1.064-1.577-.031-2.492.937-.831,1.913-1.623,2.808-2.5a1.966,1.966,0,0,1,2.351-.428c3.467,1.356,6.952,2.665,10.436,3.979.287.108.7.265.905.146,1.728-.984,3.42-2.027,5.15-3.068a2.3,2.3,0,0,0-.249-.266q-16-11.161-34.789-5.941a1.244,1.244,0,0,0-.735.831A42.377,42.377,0,0,0,29.9,9.424c-.043,1.1.151,2.2.175,3.3a5.142,5.142,0,0,1-2.97,5.006c-.977.5-1.995.935-3.008,1.367a9.176,9.176,0,0,0-5.893,7.39,12.929,12.929,0,0,1-2.079,5.749,5.447,5.447,0,0,1-7.474,1.778c-1.122-.6-2.13-1.417-3.191-2.134-.4-.273-.812-.542-1.266-.846-.111.354-.189.579-.251.808A39.806,39.806,0,0,0,16.178,72.425a1.088,1.088,0,0,0,.816.3,1.4,1.4,0,0,1,1.866.892,4.071,4.071,0,0,0,1.1,1.689c2.31,1.45,4.7,2.769,7.135,4.176a6.111,6.111,0,0,0,.227-.67,9.39,9.39,0,0,1,4.818-6.77,48.86,48.86,0,0,1,6.7-3.126,4.725,4.725,0,0,0,3.226-3.4,22.811,22.811,0,0,0,.7-4.487c.15-4.621.128-9.247.249-13.868.145-5.546,3.246-8.316,8.648-7.565a23.144,23.144,0,0,1,5.357,1.65,11.28,11.28,0,0,0,9.356.044c1.326-.61,2.623-1.3,3.99-1.8,2.288-.834,4.6-1.624,6.943-2.273a41.754,41.754,0,0,1,4.532-.754m.309,2.5c-1.512.235-2.951.434-4.382.686a36.155,36.155,0,0,0-9.506,3.562,14.046,14.046,0,0,1-12.5.213,12.425,12.425,0,0,0-6.385-1.41,3.671,3.671,0,0,0-3.535,3,12.762,12.762,0,0,0-.326,2.653c-.081,4-.062,7.994-.19,11.987a34.939,34.939,0,0,1-.6,5.673c-.591,2.977-2.206,5.183-5.318,5.994a6.513,6.513,0,0,0-.673.238,22.008,22.008,0,0,0-6.437,3.426,6.974,6.974,0,0,0-2.555,4.182c-.129.7-.023,1.106.8,1.35a40.294,40.294,0,0,0,16.885,1.466A39.209,39.209,0,0,0,71.028,70.209,38.812,38.812,0,0,0,82.1,46.639a74.228,74.228,0,0,0,.04-7.673M4.97,28.525c.841.574,1.557,1.056,2.265,1.549s1.384,1.041,2.121,1.488c2.149,1.307,3.936.9,5.04-1.364a17.518,17.518,0,0,0,1.348-4.318,11.393,11.393,0,0,1,6.4-8.614c1.177-.572,2.38-1.09,3.571-1.635a2.928,2.928,0,0,0,1.859-3.059C27.493,11,27.414,9.42,27.4,7.842c-.008-.791.132-1.583.22-2.528A40.494,40.494,0,0,0,4.97,28.525m61.44-7.718c.381-.172.65-.282.908-.412q5.389-2.713,10.775-5.431a4.293,4.293,0,0,0,1.246-.679,2.144,2.144,0,0,0,.62-1.336,1.063,1.063,0,0,0-1.2-.965c-.8.011-1.609.111-2.413.1a3.332,3.332,0,0,1-1.377-.242,7.011,7.011,0,0,0-7.149.41c-2.258,1.393-4.54,2.745-6.812,4.116q-12.1,7.3-24.19,14.607a2,2,0,0,1-2.242.117,25.74,25.74,0,0,0-2.5-1.2,2.84,2.84,0,0,0-2.652.132c1.637,1.45,3.2,2.825,4.748,4.207,1.624,1.445,2.595,1.578,4.533.6q7.063-3.562,14.124-7.129c.663-.335,1.652-.554,1.875-1.085.241-.573-.24-1.449-.406-2.193-.02-.087-.037-.175-.059-.262a1.337,1.337,0,0,1,.727-1.643c3.2-1.795,6.381-3.61,9.583-5.395,1.171-.652,2.093-.068,2.043,1.272-.029.763-.117,1.524-.187,2.405m-2.49-.447c-2.321,1.309-4.5,2.524-6.657,3.787-.167.1-.246.558-.182.8.511,1.959,1.067,3.906,1.608,5.858.5,1.82,1.009,3.64,1.526,5.5a17.579,17.579,0,0,1,1.673-.687,1.077,1.077,0,0,0,.833-1.165c.091-1.577.271-3.148.406-4.723.262-3.058.518-6.116.794-9.376M57.913,15.3c-.084-.1-.113-.168-.161-.186-2.83-1.085-5.659-2.171-8.5-3.235a.776.776,0,0,0-.641.073c-.594.468-1.147.989-1.748,1.518,1.837,1.606,3.577,3.141,5.342,4.648a.849.849,0,0,0,.746.157c1.665-.963,3.3-1.972,4.959-2.975" transform="translate(0 0)" fill="#fff"/>
        <path id="Path_16322" data-name="Path 16322" d="M104.357,244.62c-1.063-.032-1.742-.91-1.358-1.638.9-1.7,1.881-3.368,2.9-5a1.069,1.069,0,0,1,1.587-.252,1.136,1.136,0,0,1,.42,1.63c-.876,1.551-1.763,3.1-2.7,4.608a2.68,2.68,0,0,1-.848.652" transform="translate(-84.435 -194.891)" fill="#fff"/>
        <path id="Path_16323" data-name="Path 16323" d="M83,353.912a1.061,1.061,0,0,1-.958,1.4,1.132,1.132,0,0,1-1.383-1.07c-.183-1.773-.332-3.552-.4-5.333a1.236,1.236,0,1,1,2.471-.07q.136,2.538.27,5.076" transform="translate(-65.863 -285.259)" fill="#fff"/>
        <path id="Path_16324" data-name="Path 16324" d="M83.037,296.425c.546-1.818,1.051-3.649,1.662-5.446a1.083,1.083,0,0,1,1.488-.62,1.118,1.118,0,0,1,.8,1.408Q86.311,294.4,85.536,297a1.109,1.109,0,0,1-1.419.776,1.394,1.394,0,0,1-1.081-1.352" transform="translate(-68.142 -238.203)" fill="#fff"/>
        <path id="Path_16325" data-name="Path 16325" d="M422.364,153.65c-.4.406-.678.883-1.093,1.077a1.024,1.024,0,0,1-1.425-.555c-.584-1.427-1.123-2.876-1.6-4.341a1,1,0,0,1,.725-1.335c.44-.09,1.25.047,1.388.329.736,1.511,1.312,3.1,2.009,4.824" transform="translate(-343.173 -121.837)" fill="#fff"/>
        <path id="Path_16326" data-name="Path 16326" d="M140.04,206.69a2.881,2.881,0,0,1-.335.779,26.427,26.427,0,0,1-2.093,2.049,1.118,1.118,0,0,1-1.605-.156,1.078,1.078,0,0,1-.106-1.536,14.188,14.188,0,0,1,2.1-2.035,1.541,1.541,0,0,1,1.306-.049c.332.144.511.64.734.948" transform="translate(-111.3 -168.739)" fill="#fff"/>
      </g>
    </g>
  </g>
</svg>
