<svg xmlns="http://www.w3.org/2000/svg" xmlns:xlink="http://www.w3.org/1999/xlink" width="61" height="46" viewBox="0 0 61 46">
  <defs>
    <clipPath id="clip-trainers">
      <rect width="61" height="46"/>
    </clipPath>
  </defs>
  <g id="trainers" clip-path="url(#clip-trainers)">
    <g id="Group_2253" data-name="Group 2253" transform="translate(15413.844 -1387.123)">
      <path id="Path_5701" data-name="Path 5701" d="M416.208,408.869a5.4,5.4,0,0,1-1.608.559c-4.845.044-9.69.027-14.536.025-1.423,0-1.755-.334-1.755-1.741,0-2.157-.01-4.314,0-6.471a4.892,4.892,0,0,1,4.388-4.964,1.739,1.739,0,0,1,1.677.585,3.807,3.807,0,0,0,5.854.033,1.822,1.822,0,0,1,1.821-.6,4.8,4.8,0,0,1,3.957,3.358c.058.166.132.326.2.489Zm-2.34-1.736c0-2.2.037-4.324-.017-6.447a2.147,2.147,0,0,0-1.452-1.96,1.039,1.039,0,0,0-.88.111,6.239,6.239,0,0,1-8.436.021,1.1,1.1,0,0,0-.945-.112,2.414,2.414,0,0,0-1.5,2.349c-.01,1.869-.006,3.739,0,5.608a2.31,2.31,0,0,0,.081.429Z" transform="translate(-15771.05 1015.305)" fill="#fff"/>
      <path id="Path_5702" data-name="Path 5702" d="M168.647,409.477c-2.459,0-4.919,0-7.378,0-1.25,0-1.585-.339-1.586-1.568,0-2.233-.011-4.465,0-6.7a4.834,4.834,0,0,1,4.173-4.891,1.876,1.876,0,0,1,1.888.617,3.806,3.806,0,0,0,5.746.021,1.93,1.93,0,0,1,1.958-.631,4.825,4.825,0,0,1,4.125,4.776c.03,2.336.014,4.673,0,7.009,0,.972-.4,1.357-1.4,1.362-2.512.011-5.023,0-7.535,0m6.6-2.335c0-2.166.03-4.266-.014-6.365a2.336,2.336,0,0,0-1.267-1.946.9.9,0,0,0-1.242.108,6.142,6.142,0,0,1-8.047.139c-.725-.6-1.043-.649-1.713.016a2.659,2.659,0,0,0-.88,1.492c-.1,2.168-.041,4.344-.041,6.556Z" transform="translate(-15569.999 1015.282)" fill="#fff"/>
      <path id="Path_5703" data-name="Path 5703" d="M288.365,409.458c-2.459,0-4.919,0-7.378,0-1.164,0-1.5-.337-1.5-1.48,0-2.311-.022-4.621.006-6.932a4.8,4.8,0,0,1,4.224-4.761,1.793,1.793,0,0,1,1.747.6,3.825,3.825,0,0,0,5.8.041,1.884,1.884,0,0,1,1.887-.619,4.849,4.849,0,0,1,4.228,4.928c.012,2.233,0,4.465,0,6.7,0,1.15-.375,1.522-1.562,1.526-2.485.008-4.971,0-7.456,0m6.674-2.317c0-2.2.031-4.32-.016-6.442a2.271,2.271,0,0,0-1.182-1.832.981.981,0,0,0-1.377.075,6.127,6.127,0,0,1-7.922.187c-.832-.668-1.408-.671-2.049.2a3.5,3.5,0,0,0-.657,1.765c-.093,1.5-.032,3.01-.033,4.516,0,.506,0,1.012,0,1.533Z" transform="translate(-15670.934 1007.244)" fill="#fff"/>
      <path id="Path_5704" data-name="Path 5704" d="M188.076,342.693a5.27,5.27,0,1,1,5.3-5.264,5.314,5.314,0,0,1-5.3,5.264m2.98-5.29a3.01,3.01,0,1,0-3.032,3.027,3,3,0,0,0,3.032-3.027" transform="translate(-15589.409 1069.383)" fill="#fff"/>
      <path id="Path_5705" data-name="Path 5705" d="M302.342,337.408a5.322,5.322,0,1,1,5.341,5.286,5.264,5.264,0,0,1-5.341-5.286m8.338.051a3.023,3.023,0,1,0-3.022,2.971,3.034,3.034,0,0,0,3.022-2.971" transform="translate(-15690.197 1061.326)" fill="#fff"/>
      <path id="Path_5706" data-name="Path 5706" d="M432.521,337.519a5.306,5.306,0,1,1-5.173-5.354,5.263,5.263,0,0,1,5.173,5.354m-5.268-3.1a3.009,3.009,0,1,0,3,3.065,3.06,3.06,0,0,0-3-3.065" transform="translate(-15790.938 1069.375)" fill="#fff"/>
    </g>
  </g>
</svg>
