<svg xmlns="http://www.w3.org/2000/svg" xmlns:xlink="http://www.w3.org/1999/xlink" width="64" height="58" viewBox="0 0 64 58">
  <defs>
    <clipPath id="clip-tv">
      <rect width="64" height="58"/>
    </clipPath>
  </defs>
  <g id="tv" clip-path="url(#clip-tv)">
    <path id="tv-retro" d="M38.121,12.038H28.36L35.65,3.29A2.006,2.006,0,0,0,32.568.722L24.077,10.911,15.586.722A2.006,2.006,0,1,0,12.5,3.29l7.289,8.748H10.032A10.043,10.043,0,0,0,0,22.07V38.121A10.043,10.043,0,0,0,10.032,48.153H38.121A10.043,10.043,0,0,0,48.153,38.121V22.07A10.043,10.043,0,0,0,38.121,12.038Zm6.019,26.083a6.027,6.027,0,0,1-6.019,6.019H10.032a6.027,6.027,0,0,1-6.019-6.019V22.07a6.027,6.027,0,0,1,6.019-6.019H38.121a6.027,6.027,0,0,1,6.019,6.019ZM26.083,20.064H12.038a4.017,4.017,0,0,0-4.013,4.013V36.115a4.017,4.017,0,0,0,4.013,4.013H26.083A4.017,4.017,0,0,0,30.1,36.115V24.077A4.017,4.017,0,0,0,26.083,20.064ZM12.038,36.115V24.077H26.083V36.115ZM40.128,25.08a3.01,3.01,0,1,1-3.01-3.01A3.011,3.011,0,0,1,40.128,25.08Zm0,10.032a3.01,3.01,0,1,1-3.01-3.01A3.011,3.011,0,0,1,40.128,35.112Z" transform="translate(7.923 4.923)" fill="#fff"/>
  </g>
</svg>
