<svg xmlns="http://www.w3.org/2000/svg" xmlns:xlink="http://www.w3.org/1999/xlink" width="117" height="106" viewBox="0 0 117 106">
  <defs>
    <clipPath id="clip-tourism_1">
      <rect width="117" height="106"/>
    </clipPath>
  </defs>
  <g id="tourism_1" data-name="tourism – 1" clip-path="url(#clip-tourism_1)">
    <path id="Union_17" data-name="Union 17" d="M43.2,96.186a1.8,1.8,0,0,1-.674-1.616c.011-2.325.113-4.664-.089-6.974a8.954,8.954,0,0,0-8.857-8.219,6.641,6.641,0,0,1-5.485-2.758,3.692,3.692,0,0,1-.348-.539,1.1,1.1,0,0,1,.35-1.476,1.067,1.067,0,0,1,1.427.251c.1.114.175.243.263.364a4.45,4.45,0,0,0,3.691,1.948,11.2,11.2,0,0,1,11.045,9.447,15.53,15.53,0,0,1,.182,2.571c.027,1.81-.013,3.62.019,5.429a1.6,1.6,0,0,1-.76,1.573Zm-41.77,0a1.553,1.553,0,0,1-.757-1.51c.05-2.413-.056-4.836.114-7.238a10.878,10.878,0,0,1,4.646-8.18l.307-.226c-.164-.156-.308-.3-.46-.435A15.779,15.779,0,0,1,0,66.862V66.74A15.748,15.748,0,0,1,2.426,58.4,14.618,14.618,0,0,0,4.77,50.161c-.039-2.282-.06-4.575.1-6.85A14.732,14.732,0,0,1,16.7,30.226a18.15,18.15,0,0,1,3.036-.259c1.186,0,2.376-.022,3.564-.023h.235c1.388,0,2.774.034,4.152.156a14.61,14.61,0,0,1,12.7,12.2,23.6,23.6,0,0,1,.234,3.023c.038,1.659.042,3.32,0,4.98a14.665,14.665,0,0,0,2.3,8.06c3.3,5.486,3.3,11.069.161,16.652-.094.168-.2.331-.305.491-.452.673-1.069.858-1.622.488s-.623-.995-.2-1.7a13.506,13.506,0,0,0-.071-15.1,15.67,15.67,0,0,1-2.434-8.369c-.007-2.435.063-4.879-.11-7.3A12.376,12.376,0,0,0,27.53,32.3a40.3,40.3,0,0,0-10.349.113A12.486,12.486,0,0,0,6.936,44.739c-.033,1.962-.023,3.924,0,5.886a15.661,15.661,0,0,1-2.5,8.673A13.561,13.561,0,0,0,7.519,77.592a1.129,1.129,0,0,0,.781.17c1.233-.174,2.452-.5,3.689-.574a4.687,4.687,0,0,0,4.459-4.323.78.78,0,0,0-.466-.854,14.521,14.521,0,0,1-7.8-13.075c-.055-2.457-.01-4.916-.008-7.374,0-.966.352-1.439,1.066-1.446.729-.007,1.1.492,1.1,1.485,0,2.393,0,4.786,0,7.18A12.442,12.442,0,0,0,23.67,71.468,12.3,12.3,0,0,0,34.893,60.607c.254-2.709.043-5.462.043-8.255-2.849-.3-4.7-1.963-5.589-4.886-.245.141-.457.259-.664.386A36.3,36.3,0,0,1,14.606,53c-.794.114-1.276-.217-1.384-.873s.3-1.182,1.1-1.3a34.778,34.778,0,0,0,15.107-6.094c.9-.632,1.709-.193,1.827.923a8.772,8.772,0,0,0,.25,1.4,3.971,3.971,0,0,0,4.1,3.087c1.366-.019,1.619.236,1.618,1.644,0,2.523.026,5.046-.009,7.568A14.635,14.635,0,0,1,24.637,73.554a16.4,16.4,0,0,1-2.982.1c-.988-.058-1.966-.285-3.042-.453a7.065,7.065,0,0,1-2.5,4.678l4.417,3.478c.553.435,1.127.848,1.654,1.314a.653.653,0,0,0,1.02.014c1.031-.864,2.1-1.679,3.162-2.505.69-.537,1.31-.513,1.731.049.408.544.255,1.178-.422,1.712q-2.036,1.606-4.077,3.206c-.724.568-1.076.567-1.811-.011q-3.626-2.848-7.243-5.706a1.2,1.2,0,0,0-1.1-.256c-.891.168-1.812.17-2.713.3a9.1,9.1,0,0,0-7.874,9.106c-.019,2.048-.022,4.1.007,6.144a1.4,1.4,0,0,1-.8,1.466ZM51.983,54.5c-.1-.62-.22-1.245-.349-1.859A24.537,24.537,0,0,0,59.5,50.716a24.926,24.926,0,0,0,7.959-5.448,25.742,25.742,0,0,0,5.368-27.862,25.354,25.354,0,0,0-5.368-8.079A24.932,24.932,0,0,0,59.5,3.879,24.783,24.783,0,0,0,40,3.879a24.945,24.945,0,0,0-7.96,5.447,25.5,25.5,0,0,0-6.888,13.161c-.58-.2-1.179-.391-1.779-.567A27.365,27.365,0,0,1,32.6,6.272,26.547,26.547,0,0,1,49.75,0,26.393,26.393,0,0,1,60.219,2.145,26.776,26.776,0,0,1,68.768,8a27.593,27.593,0,0,1,.724,37.839A26.646,26.646,0,0,1,51.984,54.5h0Zm5.868-8.622H49.584c-.168-.419-.346-.845-.532-1.268h7.968V39.654H51.535c-.318,0-.576,0-.811-.006a.592.592,0,0,1-.607-.607.615.615,0,0,1,.588-.63c.038,0,.078,0,.131,0h5.334l.01-.114c.007-.081.013-.151.017-.221a6.347,6.347,0,0,1,1.72-4.182c.132-.136.263-.277.391-.413.171-.183.348-.37.525-.551a11.046,11.046,0,0,0,2.449-3.87,2.652,2.652,0,0,0,.176-1.525A7.556,7.556,0,0,0,59.4,23.753a1.459,1.459,0,0,0-1.088-.42,2.627,2.627,0,0,0-.4.034c-.287.046-.579.1-.861.145-.521.089-1.058.181-1.588.251a8.98,8.98,0,0,1-1.155.073,12.082,12.082,0,0,1-1.929-.167,1.891,1.891,0,0,0-.3-.029c-.384,0-.55.188-.635.718a2.045,2.045,0,0,0,.445,1.66,2.984,2.984,0,0,0,2.106,1.2c.583.056,1.144.133,1.668.23a.581.581,0,0,1,.384.248.622.622,0,0,1,.087.472.6.6,0,0,1-.613.485.69.69,0,0,1-.072,0c-.139-.013-.28-.036-.416-.058l-.159-.025c-.181-.027-.368-.047-.549-.068a6.5,6.5,0,0,1-1.26-.225,1.419,1.419,0,0,0-.444-.075,1.476,1.476,0,0,0-.711.2l-.058.03a2.9,2.9,0,0,0-.29.164,6.5,6.5,0,0,0-2.965,5.01c-.042.461-.263.714-.623.714h-.018a.594.594,0,0,1-.451-.2.685.685,0,0,1-.129-.546,10.4,10.4,0,0,1,.407-2,11.736,11.736,0,0,1,.655-1.449c.1-.206.212-.418.314-.632a3.181,3.181,0,0,1-1.581-1.142,2.952,2.952,0,0,1-2.319,1.209,3.231,3.231,0,0,1-.644-.067A3.113,3.113,0,0,1,41.816,27.4a3.019,3.019,0,0,1-1.831.673,3.522,3.522,0,0,1-1.895-.627c0,.191,0,.379,0,.561,0,.408.006.792-.007,1.181-.007.225-.007.456,0,.685-.389-.331-.8-.666-1.218-1,.009-.778,0-1.57-.007-2.335V26.47c-.019-1.945-.043-3.716-.073-5.414a3.2,3.2,0,0,1,.586-1.942,2.79,2.79,0,0,1,1.6-1.1,2.857,2.857,0,0,1,.7-.088,3.25,3.25,0,0,1,1.724.539,3.05,3.05,0,0,1,3-2.606,3.3,3.3,0,0,1,2.276,1.017,3.728,3.728,0,0,1,.945-1.966,3.105,3.105,0,0,1,1.915-.873,3.989,3.989,0,0,1,.442-.026c1.393,0,2.38.825,2.933,2.452A3.2,3.2,0,0,1,54.8,15.8a2.918,2.918,0,0,1,.436.033,3.011,3.011,0,0,1,2.556,2.936c.014.688,0,1.388-.01,2.066v.005c-.006.3-.011.612-.014.917v.35l.078,0H57.9l.049,0a3.27,3.27,0,0,1,.35-.019,2.988,2.988,0,0,1,2.356,1.174,10.542,10.542,0,0,1,1.666,2.815,4.533,4.533,0,0,1,.023,3.652,12.932,12.932,0,0,1-2.683,4.125,17.109,17.109,0,0,0-1.3,1.451,5.137,5.137,0,0,0-.947,3.08c.7.069.849.235.849.934q0,.731,0,1.461c0,1.379,0,2.8.007,4.2a.912.912,0,0,1-.42.891Zm-9.939-28.7c-.046,2.7-.087,5.455-.127,8.114V25.3l-.016,1.017a2.788,2.788,0,0,0,.023.4,1.882,1.882,0,0,0,1.826,1.639h.006a.553.553,0,0,0,.3-.1c.343-.247.674-.494,1.025-.757l.007,0,.343-.257a.016.016,0,0,0,0-.013l-.043-.048c-.054-.061-.108-.122-.163-.181a3.265,3.265,0,0,1-.9-2.526,2.1,2.1,0,0,1,1.3-2.038c.083-.032.141-.213.144-.318.03-1.3.053-2.615.075-3.89l.014-.837c0-.12,0-.263-.01-.4A1.925,1.925,0,0,0,50.336,15.3a1.9,1.9,0,0,0-.466-.059A1.971,1.971,0,0,0,47.912,17.174ZM44.2,17.116a1.827,1.827,0,0,0-1.591,1.951c.092,2.283.19,4.733.294,7.181a3.273,3.273,0,0,0,.088.707,1.9,1.9,0,0,0,1.79,1.361,1.609,1.609,0,0,0,.272-.023,1.839,1.839,0,0,0,1.485-1.954q-.045-1.073-.089-2.147v-.01q-.029-.709-.059-1.418h.006q-.026-.577-.047-1.155V21.6c-.035-.912-.072-1.856-.135-2.783a1.838,1.838,0,0,0-1.869-1.706C44.294,17.111,44.246,17.113,44.2,17.116Zm-4.663,2.06A1.723,1.723,0,0,0,38.017,21c.044,1.388.1,2.757.159,4.068a1.785,1.785,0,0,0,1.815,1.755l.1,0a1.743,1.743,0,0,0,1.534-1.9c-.011-.426-.008-.859-.005-1.278,0-.2,0-.391,0-.585h-.068c-.011-.236-.018-.476-.026-.709-.018-.531-.035-1.081-.092-1.617a1.75,1.75,0,0,0-1.755-1.561C39.636,19.17,39.591,19.172,39.535,19.176ZM52.963,18.7c-.05.859-.066,1.738-.081,2.587-.007.379-.014.77-.024,1.158l.07.026a.351.351,0,0,0,.081.026,8.468,8.468,0,0,0,1.225.086,12.06,12.06,0,0,0,2.124-.207.3.3,0,0,0,.168-.23l.011-.45c.022-.952.045-1.937.031-2.906A1.757,1.757,0,0,0,54.9,17.051h-.053A1.856,1.856,0,0,0,52.963,18.7ZM47.357,39.025a.614.614,0,0,1,.6-.615.632.632,0,0,1,.622.629.625.625,0,0,1-.605.612h-.008A.607.607,0,0,1,47.357,39.025Z" transform="translate(20.355 4.907)" fill="#fff" stroke="rgba(0,0,0,0)" stroke-miterlimit="10" stroke-width="1"/>
  </g>
</svg>
