<svg xmlns="http://www.w3.org/2000/svg" xmlns:xlink="http://www.w3.org/1999/xlink" width="422" height="251" viewBox="0 0 422 251">
  <defs>
    <clipPath id="clip-logo-white">
      <rect width="422" height="251"/>
    </clipPath>
  </defs>
  <g id="logo-white" clip-path="url(#clip-logo-white)">
    <g id="Group_494" data-name="Group 494">
      <path id="Path_4857" data-name="Path 4857" d="M134.7,14.525q-.435-.982-.907-1.946a1.072,1.072,0,0,0-.963-.6H6.627a1.069,1.069,0,0,0-.966.611l-.916,1.932Z" transform="translate(9.465 12)" fill="#fff"/>
      <path id="Path_4858" data-name="Path 4858" d="M5.558,61.439q.74,1.522,1.567,2.99a1.078,1.078,0,0,0,.94.545H131.983q1-1.731,1.882-3.535a1.068,1.068,0,0,0-.97-1.523H6.528a1.068,1.068,0,0,0-.97,1.523" transform="translate(9.465 12)" fill="#fff"/>
      <path id="Path_4859" data-name="Path 4859" d="M1.308,49.233q.261,1.177.573,2.335a1.079,1.079,0,0,0,1.043.794H137.317c.294-1.036.566-2.08.806-3.137a1.068,1.068,0,0,0-1.048-1.293H2.363a1.078,1.078,0,0,0-1.055,1.3" transform="translate(9.465 12)" fill="#fff"/>
      <path id="Path_4860" data-name="Path 4860" d="M138.383,35.949H1.068A1.064,1.064,0,0,0,0,37.016c0,.519,0,1.14.011,1.685A1.066,1.066,0,0,0,1.079,39.75H139.372c.043-.914.087-1.828.084-2.753a1.067,1.067,0,0,0-1.073-1.048" transform="translate(9.465 12)" fill="#fff"/>
      <path id="Path_4861" data-name="Path 4861" d="M138.541,27.137q-.213-1.177-.473-2.339a1.074,1.074,0,0,0-1.048-.833H2.395a1.074,1.074,0,0,0-1.047.831q-.12.531-.23,1.066A1.069,1.069,0,0,0,2.17,27.137Z" transform="translate(9.465 12)" fill="#fff"/>
      <path id="Path_4862" data-name="Path 4862" d="M126.974,1.913q-.636-.783-1.3-1.543A1.091,1.091,0,0,0,124.853,0H14.1c-.56.63-1.12,1.26-1.652,1.914Z" transform="translate(9.465 12)" fill="#fff"/>
      <path id="Path_4863" data-name="Path 4863" d="M125.8,73.681A1.073,1.073,0,0,0,125,71.9H14.444a1.073,1.073,0,0,0-.805,1.779q1.623,1.876,3.405,3.6a1.08,1.08,0,0,0,.754.3H122.051c1.308-1.244,2.563-2.544,3.75-3.9" transform="translate(9.465 12)" fill="#fff"/>
      <path id="Path_4864" data-name="Path 4864" d="M164.457,3.827c-.376-.507-.753-1.012-1.143-1.507a1.073,1.073,0,0,0-.844-.407H48.46c-.506.624-.988,1.268-1.467,1.914H164.457Z" transform="translate(9.465 12)" fill="#fff"/>
      <path id="Path_4865" data-name="Path 4865" d="M171.158,15.584c-.055-.136-.111-.272-.168-.407a1.072,1.072,0,0,0-.99-.652H40.736c-.155.35-.3.7-.448,1.059a1.073,1.073,0,0,0,.987,1.484H170.17a1.074,1.074,0,0,0,.988-1.484" transform="translate(9.465 12)" fill="#fff"/>
      <path id="Path_4866" data-name="Path 4866" d="M174.871,29.093q-.078-.534-.167-1.065a1.071,1.071,0,0,0-1.058-.891H36.893q-.176.974-.32,1.956a1.07,1.07,0,0,0,1.063,1.216H173.808a1.071,1.071,0,0,0,1.063-1.216" transform="translate(9.465 12)" fill="#fff"/>
      <path id="Path_4867" data-name="Path 4867" d="M159.829,39.75H36.062q.066,1.428.2,2.837a1.074,1.074,0,0,0,1.072.964H174.111a1.074,1.074,0,0,0,1.072-.964q.081-.846.137-1.7a1.075,1.075,0,0,0-1.074-1.137Z" transform="translate(9.465 12)" fill="#fff"/>
      <path id="Path_4868" data-name="Path 4868" d="M147.063,64.974H43.451q1.374,2.38,2.966,4.61a1.085,1.085,0,0,0,.88.449H164.155a1.084,1.084,0,0,0,.88-.45q1.044-1.459,1.993-2.989a1.068,1.068,0,0,0-.918-1.62H147.063Z" transform="translate(9.465 12)" fill="#fff"/>
      <path id="Path_4869" data-name="Path 4869" d="M53.384,77.586a56.179,56.179,0,0,0,7.005,5.688h90.346a1.1,1.1,0,0,0,.626-.195,54.85,54.85,0,0,0,4.633-3.6,1.074,1.074,0,0,0-.7-1.889Z" transform="translate(9.465 12)" fill="#fff"/>
      <path id="Path_4870" data-name="Path 4870" d="M152.4,52.362H38.117q.535,1.887,1.19,3.72a1.083,1.083,0,0,0,1.019.71H171.12a1.083,1.083,0,0,0,1.019-.71q.415-1.156.78-2.336a1.077,1.077,0,0,0-1.033-1.384H152.4Z" transform="translate(9.465 12)" fill="#fff"/>
      <path id="Path_4871" data-name="Path 4871" d="M60.364,83.274c8.9,5.981,23.447,14.8,32.6,14.8v-14.8Z" transform="translate(9.465 12)" fill="#fff"/>
      <path id="Path_4872" data-name="Path 4872" d="M141.66,128.908q-.657-3.624-1.469-6.521a.5.5,0,0,0-.672-.322l-5.544,2.192a.49.49,0,0,0-.3.591q.612,2.163,1.16,4.7.6,2.79,1.094,5.466t.791,4.748a23.974,23.974,0,0,1,.3,2.9,7.888,7.888,0,0,1-1.847,5.127,12.217,12.217,0,0,1-5.052,3.543,19.683,19.683,0,0,1-7.35,1.282q-6.408,0-9.763-3.392t-3.354-9.8a32.5,32.5,0,0,1,.565-5.654q.536-3,1.649-7.7a.512.512,0,0,0-.386-.619l-4.985-1.01a.513.513,0,0,0-.589.37q-1.413,5.214-2.1,9.111a42.145,42.145,0,0,0-.717,7.237q0,9.347,5.24,14.437t14.286,5.089a23.475,23.475,0,0,0,10.97-2.412,17.874,17.874,0,0,0,7.162-6.521,17.428,17.428,0,0,0,2.525-9.311,50.514,50.514,0,0,0-.452-5.917q-.453-3.658-1.169-7.616" transform="translate(9.465 12)" fill="#fff"/>
      <path id="Path_4873" data-name="Path 4873" d="M204.31,130.416q-.339-3.2-.829-6.445-.428-2.818-.824-5.184a.577.577,0,0,0-.785-.436l-5.428,2.121a.568.568,0,0,0-.354.659q.542,2.366,1.02,5.1.526,3.015.942,5.88t.679,5.089a31.239,31.239,0,0,1,.264,3.28q0,2.337-2.639,3.468t-9.122,1.131h-5.881a36.5,36.5,0,0,0-2.073-11.949,19.548,19.548,0,0,0-5.046-7.864,12.08,12.08,0,0,0-6.2-2.961,10.691,10.691,0,0,0-8.621,2.305,17.1,17.1,0,0,0-4.938,6.6,22.54,22.54,0,0,0-1.847,9.273q0,6.484,3.392,9.536t10.63,3.054h7.313q-1.96,3.994-7.237,6.144a61.226,61.226,0,0,1-14.06,3.321.744.744,0,0,0-.632.879l1.285,6.183a.751.751,0,0,0,.818.587q11.569-1.323,17.979-5.279a18.439,18.439,0,0,0,8.481-11.76h6.635q8.9,0,13.382-3.091t4.486-9.65q0-1.508-.226-4.147t-.566-5.843m-36.527,14.89q-5.2,0-7.2-1.319t-2-4.787a11.291,11.291,0,0,1,2.036-6.9,5.908,5.908,0,0,1,4.825-2.75,6.9,6.9,0,0,1,4.9,2.11,14.955,14.955,0,0,1,3.505,5.692,25.46,25.46,0,0,1,1.47,7.953Z" transform="translate(9.465 12)" fill="#fff"/>
      <path id="Path_4874" data-name="Path 4874" d="M405.111,131.548a19.14,19.14,0,0,0-5.2-7.011,11,11,0,0,0-7.162-2.677q-7.011,0-12.288,9.122l-4.222,7.162a14.77,14.77,0,0,1-4.6,5.128,10.172,10.172,0,0,1-5.73,1.809q-5.278,0-7.614-1.583a5.278,5.278,0,0,1-2.337-4.675q0-.753.075-2t.151-2l.474-5.549a.584.584,0,0,0-.582-.633h-4.869a.584.584,0,0,0-.581.523l-1,9.654a9.267,9.267,0,0,1-.829,2.941,4.919,4.919,0,0,1-2.827,2.488,19.725,19.725,0,0,1-6.748.829H313.411c3.295-1.25,6.371-2.47,9.223-3.544,0,0,7.77-3.318,9.114-3.948a.6.6,0,0,0,.367-.544l.8-5.911a.39.39,0,0,0-.329-.436,43.81,43.81,0,0,1-4.37-.958c-11.432-3.067-24.205-9.855-33.389-9.855-7.34,0-12.188,6.7-13.188,8.207a.43.43,0,0,0,.067.55l3.685,3.555a.433.433,0,0,0,.636-.029c1.154-1.39,5.556-6.033,10.021-6.033,5.829,0,12.35,3.98,26.665,8.467-14.537,6.278-34.718,12.671-54.108,12.671-4.073,0-14.748.626-19.473-3.888-1.25-1.194-2.388-3.3-3.242-6.522l-6.128-23.272a.79.79,0,0,0-.978-.559l-4.882,1.379a.791.791,0,0,0-.549.967l7.26,26.838a11.246,11.246,0,0,1-4.3,2.714,18.5,18.5,0,0,1-6.408.98q-5.5,0-7.879-2.035a6.961,6.961,0,0,1-2.375-5.579v-3.372a.774.774,0,0,0-.775-.774H214.47a.773.773,0,0,0-.774.774v5.784q0,6.41,3.693,9.8t11.686,3.392a21.36,21.36,0,0,0,8.406-1.469,14.634,14.634,0,0,0,5.768-4.41c3.252,5.644,14.972,6.633,23.5,6.633,17.133,0,30.918-3.87,42.181-7.911a8.065,8.065,0,0,0,7.891,6.4h22.4a22.3,22.3,0,0,0,8.368-1.281,9.109,9.109,0,0,0,4.6-3.921,8.979,8.979,0,0,0,4.9,4.035,22.956,22.956,0,0,0,7.765,1.167h.591a15.328,15.328,0,0,0,7.208-1.67,18.444,18.444,0,0,0,6.375-5.794,21.262,21.262,0,0,0,6.843,5.884,19.128,19.128,0,0,0,8.514,2.324q6.025.192,9.445-3.269,3.241-3.28,3.242-9.687a22.534,22.534,0,0,0-1.96-9.387m-4.825,12.741a3.973,3.973,0,0,1-2.223,1.394,11.3,11.3,0,0,1-2.526.3A14.676,14.676,0,0,1,388,144.176a15.122,15.122,0,0,1-5.127-4.976l1.659-2.864q3.77-6.784,8.217-6.785a6.233,6.233,0,0,1,4.335,1.772,12.36,12.36,0,0,1,3.016,4.371,13.442,13.442,0,0,1,1.093,5.241,5.182,5.182,0,0,1-.9,3.354" transform="translate(9.465 12)" fill="#fff"/>
      <path id="Path_4875" data-name="Path 4875" d="M104.036,217.687a15.041,15.041,0,0,1-2.684-7.491.49.49,0,0,1,.481-.54h5.64a.474.474,0,0,1,.461.4,8.952,8.952,0,0,0,3.342,6.021q2.737,1.977,8.031,1.977a13.3,13.3,0,0,0,5.627-.973,6.081,6.081,0,0,0,2.89-2.586,7.506,7.506,0,0,0,.851-3.559,7.72,7.72,0,0,0-.578-2.981,5.474,5.474,0,0,0-2.129-2.434,12.382,12.382,0,0,0-4.593-1.582l-5.536-1.034a30.094,30.094,0,0,1-7.361-2.22,10.947,10.947,0,0,1-4.655-3.9,11.529,11.529,0,0,1-1.612-6.418,10.858,10.858,0,0,1,2.13-6.874,12.781,12.781,0,0,1,5.84-4.106,23.934,23.934,0,0,1,8.334-1.37,21.184,21.184,0,0,1,9.157,1.644,11.578,11.578,0,0,1,5.019,4.349,16.7,16.7,0,0,1,2.1,5.319.489.489,0,0,1-.4.574l-5.3.882a.475.475,0,0,1-.529-.35,12.236,12.236,0,0,0-1.592-3.627,6.746,6.746,0,0,0-3.073-2.433,14.174,14.174,0,0,0-5.323-.821q-5.051,0-7.362,1.7a5.561,5.561,0,0,0-2.312,4.746,5.851,5.851,0,0,0,1.613,4.379q1.611,1.584,5.87,2.374l6.023,1.094q6.692,1.22,9.917,4.26t3.224,8.7a12.137,12.137,0,0,1-1.795,6.541,12.32,12.32,0,0,1-5.414,4.592,21.344,21.344,0,0,1-9.1,1.7,26.055,26.055,0,0,1-9-1.43,13.2,13.2,0,0,1-6.206-4.532" transform="translate(9.465 12)" fill="#fff"/>
      <path id="Path_4876" data-name="Path 4876" d="M142.973,179.618a.5.5,0,0,1,.5-.5h14.282q6.387,0,9.947,1.764a10.2,10.2,0,0,1,4.958,4.746,15.41,15.41,0,0,1,1.4,6.63,16.5,16.5,0,0,1-1.46,7,10.764,10.764,0,0,1-4.989,5.018q-3.53,1.858-9.856,1.857h-8.274v16.056a.369.369,0,0,1-.369.369h-5.771a.37.37,0,0,1-.37-.369Zm14.784,21.034a14.435,14.435,0,0,0,6.053-1,5.732,5.732,0,0,0,2.921-2.86,10.669,10.669,0,0,0,.821-4.349,9.8,9.8,0,0,0-.852-4.381,5.4,5.4,0,0,0-3.011-2.555,16.872,16.872,0,0,0-5.993-.851h-8.213v16Z" transform="translate(9.465 12)" fill="#fff"/>
      <path id="Path_4877" data-name="Path 4877" d="M180.179,179.116H208.1a.408.408,0,0,1,.408.408v4.9a.408.408,0,0,1-.408.408H180.179a.387.387,0,0,1-.387-.387V179.5a.386.386,0,0,1,.387-.386m0,37.718h29.007a.409.409,0,0,1,.4.473l-.783,4.9a.407.407,0,0,1-.4.343H180.179a.386.386,0,0,1-.387-.386v-4.946a.387.387,0,0,1,.387-.387m0-19.467h28.212a.408.408,0,0,1,.408.408v4.9a.408.408,0,0,1-.408.408H180.179a.387.387,0,0,1-.387-.387v-4.945a.387.387,0,0,1,.387-.387" transform="translate(9.465 12)" fill="#fff"/>
      <path id="Path_4878" data-name="Path 4878" d="M234.351,186.356l-13,35.973a.342.342,0,0,1-.321.225h-6.076a.343.343,0,0,1-.32-.466l16.449-42.707a.414.414,0,0,1,.386-.265h6.186a.414.414,0,0,1,.386.265l16.389,42.708a.342.342,0,0,1-.319.465h-6.382a.342.342,0,0,1-.321-.225Z" transform="translate(9.465 12)" fill="#fff"/>
      <path id="Path_4879" data-name="Path 4879" d="M260.262,179.116h6.1a.359.359,0,0,1,.359.359v19.717l19.058-19.965a.36.36,0,0,1,.26-.111h6.5a.359.359,0,0,1,.262.6l-14.644,15.639,16.453,26.647a.359.359,0,0,1-.3.548h-6.822a.359.359,0,0,1-.3-.171l-13.828-22.461-6.631,6.875v15.4a.359.359,0,0,1-.359.359h-6.1a.359.359,0,0,1-.359-.359v-42.72a.359.359,0,0,1,.359-.359" transform="translate(9.465 12)" fill="#fff"/>
      <path id="Path_4880" data-name="Path 4880" d="M300.724,216.835h29.055a.334.334,0,0,1,.33.388l-.806,5.048a.335.335,0,0,1-.33.283H300.724a.425.425,0,0,1-.425-.424v-4.872a.424.424,0,0,1,.425-.423m0-19.468h26.74a.335.335,0,0,1,.334.335v5.049a.335.335,0,0,1-.334.335h-26.74a.424.424,0,0,1-.425-.423v-4.872a.425.425,0,0,1,.425-.424m0-18.251h27.957a.335.335,0,0,1,.335.335V184.5a.335.335,0,0,1-.335.335H300.724a.425.425,0,0,1-.425-.424V179.54a.425.425,0,0,1,.425-.424" transform="translate(9.465 12)" fill="#fff"/>
      <path id="Path_4881" data-name="Path 4881" d="M336.864,179.116h14.723a26.06,26.06,0,0,1,7.97,1.034,12.3,12.3,0,0,1,4.958,2.829,10.084,10.084,0,0,1,2.525,4.046,14.883,14.883,0,0,1,.73,4.623,13.751,13.751,0,0,1-1.734,7.089,11.671,11.671,0,0,1-5.567,4.653l8.883,18.652a.358.358,0,0,1-.323.512h-6.383a.357.357,0,0,1-.325-.21l-7.935-17.433q-.73.062-1.552.091c-.547.021-1.045.031-1.49.031h-8.031V222.2a.358.358,0,0,1-.358.358h-5.733a.358.358,0,0,1-.358-.358Zm15.088,20.441a13.434,13.434,0,0,0,5.628-.942,5.5,5.5,0,0,0,2.768-2.677,9.85,9.85,0,0,0,.791-4.107,8.325,8.325,0,0,0-.852-3.924,5.51,5.51,0,0,0-2.981-2.464,16.584,16.584,0,0,0-5.962-.852h-8.031v14.966Z" transform="translate(9.465 12)" fill="#fff"/>
      <path id="Path_4882" data-name="Path 4882" d="M375.557,217.687a15.162,15.162,0,0,1-2.7-7.668.331.331,0,0,1,.324-.363h5.947a.316.316,0,0,1,.307.268,9.026,9.026,0,0,0,3.365,6.151q2.738,1.977,8.031,1.977a13.3,13.3,0,0,0,5.627-.973,6.081,6.081,0,0,0,2.89-2.586,7.507,7.507,0,0,0,.851-3.559,7.721,7.721,0,0,0-.578-2.981,5.474,5.474,0,0,0-2.129-2.434,12.382,12.382,0,0,0-4.593-1.582l-5.537-1.034a30.1,30.1,0,0,1-7.36-2.22,10.947,10.947,0,0,1-4.655-3.9,11.529,11.529,0,0,1-1.612-6.418,10.858,10.858,0,0,1,2.13-6.874,12.781,12.781,0,0,1,5.84-4.106,23.935,23.935,0,0,1,8.334-1.37,21.184,21.184,0,0,1,9.157,1.644,11.578,11.578,0,0,1,5.019,4.349,16.711,16.711,0,0,1,2.129,5.481.331.331,0,0,1-.268.385l-5.6.932a.319.319,0,0,1-.354-.236,12.358,12.358,0,0,0-1.629-3.764,6.746,6.746,0,0,0-3.073-2.433,14.173,14.173,0,0,0-5.323-.821q-5.051,0-7.362,1.7a5.561,5.561,0,0,0-2.312,4.746,5.851,5.851,0,0,0,1.613,4.379q1.611,1.584,5.87,2.374l6.023,1.094q6.691,1.22,9.917,4.26t3.224,8.7a12.137,12.137,0,0,1-1.8,6.541,12.32,12.32,0,0,1-5.414,4.592,21.344,21.344,0,0,1-9.1,1.7,26.051,26.051,0,0,1-9-1.43,13.2,13.2,0,0,1-6.206-4.532" transform="translate(9.465 12)" fill="#fff"/>
      <path id="Path_4883" data-name="Path 4883" d="M342.815,116.018h18.909a.335.335,0,0,1,.336.335V121.4a.335.335,0,0,1-.336.335H342.815a.424.424,0,0,1-.424-.424v-4.871a.424.424,0,0,1,.424-.424" transform="translate(9.465 12)" fill="#fff"/>
      <path id="Path_4884" data-name="Path 4884" d="M175.306,106.97h18.909a.335.335,0,0,1,.336.335v5.049a.335.335,0,0,1-.336.335H175.306a.424.424,0,0,1-.424-.424v-4.871a.424.424,0,0,1,.424-.424" transform="translate(9.465 12)" fill="#fff"/>
      <path id="Path_4885" data-name="Path 4885" d="M175.306,96.691h8.354a.335.335,0,0,1,.335.335v5.049a.335.335,0,0,1-.335.335h-8.354a.424.424,0,0,1-.424-.424V97.115a.424.424,0,0,1,.424-.424" transform="translate(9.465 12)" fill="#fff"/>
      <path id="Path_4886" data-name="Path 4886" d="M119.057,113h8.354a.335.335,0,0,1,.335.335v5.049a.335.335,0,0,1-.335.335h-8.354a.424.424,0,0,1-.424-.424v-4.871a.424.424,0,0,1,.424-.424" transform="translate(9.465 12)" fill="#fff"/>
    </g>
  </g>
</svg>
