<svg xmlns="http://www.w3.org/2000/svg" xmlns:xlink="http://www.w3.org/1999/xlink" width="46" height="46" viewBox="0 0 46 46">
  <defs>
    <clipPath id="clip-view">
      <rect width="46" height="46"/>
    </clipPath>
  </defs>
  <g id="view" clip-path="url(#clip-view)">
    <g id="Group_581" data-name="Group 581" transform="translate(0.009)">
      <g id="eye_1_" data-name="eye (1)" transform="translate(10.996 14)">
        <path id="Path_5642" data-name="Path 5642" d="M23.271,9.419C21.72,6.893,18.192,2.655,12,2.655S2.28,6.893.729,9.419a4.908,4.908,0,0,0,0,5.162C2.28,17.107,5.808,21.345,12,21.345s9.72-4.238,11.271-6.764A4.908,4.908,0,0,0,23.271,9.419Zm-1.7,4.115C20.234,15.7,17.219,19.345,12,19.345S3.766,15.7,2.434,13.534a2.918,2.918,0,0,1,0-3.068C3.766,8.3,6.781,4.655,12,4.655s8.234,3.641,9.566,5.811A2.918,2.918,0,0,1,21.566,13.534Z" transform="translate(0.004 -2.655)" fill="#464973"/>
        <path id="Path_5643" data-name="Path 5643" d="M12,7a5,5,0,1,0,5,5,5,5,0,0,0-5-5Zm0,8a3,3,0,1,1,3-3A3,3,0,0,1,12,15Z" transform="translate(0.004 -2.655)" fill="#464973"/>
      </g>
    </g>
  </g>
</svg>
