<svg xmlns="http://www.w3.org/2000/svg" xmlns:xlink="http://www.w3.org/1999/xlink" width="106" height="106" viewBox="0 0 106 106">
  <defs>
    <clipPath id="clip-Artboard_14">
      <rect width="106" height="106"/>
    </clipPath>
  </defs>
  <g id="Artboard_14" data-name="Artboard – 14" clip-path="url(#clip-Artboard_14)">
    <g id="md-photos" transform="translate(18.124 18.118)">
      <path id="Path_5644" data-name="Path 5644" d="M57.529,55.461V14.444a6.585,6.585,0,0,0-6.569-6.569H9.944a6.585,6.585,0,0,0-6.569,6.569V55.474a6.585,6.585,0,0,0,6.569,6.569H50.974a6.605,6.605,0,0,0,6.553-6.584ZM20.19,37.414l6.969,9.846L37.421,32.491l13.54,19.693H9.944Z" transform="translate(0 5.346)" fill="#dce5f4"/>
      <path id="Path_5645" data-name="Path 5645" d="M55.461,3.375H14.444A6.585,6.585,0,0,0,7.875,9.944v.816h40.2a6.585,6.585,0,0,1,6.569,6.569v40.2h.816a6.585,6.585,0,0,0,6.569-6.569V9.944a6.585,6.585,0,0,0-6.569-6.569Z" transform="translate(5.346 0)" fill="#dce5f4"/>
    </g>
  </g>
</svg>
