<?xml version="1.0" encoding="utf-8"?>
<!-- Generator: Adobe Illustrator 27.5.0, SVG Export Plug-In . SVG Version: 6.00 Build 0)  -->
<svg version="1.1" id="Layer_1" xmlns="http://www.w3.org/2000/svg" xmlns:xlink="http://www.w3.org/1999/xlink" x="0px" y="0px"
	 viewBox="0 0 180 147" style="enable-background:new 0 0 180 147;" xml:space="preserve">
<style type="text/css">
	.st0{fill:#FFFFFF;}
</style>
<g>
	<path class="st0" d="M173.14,26.18H128.4l-6.92-19.79c-1.22-3.46-5.16-6.29-8.78-6.29H67.03c-3.62,0-7.58,2.83-8.78,6.29
		l-6.92,19.79H6.58c-3.62,0-6.58,3-6.58,6.67v107.47c0,3.67,2.96,6.67,6.58,6.67h166.57c3.63,0,6.59-3,6.59-6.67V32.86
		C179.74,29.19,176.77,26.18,173.14,26.18z M89.86,127.76c-22.42,0-40.59-18.43-40.59-41.17c0-22.74,18.17-41.17,40.59-41.17
		c22.42,0,40.59,18.43,40.59,41.17C130.45,109.33,112.28,127.76,89.86,127.76z M167.68,54.66h-33.62V39.08h33.62V54.66z"/>
	<path class="st0" d="M89.86,58.55c-15.27,0-27.65,12.55-27.65,28.05c0,15.49,12.38,28.04,27.65,28.04
		c15.27,0,27.65-12.56,27.65-28.04C117.52,71.1,105.14,58.55,89.86,58.55z"/>
</g>
</svg>
