<?xml version="1.0" encoding="UTF-8"?>
<svg id="Layer_1" data-name="Layer 1" xmlns="http://www.w3.org/2000/svg" viewBox="0 0 176.19 137.87">
  <defs>
    <style>
      .cls-1 {
        fill: #fff;
      }
    </style>
  </defs>
  <path class="cls-1" d="m155.77,0H20.42C9.16,0,0,9.16,0,20.42v97.03c0,11.26,9.16,20.42,20.42,20.42h135.35c11.26,0,20.42-9.16,20.42-20.42V20.42c0-11.26-9.16-20.42-20.42-20.42Zm6.29,117.45c0,3.47-2.83,6.28-6.29,6.28H20.42c-3.47,0-6.29-2.81-6.29-6.28V20.42c0-3.47,2.82-6.29,6.29-6.29h135.35c3.46,0,6.29,2.82,6.29,6.29v97.03Z"/>
  <path class="cls-1" d="m37.63,49.42c0-4.96-.09-9.24-.32-13.3h.18c1.44,3.56,3.47,7.48,5.28,10.73l6.49,11.72h7.21v-30.38h-6.31v8.84c0,4.59.13,8.7.54,12.71h-.09c-1.39-3.42-3.15-7.21-4.96-10.41l-6.31-11.13h-8.02v30.38h6.31v-9.15Z"/>
  <polygon class="cls-1" points="69.31 45.73 80.49 45.73 80.49 40.14 69.31 40.14 69.31 33.83 81.18 33.83 81.18 28.2 62.47 28.2 62.47 58.57 81.8 58.57 81.8 52.94 69.31 52.94 69.31 45.73"/>
  <path class="cls-1" d="m102.13,45.5c.72-3.07,1.22-5.95,1.76-9.38h.09c.36,3.47.86,6.31,1.44,9.38l2.57,13.07h7.44l7.84-30.38h-6.98l-2.48,12.39c-.63,3.65-1.31,7.21-1.76,10.59h-.08c-.45-3.38-.95-6.63-1.63-10.19l-2.44-12.8h-7.3l-2.57,12.39c-.76,3.79-1.49,7.44-1.98,10.73h-.09c-.5-3.06-1.13-6.99-1.8-10.64l-2.3-12.48h-7.34l7.21,30.38h7.52l2.89-13.07Z"/>
  <path class="cls-1" d="m138.28,40.55c-3.97-1.49-5.63-2.34-5.63-4.28,0-1.53,1.44-2.93,4.41-2.93s5.14.86,6.32,1.44l1.53-5.5c-1.81-.86-4.28-1.53-7.75-1.53-7.12,0-11.49,3.92-11.49,9.1,0,4.42,3.33,7.21,8.38,9.02,3.65,1.26,5.1,2.34,5.1,4.23s-1.67,3.29-4.83,3.29c-2.92,0-5.81-.94-7.61-1.89l-1.4,5.63c1.71.95,5.14,1.89,8.61,1.89,8.33,0,12.21-4.33,12.21-9.42,0-4.28-2.48-7.07-7.84-9.06Z"/>
  <rect class="cls-1" x="31.32" y="72.39" width="48.85" height="9.42"/>
  <rect class="cls-1" x="31.32" y="88.42" width="48.85" height="9.42"/>
  <rect class="cls-1" x="31.32" y="104.44" width="48.85" height="9.42"/>
  <rect class="cls-1" x="96.01" y="72.39" width="48.85" height="9.42"/>
  <rect class="cls-1" x="96.01" y="88.42" width="48.85" height="9.42"/>
  <rect class="cls-1" x="96.01" y="104.44" width="31.89" height="9.42"/>
</svg>