<?xml version="1.0" encoding="UTF-8"?>
<svg id="Layer_1" data-name="Layer 1" xmlns="http://www.w3.org/2000/svg" viewBox="0 0 39.13 113.79">
  <defs>
    <style>
      .cls-1 {
        fill: none;
        stroke: #fff;
        stroke-miterlimit: 10;
        stroke-width: 3px;
      }
    </style>
  </defs>
  <path class="cls-1" d="m19.92,76.39s-10.63-3.22-7.68-12.9c2.38-7.83,12.07-11.36,18.92-6.86,5.52,3.62,7.55,11.19,5.94,17.38-2.03,7.79-10.47,11.75-18.12,10.85-10.77-1.27-17.83-11.67-17.46-22.08.25-7.26,4-12.34,8.49-17.63,6.53-7.68,16.48-15.74,18.91-25.96,1.41-5.91-1.06-12.98-4.78-17.64-.27-.34-2.83,1.72-3,1.87-2.34,2.07-3.84,4.9-4.97,7.77-3.31,8.39-2.01,16.29,0,24.72,1.45,6.12,2.91,12.25,4.36,18.37,2.66,11.21,5.29,22.44,8.25,33.58,2.09,7.86,4.07,17.51-4.04,22.7-2.61,1.66-5.96,2.25-8.88,1.23-2.76-.97-5.46-3.77-5.42-6.84.06-4.09,4.6-6.72,8.35-5.8,1.6.39,3.23,1.51,3.53,3.22"/>
</svg>