<?xml version="1.0" encoding="UTF-8"?>
<svg id="Layer_1" data-name="Layer 1" xmlns="http://www.w3.org/2000/svg" viewBox="0 0 146 140.93">
  <defs>
    <style>
      .cls-1 {
        fill: #fff;
      }
    </style>
  </defs>
  <path class="cls-1" d="m82.83,114.05c-3.26.08-6.56.12-9.83.12s-6.57-.04-9.83-.12v10.09l-31.37,6.06v10.73h82.4v-10.73l-31.37-6.06v-10.09Z"/>
  <path class="cls-1" d="m73,0C36.91,0,0,4.9,0,4.9v99.77s36.91,4.9,73,4.9,73-4.9,73-4.9V4.9S109.08,0,73,0Zm59.11,93.31H13.88V16.26h118.22v77.05Z"/>
  <polygon class="cls-1" points="80.91 55.26 87.52 55.26 87.52 31.52 95.52 31.52 95.52 25.95 73 25.95 73 31.52 80.91 31.52 80.91 55.26"/>
  <path class="cls-1" d="m114.92,55.26l9.86-29.31h-7.05l-3.74,12.53c-1.01,3.35-1.92,6.83-2.65,10.35h-.13c-.7-3.65-1.61-6.95-2.61-10.48l-3.56-12.4h-7.26l9.38,29.31h7.75Z"/>
</svg>