<?xml version="1.0" encoding="UTF-8"?>
<svg id="Layer_1" data-name="Layer 1" xmlns="http://www.w3.org/2000/svg" viewBox="0 0 146.23 147.32">
  <defs>
    <style>
      .cls-1 {
        fill: #fff;
      }
    </style>
  </defs>
  <path class="cls-1" d="m146.23,24.53V4.88c0-2.7-2.19-4.88-4.88-4.88h-20.15c-2.7,0-4.88,2.19-4.88,4.88v15.26H29.91V4.88c0-2.7-2.19-4.88-4.88-4.88H4.88C2.19,0,0,2.19,0,4.88v137.56c0,2.7,2.19,4.88,4.88,4.88h20.14c2.7,0,4.88-2.19,4.88-4.88v-15.26h86.41v15.26c0,2.7,2.19,4.88,4.88,4.88h20.15c2.7,0,4.88-2.19,4.88-4.88v-19.65c0-.08,0-.16,0-.24h0c0-.09,0-.17,0-.25V25.03c0-.08,0-.16,0-.24h0c0-.09,0-.17,0-.25ZM20.15,137.56h-10.38v-9.88h10.38v9.88Zm0-19.65h-10.38v-9.88h10.38v9.88Zm0-19.65h-10.38v-9.89h10.38v9.89Zm0-19.65h-10.38v-9.89h10.38v9.89Zm0-19.65h-10.38v-9.88h10.38v9.88Zm0-19.65h-10.38v-9.88h10.38v9.88Zm0-19.65h-10.38v-9.89h10.38v9.89Zm96.17,97.76H29.91V29.91h86.41v87.5Zm20.15,20.15h-10.38v-9.88h10.38v9.88Zm0-20.15h-10.38v-9.39h10.38v9.39Zm0-19.15h-10.38v-9.89h10.38v9.89Zm0-19.65h-10.38v-9.89h10.38v9.89Zm0-19.65h-10.38v-9.88h10.38v9.88Zm0-19.65h-10.38v-9.88h10.38v9.88Zm0-19.65h-10.38v-9.89h10.38v9.89Z"/>
  <rect class="cls-1" x="126.08" y="29.42" width="10.38" height=".49"/>
  <path class="cls-1" d="m146.23,24.53v.49c0-.08,0-.16,0-.24h0c0-.09,0-.17,0-.25Z"/>
  <path class="cls-1" d="m146.23,122.29v.49c0-.08,0-.16,0-.24h0c0-.09,0-.17,0-.25Z"/>
  <path class="cls-1" d="m126.08,29.42v.49h10.38v-.49h-10.38Z"/>
  <path class="cls-1" d="m146.22,24.78h0c0,.09,0,.17,0,.25v-.49c0,.08,0,.16,0,.24Z"/>
  <path class="cls-1" d="m146.22,122.54h0c0,.08,0,.17,0,.25v-.49c0,.08,0,.16,0,.25Z"/>
</svg>