<?xml version="1.0" encoding="UTF-8"?>
<svg id="Layer_1" data-name="Layer 1" xmlns="http://www.w3.org/2000/svg" viewBox="0 0 98.21 132.92">
  <defs>
    <style>
      .cls-1 {
        fill: #fff;
      }
    </style>
  </defs>
  <path class="cls-1" d="m67.93,115.06h-11.58v-10.32c-2.36.36-4.78.55-7.25.55s-4.87-.19-7.24-.55v10.32h-11.58c-6.4,0-11.59,5.19-11.59,11.58v6.27h60.82v-6.27c0-6.4-5.19-11.58-11.59-11.58Z"/>
  <path class="cls-1" d="m73.58,24.47c0-13.49-10.98-24.47-24.47-24.47s-24.47,10.97-24.47,24.47v11.6h48.94v-11.6Z"/>
  <path class="cls-1" d="m49.1,81.8c13.49,0,24.47-10.98,24.47-24.47v-11.61H24.64v11.61c0,13.49,10.97,24.47,24.47,24.47Z"/>
  <path class="cls-1" d="m92.42,47.66h-11.76v9.68c0,17.4-14.16,31.55-31.56,31.55s-31.54-14.15-31.54-31.55v-9.68H5.79c-3.2,0-5.79,2.59-5.79,5.79s2.59,5.79,5.79,5.79h1.19c1,22.37,19.51,40.26,42.12,40.26s41.12-17.89,42.12-40.26h1.19c3.2,0,5.79-2.59,5.79-5.79s-2.59-5.79-5.79-5.79Z"/>
</svg>