<svg xmlns="http://www.w3.org/2000/svg" xmlns:xlink="http://www.w3.org/1999/xlink" width="46" height="46" viewBox="0 0 46 46">
  <defs>
    <clipPath id="clip-edit">
      <rect width="46" height="46"/>
    </clipPath>
  </defs>
  <g id="edit" clip-path="url(#clip-edit)">
    <g id="Group_582" data-name="Group 582" transform="translate(-0.088)">
      <path id="pen-field" d="M22.75,9.693A5,5,0,0,1,24,13v5a5.006,5.006,0,0,1-5,5H5a5.006,5.006,0,0,1-5-5V13A5.006,5.006,0,0,1,5,8H9a1,1,0,0,1,0,2H5a3,3,0,0,0-3,3v5a3,3,0,0,0,3,3H19a3,3,0,0,0,3-3V13a3,3,0,0,0-.75-1.984,1,1,0,0,1,1.5-1.324ZM5,15.5A1.5,1.5,0,1,0,6.5,14,1.5,1.5,0,0,0,5,15.5ZM11.5,17A1.5,1.5,0,1,0,10,15.5,1.5,1.5,0,0,0,11.5,17Zm.5-6V9.414a3.971,3.971,0,0,1,1.172-2.828L18.879.879a3,3,0,1,1,4.242,4.243l-5.707,5.707A3.975,3.975,0,0,1,14.586,12H13a1,1,0,0,1-1-1Zm2-1h.586A1.986,1.986,0,0,0,16,9.414l5.707-5.707a1,1,0,0,0-1.414-1.414L14.586,8A2.017,2.017,0,0,0,14,9.414V10Z" transform="translate(11 11.999)" fill="#464973"/>
    </g>
  </g>
</svg>
