<svg xmlns="http://www.w3.org/2000/svg" xmlns:xlink="http://www.w3.org/1999/xlink" width="46" height="46" viewBox="0 0 46 46">
  <defs>
    <clipPath id="clip-remove">
      <rect width="46" height="46"/>
    </clipPath>
  </defs>
  <g id="remove" clip-path="url(#clip-remove)">
    <g id="Group_583" data-name="Group 583">
      <g id="trash_3_" data-name="trash (3)" transform="translate(13 11)">
        <path id="Path_5639" data-name="Path 5639" d="M21,4H17.9A5.009,5.009,0,0,0,13,0H11A5.009,5.009,0,0,0,6.1,4H3A1,1,0,0,0,3,6H4V19a5.006,5.006,0,0,0,5,5h6a5.006,5.006,0,0,0,5-5V6h1a1,1,0,0,0,0-2ZM11,2h2a3.006,3.006,0,0,1,2.829,2H8.171A3.006,3.006,0,0,1,11,2Zm7,17a3,3,0,0,1-3,3H9a3,3,0,0,1-3-3V6H18Z" transform="translate(-2)" fill="#464973"/>
        <path id="Path_5640" data-name="Path 5640" d="M10,18a1,1,0,0,0,1-1V11a1,1,0,0,0-2,0v6A1,1,0,0,0,10,18Z" transform="translate(-2)" fill="#464973"/>
        <path id="Path_5641" data-name="Path 5641" d="M14,18a1,1,0,0,0,1-1V11a1,1,0,0,0-2,0v6A1,1,0,0,0,14,18Z" transform="translate(-2)" fill="#464973"/>
      </g>
    </g>
  </g>
</svg>
