<svg xmlns="http://www.w3.org/2000/svg" xmlns:xlink="http://www.w3.org/1999/xlink" width="75" height="75" viewBox="0 0 116 116">
  <defs>
    <clipPath id="clip-video">
      <rect width="116" height="116"/>
    </clipPath>
  </defs>
  <g id="video" clip-path="url(#clip-video)">
    <g id="Iconly_Bulk_Play" data-name="Iconly/Bulk/Play" transform="translate(7.124 7.378)">
      <g id="Play">
        <path id="Fill_1" data-name="Fill 1" d="M102.747,51.4A51.373,51.373,0,1,1,51.373,0a51.435,51.435,0,0,1,51.373,51.4" fill="#fff" opacity="0.4"/>
        <path id="Fill_4" data-name="Fill 4" d="M35.961,20.574a5.922,5.922,0,0,1-1.226,3.645,19.836,19.836,0,0,1-1.43,1.6l-.306.3C28.708,30.667,18.032,37.508,12.617,39.7a17.851,17.851,0,0,1-4.751,1.4h-.2a6.444,6.444,0,0,1-5.67-3.391A28.06,28.06,0,0,1,.766,33.164,90.566,90.566,0,0,1,0,20.524,78.154,78.154,0,0,1,.868,7.491a32.784,32.784,0,0,1,.919-3.645A6.552,6.552,0,0,1,4.648.749,7.306,7.306,0,0,1,7.867,0a17.688,17.688,0,0,1,4.24,1.149c5.721,2.2,16.653,9.388,20.841,13.783.715.7,1.481,1.553,1.686,1.748a6.214,6.214,0,0,1,1.328,3.9" transform="translate(35.961 30.824)" fill="#fff"/>
      </g>
    </g>
  </g>
</svg>
