<svg xmlns="http://www.w3.org/2000/svg" xmlns:xlink="http://www.w3.org/1999/xlink" width="97" height="97" viewBox="0 0 97 97">
  <defs>
    <clipPath id="clip-path">
      <rect id="Rectangle_409" data-name="Rectangle 409" width="65.106" height="67.26" fill="none"/>
    </clipPath>
    <clipPath id="clip-_1">
      <rect width="97" height="97"/>
    </clipPath>
  </defs>
  <g id="_1" data-name="1" clip-path="url(#clip-_1)">
    <g id="Group_545" data-name="Group 545" transform="translate(16 15)" opacity="0.7">
      <g id="Group_544" data-name="Group 544">
        <g id="Group_543" data-name="Group 543" clip-path="url(#clip-path)">
          <path id="Path_5046" data-name="Path 5046" d="M186.061,33.636V65.592c0,1.388-.277,1.667-1.658,1.667H151.3c-1.077,0-1.082,0-1.077-1.055.006-1.326-.119-1.2,1.2-1.2q15.706,0,31.414,0c.968,0,.969,0,.969-.95V3.724c0-.136-.009-.272,0-.406.031-.457-.157-.545-.573-.4-1.3.449-2.609.875-3.914,1.309l-25.871,8.62c-.149.049-.3.1-.45.146-1.055.3-1.685-.155-1.689-1.251q-.012-3.521,0-7.041a2.357,2.357,0,0,0-.813-1.925,2.069,2.069,0,0,0-3.271.908,3.659,3.659,0,0,0-.158,1.2q0,27.861,0,55.721a1.754,1.754,0,0,0,.427,1.223,3.286,3.286,0,0,1-2.547,5.429q-7.956.006-15.911,0c-1.065,0-1.421-.357-1.422-1.425,0-2.776-.01-5.552,0-8.327a3.3,3.3,0,1,1,6.59-.013c.009.858.017,1.716,0,2.573-.01.427.13.614.581.6,1.038-.021,2.076-.014,3.114,0,.355,0,.553-.1.548-.5-.024-1.714-.026-3.429-.055-5.143a5.272,5.272,0,0,0-5.059-5.057,28.06,28.06,0,0,0-5.136.047,5.288,5.288,0,0,0-4.816,5.5c-.018,3.588,0,7.176-.005,10.764,0,.975,0,.983-.954.977-1.471-.01-1.3.155-1.307-1.3q-.01-5.349,0-10.7a7.27,7.27,0,0,1,3-6.005c.523-.4.482-.568-.006-.955a7.165,7.165,0,0,1-2.722-4.9,14.963,14.963,0,0,1-.295-4.9,7.322,7.322,0,0,1,7.314-6.006q5.958-.009,11.916,0c1.291,0,1.7.538,1.384,1.805-.043.175-.079.352-.135.524a18.39,18.39,0,0,0-.868,6.8,7.562,7.562,0,0,1-3.172,6.874c-.316.235-.289.374.008.6a7.687,7.687,0,0,1,3.179,6.878c-.051,1.352.005,2.708-.016,4.062-.007.462.141.649.621.636.97-.026,1.941-.023,2.911,0,.447.01.617-.169.582-.6-.018-.224,0-.451,0-.677q0-27.42,0-54.84A4.33,4.33,0,0,1,148.268.085,4.766,4.766,0,0,1,149.275,0Q166.912,0,184.549,0c1.185,0,1.511.334,1.511,1.543q0,16.046,0,32.092M177.594,2.357c-.013-.032-.026-.064-.04-.1h-23.9c-.045,0-.091,0-.136,0-.352-.026-.45.1-.294.435a5.089,5.089,0,0,1,.34,2.254c-.013,1.489,0,2.979,0,4.468,0,.946,0,.947.871.658L169.456,5.07l8.138-2.713M134.173,39.094c-1.239,0-2.479.012-3.718-.006-.434-.007-.617.145-.6.588.024.5.009.991,0,1.487a1.085,1.085,0,0,1-.988,1.17c-.622.1-1.121.361-1.13,1.034s.483.946,1.105,1.057a1.091,1.091,0,0,1,1.013,1.214c.013.473.02.947,0,1.42-.018.417.109.626.57.613.855-.024,1.713.022,2.568-.016a5.338,5.338,0,0,0,5.367-4.96c.129-.988.021-1.981.075-2.969.029-.529-.209-.649-.684-.64-1.194.023-2.389.008-3.583.008m-.648-4.333c-1.647,0-3.295-.02-4.941,0a5.016,5.016,0,0,0-5.276,5.019,12.651,12.651,0,0,0,.7,4.59,4.761,4.761,0,0,0,2.93,2.911c.2.076.5.326.626-.022a.658.658,0,0,0-.2-.851c-.172-.107-.357-.195-.523-.31a3.235,3.235,0,0,1-.217-5.226,2.042,2.042,0,0,0,.98-2.171,3.054,3.054,0,0,1,0-.406c.009-1.118.345-1.465,1.449-1.466q4.062-.006,8.123,0c1.538,0,1.517-.005,1.855-1.493.115-.505-.063-.587-.494-.584-1.669.012-3.339.005-5.009.005M135.745,65c1.534,0,3.067,0,4.6,0,1.622-.005,1.289.134,1.356-1.307.027-.591-.146-.783-.751-.776-2.548.029-5.1.016-7.644.01-.983,0-1.359-.373-1.37-1.339-.009-.857,0-1.714,0-2.571,0-.54.013-1.084-.04-1.62a.987.987,0,0,0-.732-.884.908.908,0,0,0-.933.237,1.394,1.394,0,0,0-.364,1.121c0,2.142.02,4.284-.01,6.426-.009.585.214.722.752.714,1.713-.026,3.427-.01,5.14-.01m8.95,0c.766-.008,1.285-.435,1.284-1.036s-.521-1.026-1.262-1.031c-.571-.005-.811.288-.747,1.068.038.449-.044,1.078.725,1" transform="translate(-120.956)" fill="#6379bf"/>
          <path id="Path_5047" data-name="Path 5047" d="M174.227,17.406c1.554-1.148,3.058-2.254,4.557-3.367,1.184-.879,1.155-.861,2.061.27.419.523.422.808-.155,1.22-1.983,1.414-3.914,2.9-5.892,4.322a1.445,1.445,0,0,0-.665,1.353c.034,1.894.016,3.789.01,5.684,0,.981-.378,1.368-1.341,1.369q-4.67.01-9.339,0c-.933,0-1.323-.388-1.325-1.314q-.011-4.7,0-9.406c0-.885.4-1.281,1.286-1.283,3.136-.008,6.271.007,9.407-.011a1.319,1.319,0,0,1,1.4,1.163m-2.349,4.645c-.564.409-1.015.732-1.461,1.061-1.678,1.24-1.947,1.189-3.013-.579-.855-1.418-.846-1.4.579-2.234.432-.253.68-.217.911.231.108.21.228.61.579.371.765-.519,1.495-1.089,2.232-1.647a.463.463,0,0,0,.141-.554c-.078-.214-.288-.187-.465-.187-2.166,0-4.333,0-6.5,0-.342,0-.488.141-.487.485q.007,3.249,0,6.5c0,.327.107.506.466.505q3.284-.008,6.566,0c.26,0,.449-.081.45-.376,0-1.142,0-2.284,0-3.57" transform="translate(-120.956)" fill="#6379bf"/>
          <path id="Path_5048" data-name="Path 5048" d="M174.247,33.643c1.74-1.287,3.438-2.517,5.1-3.791.467-.358.716-.349,1.07.142.921,1.278.944,1.263-.313,2.194-1.775,1.316-3.541,2.647-5.337,3.934a1.388,1.388,0,0,0-.636,1.3c.032,1.894.016,3.789.01,5.684,0,1.027-.366,1.4-1.377,1.4q-4.635.009-9.271,0c-.976,0-1.356-.379-1.358-1.352q-.007-4.668,0-9.338c0-.928.391-1.313,1.324-1.315q4.6-.01,9.2,0c.966,0,1.2.167,1.581,1.143m-2.367,4.646c-.6.436-1.048.766-1.5,1.1-1.638,1.212-1.961,1.146-3.016-.621-.794-1.329-.782-1.31.51-2.1.477-.293.8-.34,1.073.223.106.221.266.468.574.243q1.092-.8,2.171-1.615a.478.478,0,0,0,.16-.55c-.069-.224-.274-.2-.452-.2-2.166,0-4.332,0-6.5,0-.327,0-.508.106-.507.465q.008,3.282,0,6.565c0,.307.127.458.443.457q3.282,0,6.565,0c.293,0,.477-.1.476-.424,0-1.123,0-2.245,0-3.534" transform="translate(-120.956)" fill="#6379bf"/>
          <path id="Path_5049" data-name="Path 5049" d="M174.237,49.9c1.742-1.288,3.442-2.514,5.1-3.793.514-.4.764-.3,1.113.182.887,1.234.908,1.221-.335,2.142-1.812,1.343-3.619,2.693-5.444,4.018a1.174,1.174,0,0,0-.536,1.075c.022,1.94.013,3.88.008,5.82,0,1.055-.366,1.412-1.434,1.414q-4.568,0-9.136,0c-1.072,0-1.436-.357-1.437-1.409q-.007-4.6,0-9.2c0-1.024.367-1.394,1.381-1.4q4.6-.008,9.2,0c.913,0,1.164.187,1.515,1.15m-2.357,4.639c-.593.434-1.046.764-1.5,1.1-1.641,1.213-1.964,1.148-3.018-.618-.794-1.33-.783-1.312.507-2.1.474-.291.8-.347,1.073.22.125.262.306.459.633.212.684-.516,1.377-1.021,2.063-1.534a.51.51,0,0,0,.211-.6c-.084-.258-.323-.206-.517-.207-2.121,0-4.242,0-6.363-.006-.384,0-.583.1-.58.533q.018,3.216,0,6.43c0,.368.13.533.513.531,2.166-.008,4.332-.005,6.5,0,.292,0,.478-.093.477-.422,0-1.123,0-2.246,0-3.536" transform="translate(-120.956)" fill="#6379bf"/>
          <path id="Path_5050" data-name="Path 5050" d="M154.6,26.093c-1.578,0-3.156-.018-4.733.01-.553.01-.756-.168-.742-.732.047-1.8-.2-1.525,1.481-1.534,2.885-.016,5.77.01,8.655-.016.612,0,.832.174.812.8-.056,1.71.189,1.45-1.483,1.468-1.33.014-2.66,0-3.99,0" transform="translate(-120.956)" fill="#6379bf"/>
          <path id="Path_5051" data-name="Path 5051" d="M154.6,42.343c-1.578,0-3.156-.018-4.733.01-.555.01-.754-.172-.74-.734.046-1.8-.2-1.523,1.482-1.532,2.886-.016,5.771.01,8.656-.016.614-.006.83.179.809.8-.055,1.708.19,1.448-1.484,1.466-1.33.014-2.66,0-3.99,0" transform="translate(-120.956)" fill="#6379bf"/>
          <path id="Path_5052" data-name="Path 5052" d="M154.565,58.592c-1.578,0-3.156-.016-4.734.009-.525.008-.717-.165-.7-.7.045-1.855-.208-1.555,1.515-1.565,2.863-.018,5.726.012,8.588-.018.648-.007.868.183.844.839-.059,1.659.186,1.416-1.452,1.432-1.352.013-2.7,0-4.057,0" transform="translate(-120.956)" fill="#6379bf"/>
          <path id="Path_5053" data-name="Path 5053" d="M156.755,21.759c-.879,0-1.758-.02-2.635.008-.507.016-.667-.187-.657-.675.038-1.895-.215-1.566,1.556-1.589,1.441-.019,2.884.01,4.325-.01.5-.007.741.113.727.674-.046,1.9.211,1.557-1.559,1.591-.585.012-1.171,0-1.757,0" transform="translate(-120.956)" fill="#6379bf"/>
          <path id="Path_5054" data-name="Path 5054" d="M156.771,38.008c-.9,0-1.8-.012-2.7.005-.427.009-.609-.146-.6-.587.03-2.033-.229-1.644,1.605-1.672,1.441-.023,2.883.009,4.325-.012.488-.007.684.153.673.659-.038,1.915.21,1.572-1.54,1.607-.585.012-1.171,0-1.757,0" transform="translate(-120.956)" fill="#6379bf"/>
          <path id="Path_5055" data-name="Path 5055" d="M156.7,54.257c-.879,0-1.757-.013-2.636.005-.433.009-.6-.158-.6-.594.03-2.023-.229-1.637,1.612-1.665,1.441-.023,2.883.01,4.325-.012.5-.007.677.167.666.665-.038,1.907.212,1.567-1.546,1.6-.608.012-1.217,0-1.825,0Z" transform="translate(-120.956)" fill="#6379bf"/>
        </g>
      </g>
    </g>
  </g>
</svg>
