<svg xmlns="http://www.w3.org/2000/svg" xmlns:xlink="http://www.w3.org/1999/xlink" width="97" height="97" viewBox="0 0 97 97">
  <defs>
    <clipPath id="clip-path">
      <rect id="Rectangle_412" data-name="Rectangle 412" width="54.57" height="63.436" fill="none"/>
    </clipPath>
    <clipPath id="clip-_3">
      <rect width="97" height="97"/>
    </clipPath>
  </defs>
  <g id="_3" data-name="3" clip-path="url(#clip-_3)">
    <g id="Group_562" data-name="Group 562" transform="translate(21 17)" opacity="0.7">
      <g id="Group_553" data-name="Group 553">
        <g id="Group_552" data-name="Group 552" clip-path="url(#clip-path)">
          <path id="Path_5080" data-name="Path 5080" d="M1295.458,0a18.609,18.609,0,0,1,2.976.81,12.387,12.387,0,0,1,7.837,11.508c.007,2.662.055,5.325-.011,7.985a12.109,12.109,0,0,1-6.714,10.915,1.089,1.089,0,0,0-.713,1.185,8.9,8.9,0,0,1,0,1.608,1.069,1.069,0,0,0,.6,1.1c.945.588,1.878,1.2,2.782,1.851a5.725,5.725,0,0,0,2.65,1.029,10.506,10.506,0,0,1,8.828,10.14c.011,1.568.015,3.137,0,4.7-.005.446.122.651.595.617a8.974,8.974,0,0,1,1.238,0c.436.027.579-.152.57-.578-.021-1.031-.006-2.063-.006-3.095,0-3.136-.01-6.272.01-9.408a1.505,1.505,0,0,0-.5-1.19q-1.776-1.724-3.5-3.5a1.056,1.056,0,0,0-1.185-.351,3.764,3.764,0,1,1,2.689-2.784,1.257,1.257,0,0,0,.4,1.4c1.354,1.3,2.653,2.657,4,3.967a2.04,2.04,0,0,1,.66,1.588c-.019,4.457,0,8.914-.02,13.37a1.059,1.059,0,0,0,.6,1.076,3.55,3.55,0,0,1,1.886,3.2q.014,2.415,0,4.828c-.005,1.014-.461,1.469-1.483,1.469q-10.029.006-20.056,0c-.9,0-1.433-.478-1.446-1.255-.012-.808.527-1.292,1.459-1.305.206,0,.413,0,.619,0h17.518c.826,0,.827,0,.828-.8,0-.867.012-1.734-.005-2.6a1.316,1.316,0,0,0-1.46-1.461c-.144,0-.289,0-.433,0h-45.62c-.206,0-.414-.009-.619.009a1.25,1.25,0,0,0-1.287,1.309c-.035,1.03,0,2.063-.016,3.094-.007.478.3.454.623.454q2.756,0,5.509,0,6.315,0,12.628,0a3.012,3.012,0,0,1,.8.066,1.279,1.279,0,0,1-.185,2.473,4.233,4.233,0,0,1-.618.021h-19.622c-1.307,0-1.69-.386-1.691-1.7,0-1.527-.009-3.054,0-4.581a3.679,3.679,0,0,1,3.687-3.71c.97-.011,1.94,0,2.91,0,.827,0,.828,0,.829-.8,0-1.527-.008-3.054,0-4.581A10.51,10.51,0,0,1,1282.77,38a5.86,5.86,0,0,0,2.814-1.1c.876-.652,1.8-1.24,2.726-1.822a1,1,0,0,0,.552-1,9.581,9.581,0,0,0-.071-2.275c-.229-.721-1.186-.781-1.781-1.2a12.322,12.322,0,0,1-5.582-10.413c-.023-2.6-.009-5.2,0-7.8A12.408,12.408,0,0,1,1291.881.089c.121-.02.239-.058.358-.088Zm-7.479,17.377h-3.434c-.278,0-.555-.011-.556.392a18.335,18.335,0,0,0,.333,4.8,9.681,9.681,0,0,0,5.927,6.76c.961.4,1.164.685,1.166,1.722,0,1.093,0,2.187,0,3.281a.978.978,0,0,0,.262.788q.936.9,1.839,1.838c.238.247.415.264.661.008.6-.625,1.216-1.235,1.837-1.839a.921.921,0,0,0,.271-.724c-.009-1.031,0-2.063,0-3.094,0-1.386.107-1.526,1.384-2.073a9.72,9.72,0,0,0,5.2-5.134c.93-2.067.859-4.258.845-6.445,0-.384-.288-.389-.549-.449a8.656,8.656,0,0,1-5.18-3.361c-.34-.461-.513-.43-.836.008a8.586,8.586,0,0,1-5.182,3.354,22.135,22.135,0,0,1-3.98.17m4.588,24.182c-1.193.789-2.269,1.508-3.353,2.215a1.376,1.376,0,0,1-2.04-.2c-.865-.855-1.744-1.7-2.573-2.588a1.377,1.377,0,0,0-1.319-.456,8.06,8.06,0,0,0-6.628,6.912c-.169,1.813-.043,3.627-.1,5.439-.014.436.154.569.578.569q7.425-.015,14.849,0c.545,0,.593-.253.592-.683q-.015-5.228-.005-10.456Zm2.622.024a2.382,2.382,0,0,0-.056.317c0,3.671,0,7.342-.01,11.013,0,.47.224.535.612.534q7.393-.01,14.788,0c.508,0,.631-.184.623-.653-.023-1.423.016-2.846-.017-4.269a8.248,8.248,0,0,0-.575-3.019,7.942,7.942,0,0,0-5.977-4.951,1.408,1.408,0,0,0-1.5.438c-.715.8-1.505,1.527-2.263,2.285-1.073,1.072-1.412,1.108-2.661.276-.972-.646-1.943-1.294-2.967-1.976m-11.2-28.507c0,.448.024.76-.005,1.067-.048.5.129.689.656.681,1.753-.028,3.507.013,5.26-.017a6.184,6.184,0,0,0,5.52-3.067,7.134,7.134,0,0,0,.866-3.128,1.237,1.237,0,0,1,1.291-1.222,1.251,1.251,0,0,1,1.27,1.247c.035.307.074.614.108.921a6.144,6.144,0,0,0,4.164,4.932c.451.133.61.022.6-.441-.026-.885.015-1.77-.095-2.655a9.425,9.425,0,0,0-6.174-8.136,9.368,9.368,0,0,0-10.242,1.9,9.8,9.8,0,0,0-3.215,7.92m4.557,27.969a.77.77,0,0,0,.149-.062c.941-.624,1.883-1.247,2.819-1.878.254-.171.132-.344-.029-.5-.407-.406-.817-.81-1.219-1.22a.421.421,0,0,0-.6-.087c-.9.606-1.812,1.206-2.717,1.809-.213.142-.261.3-.061.5.438.433.872.871,1.31,1.3a.38.38,0,0,0,.348.138m9.22-3.873a1.013,1.013,0,0,0-.226.123c-.471.461-.944.922-1.4,1.4-.226.235-.015.365.158.482.856.574,1.72,1.137,2.57,1.721a.5.5,0,0,0,.75-.084c.351-.377.714-.746,1.095-1.092.327-.3.26-.488-.084-.709-.833-.535-1.649-1.1-2.475-1.641a3.661,3.661,0,0,0-.385-.2m11.015-5.522a1.164,1.164,0,1,0,1.194-1.12,1.226,1.226,0,0,0-1.194,1.12" transform="translate(-1266.56)" fill="#6379bf"/>
          <path id="Path_5081" data-name="Path 5081" d="M1293.836,63.43a1.277,1.277,0,1,1,1.289-1.28,1.244,1.244,0,0,1-1.289,1.28" transform="translate(-1266.56)" fill="#6379bf"/>
          <path id="Path_5082" data-name="Path 5082" d="M1301.185,49.685a1.279,1.279,0,1,1,1.367-1.2,1.253,1.253,0,0,1-1.367,1.2" transform="translate(-1266.56)" fill="#6379bf"/>
        </g>
      </g>
    </g>
  </g>
</svg>
