<svg xmlns="http://www.w3.org/2000/svg" xmlns:xlink="http://www.w3.org/1999/xlink" width="97" height="97" viewBox="0 0 97 97">
  <defs>
    <clipPath id="clip-path">
      <rect id="Rectangle_411" data-name="Rectangle 411" width="55.752" height="55.782" fill="none"/>
    </clipPath>
    <clipPath id="clip-_4">
      <rect width="97" height="97"/>
    </clipPath>
  </defs>
  <g id="_4" data-name="4" clip-path="url(#clip-_4)">
    <g id="Group_551" data-name="Group 551" transform="translate(21 21)" opacity="0.7">
      <g id="Group_550" data-name="Group 550">
        <g id="Group_549" data-name="Group 549" clip-path="url(#clip-path)">
          <path id="Path_5071" data-name="Path 5071" d="M153.705,300.784c.375.053.754.087,1.124.163a1.135,1.135,0,0,1-.269,2.254c-.632-.022-1.264-.093-1.9-.124a25.574,25.574,0,0,0-19.857,43.105,24.482,24.482,0,0,0,15.317,7.838,24.908,24.908,0,0,0,20.765-6.7,24.588,24.588,0,0,0,7.781-14.481,25.213,25.213,0,0,0-4.308-18.957.96.96,0,0,0-.1-.126.642.642,0,0,0-.128-.069c-.03.313-.038.614-.09.907a1.118,1.118,0,0,1-1.2,1.013,1.1,1.1,0,0,1-1.057-1.159c-.015-1.36-.017-2.72,0-4.08a1.067,1.067,0,0,1,1.13-1.134q2.067-.027,4.134,0a1.083,1.083,0,0,1,1.128,1.134,1.109,1.109,0,0,1-1.165,1.107c-.469.014-.94,0-1.4,0-.1.2.056.292.132.394a27.917,27.917,0,0,1-33.7,42.252,27.676,27.676,0,0,1-13.552-12.918,26.779,26.779,0,0,1-2.845-9.809,3.725,3.725,0,0,0-.074-.37v-4.787c.115-.805.208-1.614.35-2.415a28,28,0,0,1,20.886-22.32,41.95,41.95,0,0,1,4.223-.724Z" transform="translate(-123.567 -300.784)" fill="#6379bf"/>
          <path id="Path_5072" data-name="Path 5072" d="M169.871,328.607A18.422,18.422,0,0,0,154.4,310.318a18.147,18.147,0,0,0-12.352,2.329c-.172.1-.34.21-.518.3a1.131,1.131,0,0,1-1.564-.4,1.112,1.112,0,0,1,.413-1.556,16.461,16.461,0,0,1,3.95-1.925c8.52-2.752,16.01-1,22.291,5.372a19.334,19.334,0,0,1,5.509,12.256,20.287,20.287,0,0,1-6.472,17.126,19.917,19.917,0,0,1-12.31,5.53,20.82,20.82,0,0,1-19.667-31.607,1.219,1.219,0,0,1,1.323-.736,1.139,1.139,0,0,1,.695,1.8,17.865,17.865,0,0,0-2.039,4.612c-1.7,6.535-.473,12.451,3.982,17.567a17.52,17.52,0,0,0,12.083,6.084,18.008,18.008,0,0,0,14.328-4.889,18.225,18.225,0,0,0,5.816-11.831,16.8,16.8,0,0,0,.008-1.739" transform="translate(-123.567 -300.784)" fill="#6379bf"/>
          <path id="Path_5073" data-name="Path 5073" d="M147.593,328.66a3.874,3.874,0,0,1,.289-1.373.6.6,0,0,0-.179-.761q-1.647-1.619-3.267-3.267a1.134,1.134,0,0,1,1.035-1.939,1.507,1.507,0,0,1,.717.467c1.038,1.039,2.083,2.069,3.108,3.12a.635.635,0,0,0,.808.18,3.3,3.3,0,0,1,2.594-.013.709.709,0,0,0,.9-.215q3.367-3.4,6.759-6.771a1.673,1.673,0,0,1,.8-.531,1.071,1.071,0,0,1,1.144.448,1.026,1.026,0,0,1,.041,1.266,3.314,3.314,0,0,1-.465.528c-2.19,2.192-4.375,4.39-6.58,6.566a.927.927,0,0,0-.278,1.123,3.519,3.519,0,0,1-1.051,3.954,3.578,3.578,0,0,1-4.143.633,3.777,3.777,0,0,1-2.23-3.415m3.824-1.516a1.494,1.494,0,1,0,1.5,1.476,1.489,1.489,0,0,0-1.5-1.476" transform="translate(-123.567 -300.784)" fill="#6379bf"/>
          <path id="Path_5074" data-name="Path 5074" d="M152.527,343.46a6.449,6.449,0,0,1-.006.811,1.129,1.129,0,0,1-1.071.975,1.109,1.109,0,0,1-1.144-.879,4.543,4.543,0,0,1-.005-1.829,1.131,1.131,0,0,1,2.226.111c.027.267,0,.54,0,.811h0" transform="translate(-123.567 -300.784)" fill="#6379bf"/>
          <path id="Path_5075" data-name="Path 5075" d="M150.306,313.839c0-.253-.018-.507,0-.757a1.13,1.13,0,0,1,1.056-1.05,1.105,1.105,0,0,1,1.175.9,4.575,4.575,0,0,1,.005,1.776,1.131,1.131,0,0,1-2.235-.114c-.023-.25,0-.5,0-.757" transform="translate(-123.567 -300.784)" fill="#6379bf"/>
          <path id="Path_5076" data-name="Path 5076" d="M136.615,329.751c-.253,0-.507.019-.757,0a1.133,1.133,0,0,1-1.045-1.061,1.108,1.108,0,0,1,.909-1.17,4.752,4.752,0,0,1,1.723-.011,1.13,1.13,0,0,1-.127,2.246c-.233.016-.468,0-.7,0v0" transform="translate(-123.567 -300.784)" fill="#6379bf"/>
          <path id="Path_5077" data-name="Path 5077" d="M166.207,329.85a8.625,8.625,0,0,1-.909-.1,1.084,1.084,0,0,1-.858-1.153,1.061,1.061,0,0,1,.963-1.06,10.961,10.961,0,0,1,1.621,0,1.125,1.125,0,0,1,.1,2.219,9.112,9.112,0,0,1-.918.1" transform="translate(-123.567 -300.784)" fill="#6379bf"/>
          <path id="Path_5078" data-name="Path 5078" d="M158.954,301.826a1.1,1.1,0,0,1,1.125,1.136,1.132,1.132,0,0,1-2.263-.006,1.111,1.111,0,0,1,1.138-1.13" transform="translate(-123.567 -300.784)" fill="#6379bf"/>
          <path id="Path_5079" data-name="Path 5079" d="M138.62,314.732a1.082,1.082,0,0,1-1.148,1.1,1.093,1.093,0,0,1-1.1-1.106,1.109,1.109,0,0,1,1.126-1.137,1.1,1.1,0,0,1,1.118,1.14" transform="translate(-123.567 -300.784)" fill="#6379bf"/>
        </g>
      </g>
    </g>
  </g>
</svg>
