<svg xmlns="http://www.w3.org/2000/svg" xmlns:xlink="http://www.w3.org/1999/xlink" width="97" height="97" viewBox="0 0 97 97">
  <defs>
    <clipPath id="clip-path">
      <rect id="Rectangle_414" data-name="Rectangle 414" width="68.599" height="68.619" fill="none"/>
    </clipPath>
    <clipPath id="clip-_5">
      <rect width="97" height="97"/>
    </clipPath>
  </defs>
  <g id="_5" data-name="5" clip-path="url(#clip-_5)">
    <g id="Group_563" data-name="Group 563" transform="translate(19.519 14)" opacity="0.7">
      <g id="Group_558" data-name="Group 558">
        <g id="Group_557" data-name="Group 557" clip-path="url(#clip-path)">
          <path id="Path_5083" data-name="Path 5083" d="M750.005,376.644a18.773,18.773,0,0,1-5.842-1.828,17.244,17.244,0,0,1-3.22-28.46c.064-.057.119-.127.172-.184-.073-.2-.23-.138-.346-.138-1.651-.005-3.3.01-4.953-.012a.628.628,0,0,0-.738.567,6.358,6.358,0,0,1-4.45,4.9.681.681,0,0,0-.53.784c.018,1.138.012,2.276,0,3.414-.008.962-.529,1.557-1.356,1.572-.854.016-1.4-.594-1.411-1.584-.008-1.116-.022-2.232.006-3.346a.756.756,0,0,0-.607-.867,6.308,6.308,0,0,1-4.345-4.76c-.119-.5-.314-.694-.847-.688-2.521.026-5.043-.006-7.563.016a10.673,10.673,0,0,0-10.556,9.844c-.2,2.539-.042,5.083-.094,7.625-.008.364.136.543.509.526.2-.009.4,0,.6,0h21.551a2.989,2.989,0,0,1,1.124.12,1.391,1.391,0,0,1,.013,2.618,2.485,2.485,0,0,1-.922.126q-11.914,0-23.828,0c-1.335,0-1.821-.489-1.822-1.81,0-2.923-.014-5.846.005-8.768A13.532,13.532,0,0,1,711.857,343.4a17.135,17.135,0,0,1,2.467-.145c2.388,0,4.775-.017,7.162.01.593.007.726-.205.773-.773a2.6,2.6,0,0,0-1.293-2.668,12.593,12.593,0,0,1-5.523-10.605c-.053-2.61-.022-5.221-.008-7.831a13.3,13.3,0,0,1,26.448-2.014c.457,3.309.163,6.636.177,9.955a10.872,10.872,0,0,1-.157,1.93,12.891,12.891,0,0,1-5.929,8.99,1.452,1.452,0,0,0-.788,1.445c.065,1.8-.225,1.542,1.575,1.557,1.584.013,3.168-.007,4.752.005a36.6,36.6,0,0,0,7.653-.633c9.038-1.829,18.136,4.585,19.757,13.7.07.394.151.786.227,1.179v4.016c-.033.151-.074.3-.1.454a17.07,17.07,0,0,1-9.373,12.952,19.059,19.059,0,0,1-5.655,1.723Zm2.066-31.467a14.354,14.354,0,1,0,14.316,14.34,14.28,14.28,0,0,0-14.316-14.34m-29.31-20.03c-1.643,0-2.758,0-3.872,0-.317,0-.593.028-.588.444a34.569,34.569,0,0,0,.083,5.009,10.2,10.2,0,0,0,9,8.826,10.378,10.378,0,0,0,11.636-8.14,32.532,32.532,0,0,0,.236-5.666c.012-.4-.218-.468-.553-.479a8.342,8.342,0,0,1-5.242-2.074.8.8,0,0,0-1.113-.065,14.447,14.447,0,0,1-2.665,1.232,17.441,17.441,0,0,1-6.918.914m-4.465-4.078v.4c0,.9,0,.9.867.9,1.093,0,2.185-.008,3.277,0a21.123,21.123,0,0,0,4.589-.332,13.7,13.7,0,0,0,6.749-3.609,1.481,1.481,0,0,1,1.436-.515,1.41,1.41,0,0,1,.531,2.507c-.4.394-.387.609.071.908a6.369,6.369,0,0,0,3.012,1c.349.03.442-.136.421-.427-.056-.777-.065-1.563-.19-2.329a10.455,10.455,0,0,0-20.763,1.491m6.721,22.819c0,.468-.014.936,0,1.4a3.691,3.691,0,0,0,3.277,3.62,3.587,3.587,0,0,0,4.039-3.052,23.37,23.37,0,0,0,.08-3.6c.009-.406-.267-.325-.512-.268a13.332,13.332,0,0,1-6.411-.041c-.384-.1-.482.065-.479.4.006.512,0,1.025,0,1.537" transform="translate(-700.552 -308.025)" fill="#6379bf"/>
          <path id="Path_5084" data-name="Path 5084" d="M715.353,358.307c-1.091,0-2.183.016-3.274-.005a1.49,1.49,0,0,1-1.606-1.13,1.394,1.394,0,0,1,1.468-1.708q3.441-.034,6.883,0a1.416,1.416,0,1,1,0,2.828c-1.156.042-2.316.01-3.474.01Z" transform="translate(-700.552 -308.025)" fill="#6379bf"/>
          <path id="Path_5085" data-name="Path 5085" d="M733.41,365.441a1.412,1.412,0,1,1-1.433-1.39,1.467,1.467,0,0,1,1.433,1.39" transform="translate(-700.552 -308.025)" fill="#6379bf"/>
          <path id="Path_5086" data-name="Path 5086" d="M758.332,359.492a1.377,1.377,0,0,1-1.408,1.392c-1.2.022-2.41.031-3.614.005a1.484,1.484,0,0,0-1.177.487c-2.024,2.046-4.07,4.071-6.1,6.107a1.6,1.6,0,0,1-1.277.62,1.366,1.366,0,0,1-1.217-.813,1.317,1.317,0,0,1,.225-1.5c.355-.4.746-.767,1.125-1.146,1.957-1.956,3.924-3.9,5.867-5.87a2.048,2.048,0,0,1,1.6-.662c1.517.027,3.035,0,4.552.011a1.354,1.354,0,0,1,1.426,1.366" transform="translate(-700.552 -308.025)" fill="#6379bf"/>
          <path id="Path_5087" data-name="Path 5087" d="M762.65,360.978c-1.167,0-1.851-.552-1.841-1.473.01-1,.684-1.422,2.218-1.376a1.4,1.4,0,0,1,1.508,1.491c-.052.874-.729,1.362-1.885,1.358" transform="translate(-700.552 -308.025)" fill="#6379bf"/>
          <path id="Path_5088" data-name="Path 5088" d="M753.378,370.15a4.961,4.961,0,0,1-.006.732,1.367,1.367,0,0,1-1.414,1.155,1.345,1.345,0,0,1-1.321-1.252,9.536,9.536,0,0,1-.01-1,1.353,1.353,0,0,1,1.365-1.481,1.37,1.37,0,0,1,1.4,1.513c0,.112,0,.223,0,.334Z" transform="translate(-700.552 -308.025)" fill="#6379bf"/>
          <path id="Path_5089" data-name="Path 5089" d="M753.4,348.872c0,1.287-.529,1.924-1.529,1.843l-.066-.005c-.92-.114-1.284-.856-1.173-2.385a1.333,1.333,0,0,1,1.386-1.314c.937,0,1.382.6,1.382,1.861" transform="translate(-700.552 -308.025)" fill="#6379bf"/>
          <path id="Path_5090" data-name="Path 5090" d="M741.356,360.893c-1.284,0-1.922-.533-1.837-1.534,0-.022,0-.044.006-.066.118-.934.928-1.318,2.456-1.164a1.347,1.347,0,0,1,1.238,1.522c-.072.851-.66,1.242-1.863,1.242" transform="translate(-700.552 -308.025)" fill="#6379bf"/>
        </g>
      </g>
    </g>
  </g>
</svg>
