<svg xmlns="http://www.w3.org/2000/svg" xmlns:xlink="http://www.w3.org/1999/xlink" width="97" height="97" viewBox="0 0 97 97">
  <defs>
    <clipPath id="clip-path">
      <rect id="Rectangle_410" data-name="Rectangle 410" width="61.08" height="61.195" fill="none"/>
    </clipPath>
    <clipPath id="clip-_6">
      <rect width="97" height="97"/>
    </clipPath>
  </defs>
  <g id="_6" data-name="6" clip-path="url(#clip-_6)">
    <g id="Group_548" data-name="Group 548" transform="translate(18 18)" opacity="0.7">
      <g id="Group_547" data-name="Group 547">
        <g id="Group_546" data-name="Group 546" clip-path="url(#clip-path)">
          <path id="Path_5056" data-name="Path 5056" d="M1312.483,326.454a1.157,1.157,0,0,1-.759-.164,1.111,1.111,0,0,0-1.575.137,1.074,1.074,0,0,1-.326.2,1.386,1.386,0,0,0-1.006,1.394,1.994,1.994,0,0,1-2.07,1.847c-1.079.025-2.159.028-3.238,0a2.032,2.032,0,0,1-2.063-1.858,1.31,1.31,0,0,0-.939-1.318.911.911,0,0,1-.327-.192,1.429,1.429,0,0,0-1.765-.189,1.971,1.971,0,0,1-2.543-.825q-.873-1.4-1.678-2.843a2.029,2.029,0,0,1,.8-2.891.836.836,0,0,0,.485-.92,3.327,3.327,0,0,1-.006-.7,1.581,1.581,0,0,0-.765-1.737,1.931,1.931,0,0,1-.5-2.619q.77-1.424,1.622-2.8a2,2,0,0,1,2.847-.784.865.865,0,0,0,1.138-.082.97.97,0,0,1,.269-.167,1.959,1.959,0,0,0,1.375-1.792,1.85,1.85,0,0,1,1.985-1.6c1.058-.012,2.117-.01,3.175,0a2,2,0,0,1,2.172,1.932,1.152,1.152,0,0,0,.839,1.166.691.691,0,0,1,.22.126,1.7,1.7,0,0,0,2.1.26,1.833,1.833,0,0,1,2.321.793c.634,1,1.236,2.024,1.777,3.077a1.991,1.991,0,0,1-.752,2.668,1.041,1.041,0,0,0-.567,1.142,1.91,1.91,0,0,1,.006.507,1.561,1.561,0,0,0,.793,1.787,1.849,1.849,0,0,1,.549,2.4c-.561,1.089-1.184,2.149-1.824,3.195a1.913,1.913,0,0,1-1.78.857m-14.8-7.017a2.173,2.173,0,0,1-1.183,1.922c-.337.176-.412.349-.194.689.365.569.7,1.157,1.022,1.754.2.374.414.476.8.249a2.141,2.141,0,0,1,2.542.239,7.177,7.177,0,0,0,1.409.853,2.212,2.212,0,0,1,1.451,2.113c.005.385.164.525.538.516.676-.016,1.354-.02,2.031,0,.415.013.558-.154.555-.561a2.126,2.126,0,0,1,1.349-2.041,7.227,7.227,0,0,0,1.42-.835,2.161,2.161,0,0,1,2.644-.273c.368.219.575.1.759-.241.3-.558.606-1.117.95-1.649.247-.383.23-.613-.193-.855a2.119,2.119,0,0,1-1.083-2.136,8.8,8.8,0,0,0,.018-1.647,2.265,2.265,0,0,1,1.183-2.515c.336-.18.3-.4.126-.675-.343-.558-.689-1.118-.99-1.7-.221-.427-.455-.453-.853-.223a2.033,2.033,0,0,1-2.426-.215,6.484,6.484,0,0,0-1.405-.857,2.187,2.187,0,0,1-1.5-2.2c.008-.352-.138-.5-.49-.489-.635.013-1.271.026-1.9-.005-.485-.023-.726.087-.744.647a2.12,2.12,0,0,1-1.336,1.924,7.355,7.355,0,0,0-1.365.8,2.25,2.25,0,0,1-2.754.3.426.426,0,0,0-.675.2c-.336.587-.672,1.177-1.044,1.742-.242.368-.2.578.2.788a1.951,1.951,0,0,1,1.1,1.868,11.41,11.41,0,0,0,.04,2.508" transform="translate(-1274.5 -306.542)" fill="#6379bf"/>
          <path id="Path_5057" data-name="Path 5057" d="M1292.892,357.4q0,4.413,0,8.827c0,1.073-.322,1.388-1.411,1.389-3.641,0-7.282-.008-10.923.009a1.832,1.832,0,0,1-1.408-.581q-2.033-2.054-4.107-4.065a1.669,1.669,0,0,1-.541-1.291c.014-4.382.007-8.764.01-13.146,0-1,.334-1.339,1.329-1.34q7.875,0,15.75,0c.952,0,1.3.35,1.3,1.306q.008,4.444,0,8.891m-2.121.06c0-2.5-.011-4.995.009-7.493,0-.5-.157-.655-.656-.654q-6.413.024-12.825,0c-.539,0-.681.183-.678.7q.029,4.953,0,9.9c0,.5.1.686.656.558,1.214-.281,2.443-.5,3.668-.737,1.032-.2,1.642.41,1.442,1.444-.236,1.224-.452,2.454-.733,3.669-.129.555.06.657.556.654q3.936-.022,7.873,0c.517,0,.7-.145.695-.68-.024-2.455-.01-4.91-.01-7.365m-12.718,5.061,1.56,1.7c.1-.544.184-1.082.3-1.613.088-.385-.054-.443-.392-.369-.533.117-1.071.208-1.472.284" transform="translate(-1274.5 -306.542)" fill="#6379bf"/>
          <path id="Path_5058" data-name="Path 5058" d="M1332.533,352.139a7.289,7.289,0,0,1-1.548,4.668,10.24,10.24,0,0,0-2.3,6.564,4.355,4.355,0,0,1-8.586,1.035,6.673,6.673,0,0,1-.174-1.571,8.766,8.766,0,0,0-1.978-5.637,8.02,8.02,0,0,1,5.022-12.991,8.14,8.14,0,0,1,9.567,7.932m-7.117,6.4c0,.381-.017.763.006,1.143.017.283-.152.714.365.716.446,0,.982.219,1.174-.5a12.255,12.255,0,0,1,2.246-4.3,5.456,5.456,0,0,0,.995-4.8,5.872,5.872,0,0,0-5.327-4.45,5.76,5.76,0,0,0-5.776,2.892,5.431,5.431,0,0,0,.342,6.265,13.317,13.317,0,0,1,2.328,4.472.53.53,0,0,0,.581.449c.935.026.944.033.945-.926a5.6,5.6,0,0,1,.007-.888,2.868,2.868,0,0,0-1.257-3.005c-.457-.325-.485-.624-.037-1.048,1.008-.953.995-.987,1.985-.033.278.267.444.271.724,0,.992-.955.98-.922,1.984.03.444.42.415.7-.03,1.051a2.652,2.652,0,0,0-1.255,2.936m-1.06,4c-.55,0-1.1.008-1.649,0-.339-.007-.5.126-.516.478a2.186,2.186,0,0,0,.992,2.185,2.129,2.129,0,0,0,2.341,0,2.2,2.2,0,0,0,1-2.185c-.018-.352-.176-.486-.515-.479-.55.011-1.1,0-1.649,0" transform="translate(-1274.5 -306.542)" fill="#6379bf"/>
          <path id="Path_5059" data-name="Path 5059" d="M1279.58,337.707a25.254,25.254,0,0,1,4.29-14.673c.3-.45.305-.71-.159-1.026-.576-.392-1.115-.841-1.65-1.289a1.1,1.1,0,0,1,.344-2.027c2.262-.773,4.536-1.513,6.813-2.239a1.063,1.063,0,0,1,1.448,1.1c-.154,2.383-.332,4.765-.559,7.142-.108,1.126-1,1.466-1.907.786-.593-.444-1.186-.89-1.745-1.375-.368-.319-.564-.276-.83.13a23.386,23.386,0,0,0-3.537,8.9,22.611,22.611,0,0,0,.495,10.111c.16.568.02.786-.534.933-1.542.408-1.316.69-1.737-1a21.879,21.879,0,0,1-.732-5.467m5.289-17.56c1.012.794,1.916,1.509,2.828,2.216.24.187.386.116.405-.2.055-.906.109-1.812.171-2.717.018-.271-.047-.423-.352-.322-.975.324-1.948.65-3.052,1.018" transform="translate(-1274.5 -306.542)" fill="#6379bf"/>
          <path id="Path_5060" data-name="Path 5060" d="M1334.551,335.08a1.36,1.36,0,0,1-.31.816c-1.244,1.866-2.483,3.736-3.736,5.6-.661.981-1.454.989-2.109.017-1.254-1.86-2.49-3.732-3.735-5.6a1.256,1.256,0,0,1-.225-1.36,1.193,1.193,0,0,1,1.247-.567c.656.015,1.312,0,1.968.006.365.006.47-.118.409-.5a23.1,23.1,0,0,0-7.763-14.033c-.4-.349-.823-.664-1.234-1-.1-.079-.272-.158-.278-.246-.047-.708.572-1.066.886-1.584.207-.342.444-.072.634.07a25.056,25.056,0,0,1,8,10,24.03,24.03,0,0,1,1.925,6.684c.06.448.248.618.7.606.846-.023,1.694-.021,2.539,0a1.044,1.044,0,0,1,1.084,1.082m-5.089,1.031c-.528,0-1.057.005-1.585,0-.346-.005-.425.109-.224.407q.762,1.13,1.509,2.27c.2.314.368.281.559-.011.486-.743.975-1.484,1.476-2.216.268-.39.094-.46-.277-.451-.486.011-.972,0-1.458,0" transform="translate(-1274.5 -306.542)" fill="#6379bf"/>
          <path id="Path_5061" data-name="Path 5061" d="M1305.033,360.414a23.446,23.446,0,0,0,9.2-1.9c.458-.2.663-.1.866.347.645,1.429.66,1.416-.786,1.99a26.2,26.2,0,0,1-9.109,1.761,11.2,11.2,0,0,1-1.266-.079.536.536,0,0,0-.632.471c-.231.858-.485,1.709-.721,2.566a1.178,1.178,0,0,1-.886.976,1.222,1.222,0,0,1-1.207-.544c-1.469-1.724-2.944-3.443-4.407-5.172-.738-.873-.548-1.684.495-2.023,2.192-.715,4.4-1.4,6.593-2.1a1.172,1.172,0,0,1,1.2.143,1.051,1.051,0,0,1,.348,1.146c-.158.571-.32,1.14-.479,1.711-.193.693-.186.7.539.7h.254m-2.951-1.082c-1.138.378-2.15.713-3.16,1.051-.221.073-.245.2-.091.375q.952,1.1,1.895,2.211c.142.165.258.137.315-.057.338-1.146.668-2.294,1.041-3.58" transform="translate(-1274.5 -306.542)" fill="#6379bf"/>
          <path id="Path_5062" data-name="Path 5062" d="M1318.62,345.276a2.109,2.109,0,0,1-.2.264c-.278.288-.572.562-.844.853-.238.255-.427.239-.689.007-1.253-1.108-1.258-1.31.03-2.384a.711.711,0,0,1,.316-.181,3.909,3.909,0,0,1,1.385,1.441" transform="translate(-1274.5 -306.542)" fill="#6379bf"/>
          <path id="Path_5063" data-name="Path 5063" d="M1333.885,346.249a3.518,3.518,0,0,1-.757.852c-.643.656-.653.657-1.306-.008-.97-.988-.976-.728-.011-1.71.666-.677.678-.678,1.35.013.258.265.594.473.724.853" transform="translate(-1274.5 -306.542)" fill="#6379bf"/>
          <path id="Path_5064" data-name="Path 5064" d="M1325.416,342.206c0,1.019,0,1.019-1.1,1.019-1.019,0-1.019,0-1.018-1.1,0-1.02,0-1.02,1.166-1.019.956,0,.956,0,.955,1.1" transform="translate(-1274.5 -306.542)" fill="#6379bf"/>
          <path id="Path_5065" data-name="Path 5065" d="M1315.252,351.345c0,1.028,0,1.031-1.094,1.026-1.148,0-1.02.083-1.026-1.156-.005-.966,0-.966,1.156-.964.964,0,.964,0,.964,1.094" transform="translate(-1274.5 -306.542)" fill="#6379bf"/>
          <path id="Path_5066" data-name="Path 5066" d="M1335.58,351.313c0,1.059,0,1.059-1.063,1.059s-1.059,0-1.059-1.063,0-1.06,1.126-1.059c1,0,1,0,1,1.063" transform="translate(-1274.5 -306.542)" fill="#6379bf"/>
          <path id="Path_5067" data-name="Path 5067" d="M1305.06,313.025a5.126,5.126,0,1,1-5.14,5.073,5.052,5.052,0,0,1,5.14-5.073m.031,8.084a2.98,2.98,0,0,0,2.943-2.963,2.989,2.989,0,0,0-5.978-.035,2.975,2.975,0,0,0,3.035,3" transform="translate(-1274.5 -306.542)" fill="#6379bf"/>
          <path id="Path_5068" data-name="Path 5068" d="M1283.7,353.387c-1.5,0-3-.012-4.505.007-.46.006-.64-.147-.63-.62.036-1.794-.2-1.492,1.449-1.5,2.686-.018,5.372.009,8.057-.015.573-.005.782.16.763.751-.053,1.605.177,1.362-1.391,1.378-1.247.013-2.495,0-3.743,0" transform="translate(-1274.5 -306.542)" fill="#6379bf"/>
          <path id="Path_5069" data-name="Path 5069" d="M1283.7,358.469c-1.481,0-2.961-.017-4.441.009-.522.01-.706-.164-.692-.69.042-1.686-.184-1.427,1.391-1.436,2.708-.014,5.415.01,8.121-.015.578-.005.776.172.758.756-.051,1.6.179,1.357-1.394,1.374-1.247.013-2.495,0-3.743,0" transform="translate(-1274.5 -306.542)" fill="#6379bf"/>
          <path id="Path_5070" data-name="Path 5070" d="M1286.75,363.548c-.528,0-1.056-.008-1.584,0-.347.007-.495-.141-.492-.49.016-2.009-.221-1.586,1.506-1.628.7-.017,1.394.011,2.091-.006.406-.01.565.149.559.557-.028,1.9.215,1.523-1.51,1.567-.19.005-.38,0-.57,0Z" transform="translate(-1274.5 -306.542)" fill="#6379bf"/>
        </g>
      </g>
    </g>
  </g>
</svg>
