<svg xmlns="http://www.w3.org/2000/svg" xmlns:xlink="http://www.w3.org/1999/xlink" width="135" height="82" viewBox="0 0 135 82">
  <defs>
    <clipPath id="clip-cgc-logo">
      <rect width="135" height="82"/>
    </clipPath>
  </defs>
  <g id="cgc-logo" clip-path="url(#clip-cgc-logo)">
    <g id="Group_540" data-name="Group 540" transform="translate(5686.681 -1625.858)">
      <path id="Path_4933" data-name="Path 4933" d="M428.523,63.034l1.223.642a.212.212,0,0,0,.294-.1l1.2-2.736a.213.213,0,0,0-.124-.286l-1.3-.461q-5.685-2.009-11.26-4.382a.213.213,0,0,0-.288.26c.157.5.312.992.469,1.489a.212.212,0,0,0,.093.119q4.762,2.862,9.7,5.458" transform="translate(-6026 1625)" fill="#fff"/>
      <path id="Path_4934" data-name="Path 4934" d="M439.6,59.7l1.349.311a.215.215,0,0,0,.259-.169l.545-2.833a.214.214,0,0,0-.178-.253l-1.367-.211a198.755,198.755,0,0,1-23-4.947.214.214,0,0,0-.262.272c.133.412.265.822.4,1.234a.224.224,0,0,0,.134.138A201.553,201.553,0,0,0,439.6,59.7" transform="translate(-6026 1625)" fill="#fff"/>
      <path id="Path_4935" data-name="Path 4935" d="M423.99,51q4.137.773,8.305,1.375,8.337,1.206,16.77,1.737l1.332.084a.27.27,0,0,0,.283-.257l.1-2.748a.266.266,0,0,0-.265-.276l-1.332-.013q-8.31-.084-16.613-.847-4.146-.379-8.281-.93t-8.243-1.268a.266.266,0,0,0-.3.346c.112.342.227.683.338,1.025a.27.27,0,0,0,.2.177q3.837.87,7.709,1.595" transform="translate(-6026 1625)" fill="#fff"/>
      <path id="Path_4936" data-name="Path 4936" d="M425.262,46.917q5.277.486,10.581.7a203.917,203.917,0,0,0,21.237-.255l1.306-.083a.292.292,0,0,0,.271-.317l-.229-2.673a.292.292,0,0,0-.322-.266l-1.3.139a201.848,201.848,0,0,1-20.916,1.12q-5.246.006-10.493-.254c-3.5-.175-6.988-.448-10.476-.8l-.064-.006a.291.291,0,0,0-.306.382c.1.309.208.618.311.925a.293.293,0,0,0,.237.2c3.375.474,6.764.878,10.164,1.19" transform="translate(-6026 1625)" fill="#fff"/>
      <path id="Path_4937" data-name="Path 4937" d="M461.535,39.925l1.291-.217a.294.294,0,0,0,.239-.342l-.495-2.632a.291.291,0,0,0-.345-.232l-1.282.265a198.844,198.844,0,0,1-47.207,3.951l-.087,0a.291.291,0,0,0-.287.386q.154.447.3.9a.3.3,0,0,0,.257.2,201.065,201.065,0,0,0,47.611-2.269" transform="translate(-6026 1625)" fill="#fff"/>
      <path id="Path_4938" data-name="Path 4938" d="M441.19,24.171l1.229-.443a.294.294,0,0,0,.173-.382l-.985-2.515a.292.292,0,0,0-.386-.161l-1.2.51a194.3,194.3,0,0,1-29.82,9.882l-.012,0a.292.292,0,0,0-.2.383c.1.284.219.616.3.833a.291.291,0,0,0,.328.19,198.127,198.127,0,0,0,30.582-8.3" transform="translate(-6026 1625)" fill="#fff"/>
      <path id="Path_4939" data-name="Path 4939" d="M433.844,20.346l1.19-.535a.292.292,0,0,0,.144-.4l-1.2-2.439a.289.289,0,0,0-.4-.127,193.829,193.829,0,0,1-24.546,11.133.289.289,0,0,0-.172.373c.1.276.2.554.3.83a.291.291,0,0,0,.358.181,194.12,194.12,0,0,0,24.321-9.021" transform="translate(-6026 1625)" fill="#fff"/>
      <path id="Path_4940" data-name="Path 4940" d="M428.952,15.811l1.128-.655a.294.294,0,0,0,.1-.409l-1.46-2.3a.291.291,0,0,0-.412-.083A191.194,191.194,0,0,1,407.828,24.8a.29.29,0,0,0-.137.358c.1.28.2.558.307.837a.293.293,0,0,0,.389.169,191.778,191.778,0,0,0,20.565-10.349" transform="translate(-6026 1625)" fill="#fff"/>
      <path id="Path_4941" data-name="Path 4941" d="M421.216,13.521l1.054-.762a.294.294,0,0,0,.058-.42L420.6,10.185a.291.291,0,0,0-.423-.033C415.8,14.1,411.253,17.861,406.513,21.4a.291.291,0,0,0-.1.335c.108.287.215.577.323.864a.294.294,0,0,0,.424.149q7.213-4.289,14.055-9.224" transform="translate(-6026 1625)" fill="#fff"/>
      <path id="Path_4942" data-name="Path 4942" d="M415.386,10.482l.922-.912a.292.292,0,0,0-.012-.427l-2.1-1.857a.291.291,0,0,0-.425.043c-2.754,3.611-5.626,7.141-8.647,10.555a.3.3,0,0,0-.054.3q.182.468.36.94a.292.292,0,0,0,.464.118q4.887-4.2,9.494-8.757" transform="translate(-6026 1625)" fill="#fff"/>
      <path id="Path_4943" data-name="Path 4943" d="M408.822,8.8q-1.549,2.82-3.2,5.563l-.248.413a.292.292,0,0,1-.366.119l-.688-.294a.29.29,0,0,1-.167-.345l.126-.466q.828-3.061,1.539-6.139l.29-1.254a.29.29,0,0,1,.389-.206l2.788,1.068a.293.293,0,0,1,.153.413Z" transform="translate(-6026 1625)" fill="#fff"/>
      <path id="Path_4944" data-name="Path 4944" d="M411.7,35.64A200.925,200.925,0,0,0,443.75,30.2a.293.293,0,0,0,.209-.363l-.724-2.6a.291.291,0,0,0-.368-.2A197.44,197.44,0,0,1,411.331,34.2a.291.291,0,0,0-.234.384c.105.3.222.644.3.862a.294.294,0,0,0,.3.2" transform="translate(-6026 1625)" fill="#fff"/>
      <path id="Path_4945" data-name="Path 4945" d="M417.021,38.83A200.62,200.62,0,0,0,454.37,34.7a.292.292,0,0,0,.227-.35l-.586-2.619a.291.291,0,0,0-.355-.22A198.12,198.12,0,0,1,412.485,37.4a.29.29,0,0,0-.265.385c.1.291.2.582.3.873a.3.3,0,0,0,.274.2q2.113.006,4.224-.029" transform="translate(-6026 1625)" fill="#fff"/>
      <path id="Path_4946" data-name="Path 4946" d="M394.708,77.549c-2.086,0-3.433-1.476-3.433-3.76V72.673c0-2.284,1.347-3.76,3.433-3.76h2.49a.146.146,0,0,1,.145.146V70.1a.145.145,0,0,1-.145.145l-2.49-.1c-1.316,0-2.069.924-2.069,2.534v1.116c0,1.61.753,2.534,2.069,2.534h1.646a.1.1,0,0,0,.1-.1V74.231a.147.147,0,0,0-.165-.146l-1.777.165a.147.147,0,0,1-.167-.145V72.983a.146.146,0,0,1,.147-.145h2.97a.146.146,0,0,1,.147.145v4.466a.1.1,0,0,1-.1.1Z" transform="translate(-6026 1625)" fill="#fff"/>
      <path id="Path_4947" data-name="Path 4947" d="M399.465,62.525h-1.458c-.223-.368-.587-1.141-.86-1.6-1.309-2.177-2.176-3.446-4.309-3.446H391.47a.08.08,0,0,0-.079.079v1.191a.079.079,0,0,0,.089.079l1.177-.139a2.233,2.233,0,0,1,.433-.012c1.121.092,1.631.852,2.893,2.947.132.223.288.649.438.9h-6.388c-.131-1.7-.878-3.758-4.247-3.758h-6.111a.03.03,0,0,1-.02-.052l2.421-2.357a.111.111,0,0,0,0-.16l-1.039-1.046a.112.112,0,0,0-.167.006l-3.225,3.822a.053.053,0,0,0-.006.06l.485.886a.056.056,0,0,0,.047.03h7.614c2.119,0,2.756,1.145,2.885,2.569l-12.4,0a6.1,6.1,0,0,0-1.506-4.216,2.287,2.287,0,0,0-1.945-.693,2.437,2.437,0,0,0-1.636,1.015,4.293,4.293,0,0,0-.687,3.028,2.513,2.513,0,0,0,2.637,2.054h1.4c-.29.756-1.05,1.411-3.436,1.429a.106.106,0,0,0-.1.1v.982a.1.1,0,0,0,.1.1c2.526-.013,4.489-.492,5.01-2.617l24.719,0a.052.052,0,0,0,.052-.053l.167-8.572a.08.08,0,0,0-.08-.081H399.43a.08.08,0,0,0-.08.081l.167,7.382a.053.053,0,0,1-.052.054m-24.722,0h-1.612a1.351,1.351,0,0,1-1.294-1.084,2.939,2.939,0,0,1,.439-2.007,1.087,1.087,0,0,1,.736-.474.828.828,0,0,1,.111-.008.991.991,0,0,1,.692.328,4.759,4.759,0,0,1,.928,3.245" transform="translate(-6026 1625)" fill="#fff"/>
      <path id="Path_4948" data-name="Path 4948" d="M402.648,63.7h1.208a.078.078,0,0,0,.077-.075l.167-8.543a.079.079,0,0,0-.077-.078h-1.542a.079.079,0,0,0-.077.078l.167,8.543a.075.075,0,0,0,.077.075" transform="translate(-6026 1625)" fill="#fff"/>
      <path id="Rectangle_313" data-name="Rectangle 313" d="M.145,0H1.357A.145.145,0,0,1,1.5.145V1.356a.146.146,0,0,1-.146.146H.145A.145.145,0,0,1,0,1.357V.145A.145.145,0,0,1,.145,0Z" transform="translate(-5669.271 1689.861)" fill="#fff"/>
      <path id="Rectangle_314" data-name="Rectangle 314" d="M.145,0H1.357A.145.145,0,0,1,1.5.145V1.356a.146.146,0,0,1-.146.146H.145A.145.145,0,0,1,0,1.357V.145A.145.145,0,0,1,.145,0Z" transform="translate(-5671.833 1689.861)" fill="#fff"/>
      <path id="Rectangle_315" data-name="Rectangle 315" d="M.145,0H1.357A.145.145,0,0,1,1.5.145V1.356a.146.146,0,0,1-.146.146H.145A.145.145,0,0,1,0,1.357V.145A.145.145,0,0,1,.145,0Z" transform="translate(-5629.668 1667.932)" fill="#fff"/>
      <path id="Rectangle_316" data-name="Rectangle 316" d="M.145,0H1.357A.145.145,0,0,1,1.5.145V1.356a.146.146,0,0,1-.146.146H.145A.145.145,0,0,1,0,1.357V.145A.145.145,0,0,1,.145,0Z" transform="translate(-5632.23 1667.932)" fill="#fff"/>
      <path id="Path_4949" data-name="Path 4949" d="M399.447,49.772H396.57a.064.064,0,0,1-.065-.063l.15-4.028a.085.085,0,0,0-.086-.087h-1.516a.086.086,0,0,0-.086.093l.175,4.023a.055.055,0,0,1-.056.061c-.724,0-1.736,0-2.856,0a5.894,5.894,0,0,0-1.453-4.224,2.338,2.338,0,0,0-1.992-.7,2.444,2.444,0,0,0-1.637,1.015,4.3,4.3,0,0,0-.686,3.027,2.513,2.513,0,0,0,2.636,2.055h1.342c-.331.729-1.144,1.411-3.383,1.429a.1.1,0,0,0-.1.1v.992a.1.1,0,0,0,.1.1c2.827-.018,4.478-.812,4.978-2.617,1.208,0,8.755,0,8.755,0a.085.085,0,0,0,.086-.085l.167-8.493a.126.126,0,0,0-.124-.128h-1.445a.125.125,0,0,0-.123.128l.165,7.334a.071.071,0,0,1-.07.072m-8.745,0h-1.6a1.371,1.371,0,0,1-1.3-1.1,2.937,2.937,0,0,1,.44-2.006,1.041,1.041,0,0,1,.86-.485,1.031,1.031,0,0,1,.725.338,4.6,4.6,0,0,1,.875,3.253" transform="translate(-6026 1625)" fill="#fff"/>
      <path id="Path_4950" data-name="Path 4950" d="M365.535,53.559a3.313,3.313,0,0,0,3.24-1.579,3.645,3.645,0,0,0,.342-1.034h12.8a.08.08,0,0,0,.079-.079v-.6c0-2.828-.4-4.682-2.361-5.185-2.175-.559-4.41,1.714-6,3.576l.165-2.986a.072.072,0,0,0-.072-.077h-1.546a.072.072,0,0,0-.072.075l.165,4.034a.069.069,0,0,1-.067.071h-2.985l.169-7.457a.075.075,0,0,0-.076-.077h-1.541a.075.075,0,0,0-.075.077l.167,6.739a5.441,5.441,0,0,1-.3,2.3c-.19.363-.608,1.017-2.037,1.017-2.414,0-2.04-2.509-1.968-3.352a.09.09,0,0,0-.09-.1h-1.541a.091.091,0,0,0-.092.09,6.671,6.671,0,0,0,.452,2.97,3.316,3.316,0,0,0,3.239,1.579M379.3,46.4c.678.175.91.734.991,3.379h-5.977c2.652-3.328,4.347-3.544,4.986-3.379" transform="translate(-6026 1625)" fill="#fff"/>
      <path id="Path_4951" data-name="Path 4951" d="M402.406,42.366l.165,8.485a.087.087,0,0,0,.087.084h1.188a.088.088,0,0,0,.087-.084l.165-8.485a.124.124,0,0,0-.124-.126H402.53a.124.124,0,0,0-.124.126" transform="translate(-6026 1625)" fill="#fff"/>
      <path id="Path_4952" data-name="Path 4952" d="M366.191,57.555c-1.079,0-6.319.01-6.958.012a.112.112,0,0,0-.1.06l-.441.827a.114.114,0,0,0,.014.128,7.484,7.484,0,0,1,1.609,3.019c.036.185.253.912-.607.912h-5.7c-1.956,0-1.961-.966-1.991-2.749,0-.146,0-.731,0-.981a.143.143,0,0,0-.143-.141h-1.414a.143.143,0,0,0-.142.143c0,.253,0,.851,0,1,.021,1.27.063,3.915,3.687,3.915h5.7c2.387,0,2.224-1.779,2.109-2.364a7.853,7.853,0,0,0-1.116-2.586l3.324-.007a4.61,4.61,0,0,0-.724,3.261c.183.808.8,1.772,2.735,1.772.835,0,3.053,0,3.053-2.337,0-1.994-1.083-3.886-2.9-3.886m-.155,5.035c-1.249,0-1.353-.633-1.409-.881a3.222,3.222,0,0,1,.582-2.287,1.532,1.532,0,0,1,1.012-.678c.985.031,1.342,1.577,1.342,2.7,0,.5.168,1.149-1.527,1.149" transform="translate(-6026 1625)" fill="#fff"/>
      <path id="Path_4953" data-name="Path 4953" d="M384.974,42.239h-1.532a.081.081,0,0,0-.08.083l.165,8.533a.083.083,0,0,0,.082.08h1.2a.083.083,0,0,0,.082-.08l.167-8.533a.083.083,0,0,0-.082-.083" transform="translate(-6026 1625)" fill="#fff"/>
      <path id="Path_4954" data-name="Path 4954" d="M398.968,73.78c0,2.283,1.347,3.76,3.433,3.76.472,0,1.237.013,1.554.008a.147.147,0,0,0,.144-.146V76.358a.146.146,0,0,0-.147-.147c-.3,0-1,.1-1.551.1-1.316,0-2.07-.924-2.07-2.534V72.641c0-1.61.754-2.534,2.07-2.534.554,0,1.253.1,1.553.1a.145.145,0,0,0,.145-.145V69.02a.147.147,0,0,0-.144-.147c-.317-.005-1.082.01-1.554.01-2.086,0-3.433,1.474-3.433,3.758Z" transform="translate(-6026 1625)" fill="#fff"/>
      <path id="Path_4955" data-name="Path 4955" d="M384.784,73.776c0,2.283,1.347,3.76,3.433,3.76.472,0,1.237.013,1.554.008a.147.147,0,0,0,.144-.146V76.354a.146.146,0,0,0-.147-.147c-.3,0-1,.1-1.551.1-1.316,0-2.07-.924-2.07-2.534V72.642c0-1.611.754-2.534,2.07-2.534.554,0,1.253.1,1.553.1a.146.146,0,0,0,.145-.147V69.021a.147.147,0,0,0-.144-.147c-.317,0-1.082.008-1.554.008-2.086,0-3.433,1.476-3.433,3.76Z" transform="translate(-6026 1625)" fill="#fff"/>
    </g>
  </g>
</svg>
