<svg xmlns="http://www.w3.org/2000/svg" xmlns:xlink="http://www.w3.org/1999/xlink" width="99" height="40" viewBox="0 0 99 40">
  <defs>
    <clipPath id="clip-comma">
      <rect width="99" height="40"/>
    </clipPath>
  </defs>
  <g id="comma" clip-path="url(#clip-comma)">
    <path id="Path_4931" data-name="Path 4931" d="M56.468,15.228a24.107,24.107,0,0,0,8.749,18.606.325.325,0,0,0,.2.073h9.411a.315.315,0,0,1,.315.316v4.811a.317.317,0,0,0,.332.317q.962-.052,1.9-.181A24.159,24.159,0,0,0,92.984.119.319.319,0,0,0,92.736,0H62.025a.319.319,0,0,0-.248.119,24.039,24.039,0,0,0-5.309,15.109" transform="translate(0 0)" fill="#6379bf"/>
    <path id="Path_4932" data-name="Path 4932" d="M0,15.228A24.107,24.107,0,0,0,8.749,33.834a.325.325,0,0,0,.2.073h9.411a.315.315,0,0,1,.315.316v4.811a.317.317,0,0,0,.332.317q.962-.052,1.9-.181A24.159,24.159,0,0,0,36.516.119.319.319,0,0,0,36.268,0H5.557a.319.319,0,0,0-.248.119A24.039,24.039,0,0,0,0,15.228" transform="translate(0 0)" fill="#6379bf"/>
  </g>
</svg>
