<svg xmlns="http://www.w3.org/2000/svg" xmlns:xlink="http://www.w3.org/1999/xlink" width="38" height="38" viewBox="0 0 38 38">
  <defs>
    <clipPath id="clip-email">
      <rect width="38" height="38"/>
    </clipPath>
  </defs>
  <g id="email" clip-path="url(#clip-email)">
    <g id="Group_541" data-name="Group 541" transform="translate(6025 -1687.211)">
      <path id="Path_5037" data-name="Path 5037" d="M13.167.211h2.471c.571.092,1.151.132,1.714.269A14.307,14.307,0,0,1,28.307,10.82a14.813,14.813,0,0,1,.471,2.587v2.359c-.011.064-.028.128-.034.192a14.28,14.28,0,0,1-1.855,5.806A14.406,14.406,0,1,1,10.608.685,20.248,20.248,0,0,1,13.167.211m1.266,7.878H7.108a1.793,1.793,0,0,0-1.945,1.942c-.006,3.04,0,6.081,0,9.121A1.857,1.857,0,0,0,7.118,21.1q7.282-.038,14.566,0a1.853,1.853,0,0,0,1.96-1.939c0-3.05.006-6.1,0-9.149A1.786,1.786,0,0,0,21.7,8.089H14.433" transform="translate(-6020 1692)" fill="#fff"/>
      <path id="Path_5038" data-name="Path 5038" d="M14.392,19.662H7.177c-.495,0-.593-.1-.593-.589q0-4.225,0-8.451c0-.1-.046-.231.063-.282s.18.07.257.131q3.442,2.729,6.882,5.463a.8.8,0,0,0,1.224.006l6.838-5.428c.058-.047.117-.094.177-.138.129-.094.186-.043.193.1,0,.065,0,.131,0,.2v8.338c0,.066,0,.131,0,.2-.018.331-.14.454-.472.455-1.169,0-2.339,0-3.509,0H14.392" transform="translate(-6020 1692)" fill="#fff"/>
      <path id="Path_5039" data-name="Path 5039" d="M8.127,9.535H20.666c.017.139-.1.178-.17.235-1.94,1.544-3.886,3.082-5.821,4.632a.366.366,0,0,1-.551-.007c-1.929-1.544-3.866-3.076-5.8-4.614-.076-.06-.18-.1-.2-.246" transform="translate(-6020 1692)" fill="#fff"/>
    </g>
  </g>
</svg>
