<svg xmlns="http://www.w3.org/2000/svg" xmlns:xlink="http://www.w3.org/1999/xlink" width="100" height="100" viewBox="0 0 100 100">
  <defs>
    <clipPath id="clip-f1">
      <rect width="100" height="100"/>
    </clipPath>
  </defs>
  <g id="f1" clip-path="url(#clip-f1)">
    <path id="Union_11" data-name="Union 11" d="M15904.638-4965.865a2.792,2.792,0,0,1-2.961-2.536q-1.815-11.665-3.6-23.333c-.341-2.244.9-3.646,3.192-3.646q9.46-.006,18.915,0,9.286,0,18.574,0c2.608,0,3.733,1.386,3.329,3.97-1.138,7.268-2.239,14.54-3.357,21.812-.064.425-.12.849-.2,1.27a2.812,2.812,0,0,1-2.944,2.464q-7.739.006-15.476.006T15904.638-4965.865ZM15886.5-4980.5a2.95,2.95,0,0,1-3.137-2.171q-3.576-9.765-7.107-19.547c-.842-2.336.484-4.163,2.964-4.171,3.555-.008,7.108-.02,10.662.012.717,0,1.037-.181,1.218-.937a17.479,17.479,0,0,1,15.124-13.65,14.975,14.975,0,0,1,1.8-.064c8.054,0,16.106-.012,24.163,0a17.427,17.427,0,0,1,16.876,13.366c.3,1.266.3,1.266,1.61,1.266,1.378,0,2.752-.016,4.127.008.6.012.873-.072.765-.813a21.011,21.011,0,0,0-8.117-13.886,1.313,1.313,0,0,0-1.475-.208,5.518,5.518,0,0,1-7.536-4.4,5.6,5.6,0,0,1,4.464-6.286,5.531,5.531,0,0,1,6.45,4.091,3.6,3.6,0,0,0,1.458,2.248,26.355,26.355,0,0,1,10.465,18.458c.049.4.108.737.573.829a3.271,3.271,0,0,1,2.3,1.9v1.891q-2.121,5.769-4.247,11.535c-1,2.74-1.982,5.5-2.988,8.237a3.035,3.035,0,0,1-3.317,2.292c-1.635.008-3.27,0-4.9,0-1,0-1.058-.056-.909-1.014.469-3.053.913-6.114,1.431-9.163a10,10,0,0,0-9.9-11.835q-19.178-.024-38.354,0a9.992,9.992,0,0,0-9.939,11.875c.5,3.025.949,6.054,1.414,9.079.152.986.1,1.058-.857,1.058q-1.395.007-2.786.008Q15887.641-4980.493,15886.5-4980.5Zm18.979-56.679a14.84,14.84,0,0,1,11.987-16.683c.2-.036.389-.092.581-.136h4.131a15.929,15.929,0,0,1,7.027,3.033,14.845,14.845,0,0,1,5.164,15.549,14.772,14.772,0,0,1-12.288,10.725,15.165,15.165,0,0,1-1.95.126A14.762,14.762,0,0,1,15905.475-5037.18Z" transform="translate(-15869.999 5059.999)" fill="#fff" stroke="rgba(0,0,0,0)" stroke-miterlimit="10" stroke-width="1"/>
  </g>
</svg>
