<svg xmlns="http://www.w3.org/2000/svg" xmlns:xlink="http://www.w3.org/1999/xlink" width="100" height="100" viewBox="0 0 100 100">
  <defs>
    <clipPath id="clip-f2">
      <rect width="100" height="100"/>
    </clipPath>
  </defs>
  <g id="f2" clip-path="url(#clip-f2)">
    <path id="Union_12" data-name="Union 12" d="M16085.517-4976.042q-10.5-4.278-21-8.568a5.388,5.388,0,0,0-2.125-.408c-5.664.016-11.327.04-16.991,0a10.962,10.962,0,0,1-9.885-5.874c-.529-.9-.489-.982.488-1.382,1.563-.646,3.135-1.272,4.7-1.927a3.447,3.447,0,0,1,1.369-.21c5.373,0,10.746.04,16.119-.008a16.054,16.054,0,0,0,13.614-7,15.975,15.975,0,0,0,2.912-9.635c-.04-8.936-.012-17.868-.012-26.8,0-1.709,0-1.725,1.732-1.7,1.151.012,2.308,0,3.458-.021a64.461,64.461,0,0,1,6.609.129,11.128,11.128,0,0,1,10.14,8.847c.041.169.089.335.138.5v35.748a12.715,12.715,0,0,1-2.533,5.324,10.77,10.77,0,0,1-6.6,3.817c-.893.15-1.216.461-1.187,1.394.068,2.363.028,4.727.023,7.094,0,.643-.033.893-.292.893A2.178,2.178,0,0,1,16085.517-4976.042Zm-68.155-15.294c0-1.636,0-3.272,0-4.908,0-.788-.028-1.576.008-2.363.028-.622-.142-.9-.832-1.022a11.164,11.164,0,0,1-9.421-9.336,8.856,8.856,0,0,1-.108-1.567q-.007-16.21,0-32.415a11.111,11.111,0,0,1,11.053-11.045q6.253-.018,12.507-.008,3.9.007,7.816,0,9.987,0,19.973,0a11.141,11.141,0,0,1,11.319,11.323q.013,15.9,0,31.8a11.2,11.2,0,0,1-9.565,11.243,12.774,12.774,0,0,1-2.008.081q-8.326.012-16.648,0a5.02,5.02,0,0,0-1.955.375q-10.332,4.23-20.671,8.439c-.109.044-.215.093-.323.133a2.886,2.886,0,0,1-.832.254C16017.386-4990.347,16017.364-4990.624,16017.361-4991.336Zm31.474-37.227c.024,1.135.036,2.274,0,3.414-.024.671.283.873.9.844.55-.028,1.107-.008,1.661-.008.613,0,1.224-.012,1.838,0,.5.012.751-.186.743-.723-.021-1.192-.021-2.392,0-3.583.008-.521-.182-.739-.715-.731-1.225.02-2.448.028-3.677,0h-.038C16048.989-5029.354,16048.827-5029.1,16048.835-5028.562Zm-21.888,4.254c.554,0,.8-.234.788-.788-.016-1.111-.036-2.222.008-3.329.032-.751-.282-.986-.985-.929-.331.028-.662.02-.99.016-.165,0-.335-.008-.5,0-.643,0-1.285.008-1.928,0-.439-.008-.634.186-.634.63.008,1.224.017,2.452,0,3.676-.008.529.23.731.735.727q.876-.006,1.751-.007T16026.947-5024.309Zm8.884-4.4c.008.614,0,1.224,0,1.838,0,.582.017,1.167,0,1.749-.017.538.182.816.755.812,1.168-.016,2.335-.012,3.5,0,.493,0,.768-.17.76-.707-.013-1.228-.009-2.452,0-3.676,0-.424-.162-.65-.618-.65-1.253.012-2.509.012-3.761,0C16036.017-5029.346,16035.827-5029.14,16035.831-5028.708Z" transform="translate(-16001.893 5065)" fill="#fff" stroke="rgba(0,0,0,0)" stroke-miterlimit="10" stroke-width="1"/>
  </g>
</svg>
