<svg xmlns="http://www.w3.org/2000/svg" xmlns:xlink="http://www.w3.org/1999/xlink" width="38" height="38" viewBox="0 0 38 38">
  <defs>
    <clipPath id="clip-linkedIn">
      <rect width="38" height="38"/>
    </clipPath>
  </defs>
  <g id="linkedIn" clip-path="url(#clip-linkedIn)">
    <path id="Path_5045" data-name="Path 5045" d="M131.533,0h2.485c.565.092,1.139.131,1.7.266a14.358,14.358,0,0,1,11.039,10.376,14.844,14.844,0,0,1,.48,2.63v2.373c-.012.073-.028.147-.036.221a13.393,13.393,0,0,1-2.07,6.148,14.173,14.173,0,0,1-14.189,6.8,13.367,13.367,0,0,1-8.035-3.768,13.855,13.855,0,0,1-4.347-13.211c1.116-5.819,4.7-9.571,10.347-11.343A15.521,15.521,0,0,1,131.533,0m-.957,16.577h-.007q0,2.442,0,4.884c0,.346.028.373.368.374q1.313,0,2.626,0c.439,0,.44,0,.44-.435q0-2.752,0-5.506a2.183,2.183,0,0,1,.489-1.438,1.794,1.794,0,0,1,3.065.358,2.861,2.861,0,0,1,.21,1.074c0,1.864.007,3.727,0,5.591,0,.265.074.367.354.362.9-.015,1.807,0,2.71-.006.4,0,.4,0,.4-.389,0-1.9,0-3.8,0-5.7a7.468,7.468,0,0,0-.115-1.319,3.8,3.8,0,0,0-4.581-3.321,3.289,3.289,0,0,0-2.3,1.44c-.044.062-.075.182-.181.138-.077-.031-.048-.133-.049-.2,0-.264,0-.528,0-.791,0-.363-.015-.377-.388-.377q-1.328,0-2.655,0c-.361,0-.384.027-.384.385q0,2.442,0,4.885m-2.047,0c0-1.637,0-3.275,0-4.913,0-.269-.088-.365-.36-.361-.912.012-1.826.009-2.738,0-.237,0-.34.076-.34.325q.007,4.941,0,9.883c0,.244.088.331.333.328.912-.01,1.825,0,2.738,0,.345,0,.362-.017.362-.374q0-2.442,0-4.885M126.8,9.768a1.784,1.784,0,0,0,1.825-2.478,1.748,1.748,0,0,0-1.7-1.1,1.839,1.839,0,0,0-1.982,1.3A1.777,1.777,0,0,0,126.8,9.768" transform="translate(-113.234 4.543)" fill="#fff"/>
  </g>
</svg>
