<svg xmlns="http://www.w3.org/2000/svg" xmlns:xlink="http://www.w3.org/1999/xlink" width="38" height="38" viewBox="0 0 38 38">
  <defs>
    <clipPath id="clip-location">
      <rect width="38" height="38"/>
    </clipPath>
  </defs>
  <g id="location" clip-path="url(#clip-location)">
    <g id="Group_542" data-name="Group 542">
      <path id="Path_5043" data-name="Path 5043" d="M73.862.128h2.471C76.9.219,77.484.26,78.047.4A14.279,14.279,0,0,1,89,10.708a14.874,14.874,0,0,1,.477,2.615v2.359c-.012.064-.028.127-.034.192A14.407,14.407,0,1,1,71.3.6a20.257,20.257,0,0,1,2.56-.472m8.3,11.878c-.008-.166-.014-.455-.054-.743a7.057,7.057,0,0,0-7.858-6.014A6.878,6.878,0,0,0,68.627,9.4a5.922,5.922,0,0,0-.453,3.993,10.86,10.86,0,0,0,1.177,2.751,44.386,44.386,0,0,0,5.468,7.347c.275.312.282.31.57-.012,1.128-1.263,2.207-2.567,3.214-3.93a26.043,26.043,0,0,0,2.846-4.6,6.257,6.257,0,0,0,.714-2.95" transform="translate(-56.083 4.477)" fill="#fff"/>
      <path id="Path_5044" data-name="Path 5044" d="M75.116,9.425a2.719,2.719,0,1,1-2.737,2.7,2.686,2.686,0,0,1,2.737-2.7" transform="translate(-56.083 4.477)" fill="#fff"/>
    </g>
  </g>
</svg>
