<?xml version="1.0" encoding="utf-8"?>
<!-- Generator: Adobe Illustrator 27.5.0, SVG Export Plug-In . SVG Version: 6.00 Build 0)  -->
<svg version="1.1" id="Layer_1" xmlns="http://www.w3.org/2000/svg" xmlns:xlink="http://www.w3.org/1999/xlink" x="0px" y="0px"
	 viewBox="0 0 512 512" style="enable-background:new 0 0 512 512;" xml:space="preserve">
<style type="text/css">
	.st0{fill:#64C29A;}
	.st1{fill:#464973;}
</style>
<g>
	<path class="st0" d="M392.02,156.2c-0.84-1.9-1.71-3.77-2.62-5.63c-0.52-1.06-1.61-1.73-2.79-1.73H21.66
		c-1.19,0-2.28,0.69-2.79,1.77l-2.65,5.59H392.02z"/>
	<path class="st0" d="M18.57,291.87c1.43,2.93,2.94,5.81,4.53,8.64c0.55,0.98,1.6,1.58,2.72,1.58h358.35
		c1.93-3.34,3.75-6.74,5.44-10.22c0.99-2.04-0.54-4.41-2.8-4.41H21.38C19.11,287.46,17.58,289.83,18.57,291.87z"/>
	<path class="st0" d="M6.28,256.57c0.5,2.27,1.06,4.52,1.66,6.75c0.36,1.36,1.61,2.29,3.02,2.29l388.64,0
		c0.85-2.99,1.64-6.01,2.33-9.07c0.43-1.92-1.06-3.74-3.03-3.74H9.33C7.36,252.81,5.86,254.64,6.28,256.57z"/>
	<path class="st0" d="M402.68,218.16l-397.09,0c-1.71,0-3.09,1.38-3.09,3.09c0,1.5,0.01,3.3,0.03,4.87c0.02,1.69,1.4,3.03,3.09,3.03
		l399.92,0c0.12-2.64,0.25-5.28,0.24-7.96C405.78,219.5,404.36,218.16,402.68,218.16z"/>
	<path class="st0" d="M403.14,192.67c-0.41-2.27-0.87-4.53-1.37-6.77c-0.32-1.41-1.59-2.4-3.03-2.4l-389.31,0
		c-1.44,0-2.71,0.99-3.03,2.4c-0.23,1.02-0.45,2.05-0.67,3.08c-0.39,1.91,1.1,3.69,3.04,3.69L403.14,192.67z"/>
	<path class="st0" d="M369.69,119.73c-1.23-1.51-2.48-3-3.76-4.46c-0.6-0.68-1.47-1.07-2.37-1.07H43.26
		c-1.62,1.82-3.24,3.64-4.78,5.53H369.69z"/>
	<path class="st0" d="M366.29,327.27c1.75-2.01,0.35-5.16-2.32-5.16H44.27c-2.66,0-4.07,3.13-2.33,5.14
		c3.13,3.62,6.41,7.1,9.84,10.43c0.58,0.56,1.37,0.88,2.18,0.88h301.48C359.23,334.96,362.86,331.2,366.29,327.27z"/>
	<path class="st1" d="M478.08,125.26c-1.09-1.46-2.18-2.93-3.3-4.36c-0.59-0.75-1.49-1.18-2.44-1.18h-59.04H142.64
		c-1.46,1.8-2.86,3.67-4.24,5.53h279.14H478.08z"/>
	<path class="st1" d="M497.46,159.26c-0.16-0.39-0.32-0.79-0.49-1.18c-0.48-1.15-1.62-1.89-2.86-1.89H464.7h-29.06H120.3
		c-0.45,1.01-0.88,2.03-1.3,3.06c-0.83,2.05,0.65,4.29,2.86,4.29h316.76h55.99C496.81,163.55,498.29,161.31,497.46,159.26z"/>
	<path class="st1" d="M508.2,198.33c-0.15-1.03-0.31-2.06-0.48-3.08c-0.25-1.49-1.55-2.58-3.06-2.58l-39.96,0h-17.95H109.19
		c-0.34,1.88-0.65,3.76-0.93,5.66c-0.27,1.85,1.2,3.52,3.07,3.52h336.8h56.98C507,201.85,508.47,200.18,508.2,198.33z"/>
	<path class="st1" d="M464.7,229.15h-15.55H106.78c0.13,2.75,0.32,5.49,0.58,8.21c0.15,1.58,1.51,2.79,3.1,2.79h337.81l57.72,0
		c1.59,0,2.95-1.2,3.1-2.79c0.16-1.63,0.29-3.27,0.39-4.92c0.12-1.78-1.32-3.29-3.1-3.29H464.7z"/>
	<path class="st1" d="M427.78,302.09H128.15c2.65,4.59,5.51,9.04,8.58,13.33c0.59,0.82,1.54,1.3,2.54,1.3h278.99l58.94,0
		c1.01,0,1.96-0.48,2.55-1.3c2.01-2.82,3.93-5.7,5.76-8.65c1.27-2.04-0.25-4.68-2.65-4.68H464.7H427.78z"/>
	<path class="st1" d="M156.88,338.56c6.31,5.99,13.05,11.53,20.26,16.45H438.4c0.65,0,1.28-0.2,1.81-0.56
		c4.66-3.23,9.12-6.72,13.4-10.42c2.17-1.88,0.86-5.46-2.01-5.46H156.88z"/>
	<path class="st1" d="M443.21,265.62H112.73c1.03,3.64,2.17,7.23,3.44,10.76c0.44,1.23,1.63,2.05,2.95,2.05h319.89l58.34,0
		c1.31,0,2.5-0.82,2.95-2.05c0.8-2.23,1.55-4.48,2.25-6.75c0.61-1.98-0.91-4-2.98-4l-34.87,0H443.21z"/>
	<g>
		<path class="st1" d="M177.06,355.01c25.75,17.29,67.81,42.79,94.28,42.79v-42.79C271.35,355.01,243.49,355.01,177.06,355.01z"/>
	</g>
</g>
</svg>
