<?xml version="1.0" encoding="utf-8"?>
<!-- Generator: Adobe Illustrator 27.5.0, SVG Export Plug-In . SVG Version: 6.00 Build 0)  -->
<svg version="1.1" id="Layer_1" xmlns="http://www.w3.org/2000/svg" xmlns:xlink="http://www.w3.org/1999/xlink" x="0px" y="0px"
	 viewBox="0 0 408 224" style="enable-background:new 0 0 408 224;" xml:space="preserve">
<style type="text/css">
	.st0{fill:#FFFFFF;}
	.st1{fill:#FFFFFF;}
</style>
<g>
	<path class="st0" d="M135.16,14.7c-0.29-0.66-0.59-1.3-0.91-1.95c-0.18-0.37-0.56-0.6-0.96-0.6H7.09c-0.41,0-0.79,0.24-0.97,0.61
		L5.21,14.7H135.16z"/>
	<path class="st0" d="M6.02,61.62c0.49,1.01,1.02,2.01,1.57,2.99c0.19,0.34,0.55,0.55,0.94,0.55l123.92,0
		c0.67-1.15,1.3-2.33,1.88-3.53c0.34-0.7-0.19-1.52-0.97-1.52H6.99C6.21,60.09,5.68,60.91,6.02,61.62z"/>
	<path class="st0" d="M1.77,49.41c0.17,0.78,0.37,1.56,0.57,2.34c0.13,0.47,0.56,0.79,1.04,0.79h134.39
		c0.29-1.04,0.57-2.08,0.81-3.14c0.15-0.66-0.37-1.29-1.05-1.29H2.83C2.15,48.11,1.62,48.74,1.77,49.41z"/>
	<path class="st0" d="M138.85,36.12l-137.31,0c-0.59,0-1.07,0.48-1.07,1.07c0,0.52,0,1.14,0.01,1.68c0.01,0.58,0.48,1.05,1.07,1.05
		h138.29c0.04-0.91,0.09-1.83,0.08-2.75C139.92,36.59,139.43,36.12,138.85,36.12z"/>
	<path class="st0" d="M139.01,27.31c-0.14-0.79-0.3-1.57-0.47-2.34c-0.11-0.49-0.55-0.83-1.05-0.83l-134.62,0
		c-0.5,0-0.94,0.34-1.05,0.83c-0.08,0.35-0.16,0.71-0.23,1.07c-0.14,0.66,0.38,1.28,1.05,1.28L139.01,27.31z"/>
	<path class="st0" d="M127.44,2.09c-0.42-0.52-0.86-1.04-1.3-1.54c-0.21-0.24-0.51-0.37-0.82-0.37H14.56
		C14,0.8,13.44,1.43,12.91,2.09H127.44z"/>
	<path class="st0" d="M126.27,73.86c0.61-0.7,0.12-1.78-0.8-1.78H14.91c-0.92,0-1.41,1.08-0.81,1.78c1.08,1.25,2.22,2.46,3.4,3.61
		c0.2,0.2,0.47,0.3,0.75,0.3h104.25C123.82,76.52,125.08,75.22,126.27,73.86z"/>
	<path class="st1" d="M164.92,4c-0.38-0.51-0.75-1.01-1.14-1.51c-0.2-0.26-0.52-0.41-0.84-0.41h-20.42H48.92
		C48.42,2.71,47.94,3.36,47.46,4h96.53H164.92z"/>
	<path class="st1" d="M171.62,15.76c-0.06-0.14-0.11-0.27-0.17-0.41c-0.17-0.4-0.56-0.65-0.99-0.65h-10.17h-10.05H41.2
		c-0.15,0.35-0.3,0.7-0.45,1.06c-0.29,0.71,0.22,1.48,0.99,1.48h109.53h19.36C171.4,17.24,171.91,16.47,171.62,15.76z"/>
	<path class="st1" d="M175.34,29.27c-0.05-0.36-0.11-0.71-0.17-1.06c-0.09-0.52-0.54-0.89-1.06-0.89l-13.82,0h-6.21H37.36
		c-0.12,0.65-0.22,1.3-0.32,1.96c-0.09,0.64,0.41,1.22,1.06,1.22h116.47l19.71,0C174.92,30.48,175.43,29.91,175.34,29.27z"/>
	<path class="st1" d="M160.29,39.93h-5.38H36.53c0.04,0.95,0.11,1.9,0.2,2.84c0.05,0.55,0.52,0.96,1.07,0.96h116.82l19.96,0
		c0.55,0,1.02-0.42,1.07-0.96c0.05-0.56,0.1-1.13,0.14-1.7c0.04-0.62-0.46-1.14-1.07-1.14H160.29z"/>
	<path class="st1" d="M147.53,65.15H43.92c0.92,1.59,1.9,3.13,2.97,4.61c0.2,0.28,0.53,0.45,0.88,0.45h96.47h20.38
		c0.35,0,0.68-0.17,0.88-0.45c0.7-0.97,1.36-1.97,1.99-2.99c0.44-0.71-0.09-1.62-0.92-1.62l-6.28,0H147.53z"/>
	<path class="st1" d="M53.85,77.76c2.18,2.07,4.51,3.99,7.01,5.69h90.35c0.22,0,0.44-0.07,0.63-0.19c1.61-1.12,3.15-2.32,4.63-3.6
		c0.75-0.65,0.3-1.89-0.7-1.89H53.85z"/>
	<path class="st1" d="M152.86,52.54H38.58c0.36,1.26,0.75,2.5,1.19,3.72c0.15,0.43,0.56,0.71,1.02,0.71h110.62l20.18,0
		c0.45,0,0.87-0.28,1.02-0.71c0.28-0.77,0.54-1.55,0.78-2.34c0.21-0.69-0.31-1.38-1.03-1.38h-12.06H152.86z"/>
	<g>
		<path class="st1" d="M60.83,83.45c8.9,5.98,23.45,14.8,32.6,14.8v-14.8C93.43,83.45,83.8,83.45,60.83,83.45z"/>
	</g>
	<g>
		<path class="st1" d="M142.12,129.08c-0.44-2.42-0.93-4.59-1.47-6.52c-0.08-0.29-0.39-0.43-0.67-0.32l-5.54,2.19
			c-0.24,0.09-0.37,0.34-0.3,0.59c0.41,1.44,0.79,3.01,1.16,4.7c0.4,1.86,0.77,3.68,1.09,5.47c0.33,1.78,0.59,3.37,0.79,4.75
			c0.2,1.38,0.3,2.35,0.3,2.9c0,1.91-0.62,3.62-1.85,5.13c-1.23,1.51-2.92,2.69-5.05,3.54c-2.14,0.85-4.59,1.28-7.35,1.28
			c-4.27,0-7.53-1.13-9.76-3.39c-2.24-2.26-3.35-5.53-3.35-9.8c0-1.66,0.19-3.54,0.57-5.65c0.36-2,0.91-4.57,1.65-7.7
			c0.07-0.28-0.11-0.56-0.39-0.62l-4.99-1.01c-0.26-0.05-0.52,0.11-0.59,0.37c-0.94,3.48-1.64,6.51-2.1,9.11
			c-0.48,2.71-0.72,5.13-0.72,7.24c0,6.23,1.75,11.04,5.24,14.44c3.49,3.39,8.25,5.09,14.29,5.09c4.22,0,7.88-0.8,10.97-2.41
			c3.09-1.61,5.48-3.78,7.16-6.52c1.68-2.74,2.53-5.84,2.53-9.31c0-1.51-0.15-3.48-0.45-5.92
			C142.99,134.26,142.6,131.72,142.12,129.08z"/>
		<path class="st1" d="M204.77,130.59c-0.23-2.14-0.5-4.28-0.83-6.44c-0.29-1.88-0.56-3.61-0.82-5.18
			c-0.06-0.36-0.44-0.57-0.79-0.44l-5.43,2.12c-0.27,0.1-0.42,0.38-0.35,0.66c0.36,1.58,0.7,3.28,1.02,5.1
			c0.35,2.01,0.67,3.97,0.94,5.88c0.28,1.91,0.5,3.61,0.68,5.09c0.18,1.48,0.26,2.58,0.26,3.28c0,1.56-0.88,2.71-2.64,3.47
			c-1.76,0.75-4.8,1.13-9.12,1.13l0,0l0,0h-5.88c-0.1-4.52-0.79-8.51-2.07-11.95c-1.24-3.32-2.92-5.94-5.05-7.86
			c-1.73-1.56-3.9-2.6-6.2-2.96c-3.19-0.5-6.06,0.27-8.62,2.3c-2.06,1.63-3.71,3.83-4.94,6.6c-1.23,2.77-1.85,5.86-1.85,9.27
			c0,4.32,1.13,7.5,3.39,9.54c2.26,2.04,5.81,3.05,10.63,3.05h7.31c-1.31,2.66-3.72,4.71-7.24,6.14c-3.37,1.37-8.06,2.48-14.06,3.32
			c-0.42,0.06-0.72,0.46-0.63,0.88l1.29,6.18c0.08,0.37,0.44,0.63,0.82,0.59c7.71-0.88,13.71-2.64,17.98-5.28
			c4.4-2.71,7.22-6.63,8.48-11.76h6.63l0,0l0,0c5.93,0,10.39-1.03,13.38-3.09c2.99-2.06,4.49-5.28,4.49-9.65
			c0-1-0.08-2.39-0.23-4.15C205.19,134.68,205,132.73,204.77,130.59z M168.25,145.48c-3.47,0-5.87-0.44-7.2-1.32
			c-1.33-0.88-2-2.47-2-4.79c0-2.76,0.68-5.06,2.04-6.9c1.36-1.83,2.96-2.75,4.83-2.75c1.81,0,3.44,0.7,4.9,2.11
			c1.46,1.41,2.63,3.31,3.51,5.69c0.88,2.39,1.37,5.04,1.47,7.95H168.25z"/>
		<path class="st1" d="M405.58,131.72c-1.31-2.89-3.04-5.23-5.2-7.01c-2.16-1.78-4.55-2.68-7.16-2.68c-4.67,0-8.77,3.04-12.29,9.12
			l-4.22,7.16c-1.26,2.21-2.79,3.92-4.6,5.13c-1.81,1.21-3.72,1.81-5.73,1.81c-3.52,0-6.06-0.53-7.61-1.58
			c-1.56-1.06-2.34-2.61-2.34-4.68c0-0.5,0.02-1.17,0.08-2c0.05-0.83,0.1-1.49,0.15-2l0.47-5.55c0.03-0.34-0.24-0.63-0.58-0.63
			h-4.87c-0.3,0-0.55,0.23-0.58,0.52l-1,9.65c-0.15,1.16-0.43,2.14-0.83,2.94c-0.5,1.11-1.45,1.93-2.83,2.49
			c-1.38,0.55-3.63,0.83-6.75,0.83h-25.81c3.29-1.25,6.37-2.47,9.22-3.54c0,0,7.77-3.32,9.11-3.95c0.25-0.12,0.33-0.28,0.37-0.54
			l0.8-5.91c0.03-0.21-0.12-0.4-0.33-0.44c-1.52-0.24-2.97-0.58-4.37-0.96c-11.43-3.07-24.21-9.85-33.39-9.85
			c-7.34,0-12.19,6.7-13.19,8.21c-0.12,0.18-0.08,0.4,0.07,0.55l3.68,3.56c0.18,0.18,0.47,0.17,0.64-0.03
			c1.15-1.39,5.56-6.03,10.02-6.03c5.83,0,12.35,3.98,26.66,8.47c-14.54,6.28-34.72,12.67-54.11,12.67
			c-4.07,0-14.75,0.63-19.47-3.89c-1.25-1.19-2.39-3.3-3.24-6.52l-6.13-23.27c-0.11-0.43-0.55-0.68-0.98-0.56l-4.88,1.38
			c-0.42,0.12-0.66,0.55-0.55,0.97l7.26,26.84c-1.11,1.16-2.54,2.06-4.3,2.71c-1.76,0.65-3.9,0.98-6.41,0.98
			c-3.67,0-6.3-0.68-7.88-2.03c-1.58-1.36-2.38-3.22-2.38-5.58v-3.37c0-0.43-0.35-0.77-0.77-0.77h-4.41c-0.43,0-0.77,0.35-0.77,0.77
			v5.78c0,4.27,1.23,7.54,3.69,9.8c2.46,2.26,6.36,3.39,11.69,3.39c3.32,0,6.12-0.49,8.41-1.47c2.29-0.98,4.21-2.45,5.77-4.41
			c3.25,5.64,14.97,6.63,23.5,6.63c17.13,0,30.92-3.87,42.18-7.91c0.77,3.66,4.01,6.4,7.89,6.4h22.4c3.52,0,6.31-0.43,8.37-1.28
			c2.06-0.85,3.59-2.16,4.6-3.92c1.11,1.91,2.74,3.26,4.9,4.03c2.16,0.78,4.75,1.17,7.77,1.17l0.59,0c2.5,0,5-0.5,7.21-1.67
			c2.42-1.29,4.55-3.22,6.37-5.79c1.86,2.45,4.14,4.41,6.84,5.88c2.61,1.42,5.54,2.23,8.51,2.32c4.02,0.13,7.16-0.96,9.45-3.27
			c2.16-2.19,3.24-5.42,3.24-9.69C407.54,137.74,406.88,134.61,405.58,131.72z M400.75,144.46c-0.6,0.73-1.35,1.19-2.22,1.39
			c-0.88,0.2-1.72,0.3-2.53,0.3c-2.97,0-5.48-0.6-7.54-1.81c-2.06-1.21-3.77-2.86-5.13-4.98l1.66-2.86
			c2.51-4.52,5.25-6.79,8.22-6.79c1.61,0,3.05,0.59,4.33,1.77c1.28,1.18,2.29,2.64,3.02,4.37c0.73,1.73,1.09,3.48,1.09,5.24
			C401.66,142.62,401.35,143.74,400.75,144.46z"/>
	</g>
	<path class="st1" d="M104.5,217.86c-1.46-1.95-2.35-4.45-2.68-7.49c-0.03-0.28,0.2-0.54,0.48-0.54h5.64c0.23,0,0.42,0.17,0.46,0.4
		c0.49,2.76,1.6,4.76,3.34,6.02c1.83,1.32,4.5,1.98,8.03,1.98c2.39,0,4.27-0.32,5.63-0.97c1.36-0.65,2.32-1.51,2.89-2.59
		c0.57-1.07,0.85-2.26,0.85-3.56c0-1.05-0.19-2.05-0.58-2.98c-0.39-0.93-1.09-1.74-2.13-2.43c-1.03-0.69-2.57-1.22-4.59-1.58
		l-5.54-1.03c-2.88-0.53-5.33-1.27-7.36-2.22c-2.03-0.95-3.58-2.25-4.65-3.89c-1.07-1.64-1.61-3.78-1.61-6.42
		c0-2.76,0.71-5.05,2.13-6.87c1.42-1.83,3.37-3.2,5.84-4.11c2.47-0.91,5.25-1.37,8.33-1.37c3.85,0,6.91,0.55,9.16,1.64
		c2.25,1.09,3.92,2.54,5.02,4.35c1.01,1.66,1.71,3.43,2.1,5.32c0.05,0.27-0.13,0.53-0.4,0.57l-5.3,0.88
		c-0.24,0.04-0.46-0.12-0.53-0.35c-0.4-1.44-0.93-2.64-1.59-3.63c-0.73-1.07-1.76-1.88-3.07-2.43c-1.32-0.55-3.09-0.82-5.32-0.82
		c-3.37,0-5.82,0.57-7.36,1.7c-1.54,1.14-2.31,2.72-2.31,4.75c0,1.87,0.54,3.32,1.61,4.38c1.07,1.06,3.03,1.85,5.87,2.37l6.02,1.09
		c4.46,0.81,7.77,2.23,9.92,4.26c2.15,2.03,3.22,4.93,3.22,8.7c0,2.43-0.6,4.61-1.79,6.54c-1.2,1.93-3,3.46-5.41,4.59
		c-2.41,1.14-5.45,1.7-9.1,1.7c-3.41,0-6.41-0.48-9-1.43C108.11,221.44,106.04,219.93,104.5,217.86z"/>
	<path class="st1" d="M143.44,179.79c0-0.28,0.22-0.5,0.5-0.5h14.28c4.26,0,7.57,0.59,9.95,1.76c2.37,1.18,4.02,2.76,4.96,4.75
		s1.4,4.2,1.4,6.63c0,2.56-0.49,4.89-1.46,7s-2.64,3.78-4.99,5.02c-2.35,1.24-5.64,1.86-9.86,1.86h-8.27v16.06
		c0,0.2-0.17,0.37-0.37,0.37h-5.77c-0.2,0-0.37-0.17-0.37-0.37V179.79z M158.22,200.83c2.64,0,4.65-0.33,6.05-1
		c1.4-0.67,2.37-1.62,2.92-2.86c0.55-1.24,0.82-2.69,0.82-4.35c0-1.78-0.28-3.24-0.85-4.38c-0.57-1.13-1.57-1.99-3.01-2.55
		c-1.44-0.57-3.44-0.85-5.99-0.85h-8.21v16H158.22z"/>
	<path class="st1" d="M180.64,179.29h27.92c0.23,0,0.41,0.18,0.41,0.41v4.9c0,0.23-0.18,0.41-0.41,0.41h-27.92
		c-0.21,0-0.39-0.17-0.39-0.39v-4.95C180.26,179.46,180.43,179.29,180.64,179.29z M180.64,217.01h29.01c0.25,0,0.44,0.22,0.4,0.47
		l-0.78,4.9c-0.03,0.2-0.2,0.34-0.4,0.34h-28.22c-0.21,0-0.39-0.17-0.39-0.39v-4.95C180.26,217.18,180.43,217.01,180.64,217.01z
		 M180.64,197.54h28.21c0.23,0,0.41,0.18,0.41,0.41v4.9c0,0.23-0.18,0.41-0.41,0.41h-28.21c-0.21,0-0.39-0.17-0.39-0.39v-4.95
		C180.26,197.72,180.43,197.54,180.64,197.54z"/>
	<path class="st1" d="M234.82,186.53l-13,35.97c-0.05,0.14-0.18,0.22-0.32,0.22h-6.08c-0.24,0-0.41-0.24-0.32-0.47l16.45-42.71
		c0.06-0.16,0.21-0.26,0.39-0.26h6.19c0.17,0,0.32,0.11,0.39,0.27l16.39,42.71c0.09,0.22-0.08,0.46-0.32,0.46h-6.38
		c-0.14,0-0.27-0.09-0.32-0.22L234.82,186.53z"/>
	<path class="st1" d="M260.73,179.29h6.1c0.2,0,0.36,0.16,0.36,0.36v19.72l19.06-19.96c0.07-0.07,0.16-0.11,0.26-0.11h6.5
		c0.31,0,0.48,0.37,0.26,0.6l-14.64,15.64l16.45,26.65c0.15,0.24-0.02,0.55-0.31,0.55h-6.82c-0.12,0-0.24-0.06-0.31-0.17
		l-13.83-22.46l-6.63,6.87v15.4c0,0.2-0.16,0.36-0.36,0.36h-6.1c-0.2,0-0.36-0.16-0.36-0.36v-42.72
		C260.37,179.45,260.53,179.29,260.73,179.29z"/>
	<path class="st1" d="M301.19,217.01h29.06c0.21,0,0.36,0.18,0.33,0.39l-0.81,5.05c-0.03,0.16-0.17,0.28-0.33,0.28h-28.25
		c-0.23,0-0.42-0.19-0.42-0.42v-4.87C300.76,217.2,300.95,217.01,301.19,217.01z M301.19,197.54h26.74c0.19,0,0.34,0.15,0.34,0.34
		v5.05c0,0.19-0.15,0.34-0.34,0.34h-26.74c-0.23,0-0.42-0.19-0.42-0.42v-4.87C300.76,197.73,300.95,197.54,301.19,197.54z
		 M301.19,179.29h27.96c0.19,0,0.34,0.15,0.34,0.34v5.05c0,0.19-0.15,0.34-0.34,0.34h-27.96c-0.23,0-0.42-0.19-0.42-0.42v-4.87
		C300.76,179.48,300.95,179.29,301.19,179.29z"/>
	<path class="st1" d="M337.33,179.29h14.72c3.2,0,5.86,0.34,7.97,1.03c2.11,0.69,3.76,1.63,4.96,2.83c1.2,1.2,2.04,2.55,2.53,4.05
		c0.49,1.5,0.73,3.04,0.73,4.62c0,2.76-0.58,5.12-1.73,7.09s-3.01,3.52-5.57,4.65l8.88,18.65c0.11,0.24-0.06,0.51-0.32,0.51h-6.38
		c-0.14,0-0.27-0.08-0.33-0.21l-7.93-17.43c-0.49,0.04-1,0.07-1.55,0.09c-0.55,0.02-1.04,0.03-1.49,0.03h-8.03v17.16
		c0,0.2-0.16,0.36-0.36,0.36h-5.73c-0.2,0-0.36-0.16-0.36-0.36V179.29z M352.42,199.73c2.43,0,4.31-0.31,5.63-0.94
		c1.32-0.63,2.24-1.52,2.77-2.68c0.53-1.16,0.79-2.53,0.79-4.11c0-1.54-0.28-2.85-0.85-3.92c-0.57-1.07-1.56-1.9-2.98-2.46
		c-1.42-0.57-3.41-0.85-5.96-0.85h-8.03v14.97H352.42z"/>
	<path class="st1" d="M376.02,217.86c-1.48-1.99-2.39-4.55-2.7-7.67c-0.02-0.19,0.13-0.36,0.32-0.36h5.95
		c0.15,0,0.28,0.12,0.31,0.27c0.47,2.82,1.6,4.87,3.36,6.15c1.83,1.32,4.5,1.98,8.03,1.98c2.39,0,4.27-0.32,5.63-0.97
		c1.36-0.65,2.32-1.51,2.89-2.59c0.57-1.07,0.85-2.26,0.85-3.56c0-1.05-0.19-2.05-0.58-2.98c-0.39-0.93-1.09-1.74-2.13-2.43
		c-1.03-0.69-2.57-1.22-4.59-1.58l-5.54-1.03c-2.88-0.53-5.33-1.27-7.36-2.22c-2.03-0.95-3.58-2.25-4.65-3.89
		c-1.07-1.64-1.61-3.78-1.61-6.42c0-2.76,0.71-5.05,2.13-6.87c1.42-1.83,3.37-3.2,5.84-4.11c2.47-0.91,5.25-1.37,8.33-1.37
		c3.85,0,6.91,0.55,9.16,1.64c2.25,1.09,3.92,2.54,5.02,4.35c1.04,1.71,1.75,3.54,2.13,5.48c0.04,0.18-0.09,0.35-0.27,0.38
		l-5.6,0.93c-0.16,0.03-0.31-0.08-0.35-0.24c-0.4-1.5-0.94-2.75-1.63-3.76c-0.73-1.07-1.76-1.88-3.07-2.43
		c-1.32-0.55-3.09-0.82-5.32-0.82c-3.37,0-5.82,0.57-7.36,1.7c-1.54,1.14-2.31,2.72-2.31,4.75c0,1.87,0.54,3.32,1.61,4.38
		c1.07,1.06,3.03,1.85,5.87,2.37l6.02,1.09c4.46,0.81,7.77,2.23,9.92,4.26c2.15,2.03,3.22,4.93,3.22,8.7c0,2.43-0.6,4.61-1.79,6.54
		s-3,3.46-5.41,4.59c-2.41,1.14-5.45,1.7-9.1,1.7c-3.41,0-6.41-0.48-9-1.43C379.63,221.44,377.56,219.93,376.02,217.86z"/>
	<path class="st1" d="M343.28,116.19h18.91c0.19,0,0.34,0.15,0.34,0.34v5.05c0,0.19-0.15,0.34-0.34,0.34h-18.91
		c-0.23,0-0.42-0.19-0.42-0.42v-4.87C342.86,116.38,343.05,116.19,343.28,116.19z"/>
	<path class="st1" d="M175.77,107.15h18.91c0.19,0,0.34,0.15,0.34,0.34v5.05c0,0.19-0.15,0.34-0.34,0.34h-18.91
		c-0.23,0-0.42-0.19-0.42-0.42v-4.87C175.35,107.34,175.54,107.15,175.77,107.15z"/>
	<path class="st1" d="M175.77,96.87h8.35c0.19,0,0.34,0.15,0.34,0.34v5.05c0,0.19-0.15,0.34-0.34,0.34h-8.35
		c-0.23,0-0.42-0.19-0.42-0.42v-4.87C175.35,97.06,175.54,96.87,175.77,96.87z"/>
	<path class="st1" d="M119.52,113.18h8.35c0.19,0,0.34,0.15,0.34,0.34v5.05c0,0.19-0.15,0.34-0.34,0.34h-8.35
		c-0.23,0-0.42-0.19-0.42-0.42v-4.87C119.1,113.37,119.29,113.18,119.52,113.18z"/>
</g>
</svg>
