<svg xmlns="http://www.w3.org/2000/svg" xmlns:xlink="http://www.w3.org/1999/xlink" width="135" height="82" viewBox="0 0 135 82">
  <defs>
    <clipPath id="clip-logo-white2">
      <rect width="135" height="82"/>
    </clipPath>
  </defs>
  <g id="logo-white2" clip-path="url(#clip-logo-white2)">
    <g id="Group_494" data-name="Group 494" transform="translate(-0.466 -2.999)">
      <path id="Path_4857" data-name="Path 4857" d="M42.062,12.712q-.125-.282-.26-.559a.308.308,0,0,0-.277-.171H5.285a.307.307,0,0,0-.277.175l-.263.555Z" transform="translate(6.083 3.458)" fill="#fff"/>
      <path id="Path_4858" data-name="Path 4858" d="M5.482,60.353q.212.437.45.859a.31.31,0,0,0,.27.157H41.786q.287-.5.54-1.015a.307.307,0,0,0-.279-.437H5.761a.307.307,0,0,0-.279.437" transform="translate(5.579 -30.711)" fill="#fff"/>
      <path id="Path_4859" data-name="Path 4859" d="M1.29,48.306q.075.338.165.671a.31.31,0,0,0,.3.228H40.346c.084-.3.163-.6.231-.9a.307.307,0,0,0-.3-.371H1.593a.31.31,0,0,0-.3.374" transform="translate(8.551 -22.169)" fill="#fff"/>
      <path id="Path_4860" data-name="Path 4860" d="M39.739,35.949H.307A.305.305,0,0,0,0,36.255c0,.149,0,.327,0,.484a.306.306,0,0,0,.306.3H40.023c.012-.262.025-.525.024-.791a.306.306,0,0,0-.308-.3" transform="translate(9.465 -13.627)" fill="#fff"/>
      <path id="Path_4861" data-name="Path 4861" d="M40.565,24.876q-.061-.338-.136-.672a.308.308,0,0,0-.3-.239H1.469a.309.309,0,0,0-.3.239q-.034.152-.066.306a.307.307,0,0,0,.3.366Z" transform="translate(8.684 -5.084)" fill="#fff"/>
      <path id="Path_4862" data-name="Path 4862" d="M45.333.549Q45.15.324,44.96.106A.313.313,0,0,0,44.724,0h-31.8c-.161.181-.322.362-.474.55Z" transform="translate(0.594 12)" fill="#fff"/>
      <path id="Path_4863" data-name="Path 4863" d="M45.658,72.41a.308.308,0,0,0-.23-.512H13.681a.308.308,0,0,0-.231.511q.466.539.978,1.035a.31.31,0,0,0,.217.087H44.581c.376-.357.736-.731,1.077-1.121" transform="translate(-0.068 -39.253)" fill="#fff"/>
      <path id="Path_4864" data-name="Path 4864" d="M80.724,2.463c-.108-.146-.216-.291-.328-.433a.308.308,0,0,0-.242-.117H47.414c-.145.179-.284.364-.421.55H80.724Z" transform="translate(-24.033 10.636)" fill="#fff"/>
      <path id="Path_4865" data-name="Path 4865" d="M77.81,14.829l-.048-.117a.308.308,0,0,0-.284-.187H40.359c-.045.1-.087.2-.129.3a.308.308,0,0,0,.283.426H77.527a.308.308,0,0,0,.284-.426" transform="translate(-19.195 1.645)" fill="#fff"/>
      <path id="Path_4866" data-name="Path 4866" d="M76.278,27.7q-.022-.153-.048-.306a.308.308,0,0,0-.3-.256H36.657q-.05.28-.092.562a.307.307,0,0,0,.305.349h39.1a.307.307,0,0,0,.305-.349" transform="translate(-16.597 -7.345)" fill="#fff"/>
      <path id="Path_4867" data-name="Path 4867" d="M71.6,39.75H36.062q.019.41.057.815a.308.308,0,0,0,.308.277H75.7a.308.308,0,0,0,.308-.277q.023-.243.039-.488a.309.309,0,0,0-.308-.326Z" transform="translate(-16.241 -16.336)" fill="#fff"/>
      <path id="Path_4868" data-name="Path 4868" d="M73.2,64.974H43.451q.395.684.852,1.324a.312.312,0,0,0,.253.129H78.112a.311.311,0,0,0,.253-.129q.3-.419.572-.858a.307.307,0,0,0-.264-.465H73.2Z" transform="translate(-21.508 -34.317)" fill="#fff"/>
      <path id="Path_4869" data-name="Path 4869" d="M53.384,77.586A16.134,16.134,0,0,0,55.4,79.219H81.339a.316.316,0,0,0,.18-.056,15.753,15.753,0,0,0,1.33-1.035.309.309,0,0,0-.2-.542Z" transform="translate(-28.589 -43.307)" fill="#fff"/>
      <path id="Path_4870" data-name="Path 4870" d="M70.933,52.362H38.117q.154.542.342,1.068a.311.311,0,0,0,.293.2H76.31a.311.311,0,0,0,.293-.2q.119-.332.224-.671a.309.309,0,0,0-.3-.4h-5.6Z" transform="translate(-17.706 -25.327)" fill="#fff"/>
      <path id="Path_4871" data-name="Path 4871" d="M60.364,83.274c2.557,1.717,6.733,4.249,9.362,4.249V83.274Z" transform="translate(-33.564 -47.362)" fill="#fff"/>
      <path id="Path_4872" data-name="Path 4872" d="M114.171,124q-.189-1.041-.422-1.873a.144.144,0,0,0-.193-.092l-1.592.629a.141.141,0,0,0-.086.17q.176.621.333,1.35.173.8.314,1.57t.227,1.363a6.884,6.884,0,0,1,.087.834,2.265,2.265,0,0,1-.53,1.472,3.508,3.508,0,0,1-1.451,1.017,5.652,5.652,0,0,1-2.111.368,3.773,3.773,0,0,1-2.8-.974,3.836,3.836,0,0,1-.963-2.814,9.333,9.333,0,0,1,.162-1.624q.154-.863.474-2.212a.147.147,0,0,0-.111-.178l-1.431-.29a.147.147,0,0,0-.169.106q-.406,1.5-.6,2.616a12.1,12.1,0,0,0-.206,2.078,5.513,5.513,0,0,0,1.5,4.146,5.637,5.637,0,0,0,4.1,1.461,6.741,6.741,0,0,0,3.15-.693,5.133,5.133,0,0,0,2.057-1.873,5,5,0,0,0,.725-2.674,14.505,14.505,0,0,0-.13-1.7q-.13-1.051-.336-2.187" transform="translate(-64.027 -74.987)" fill="#fff"/>
      <path id="Path_4873" data-name="Path 4873" d="M167.036,121.786q-.1-.92-.238-1.851-.123-.809-.237-1.489a.166.166,0,0,0-.225-.125l-1.559.609a.163.163,0,0,0-.1.189q.156.679.293,1.465.151.866.271,1.688t.195,1.461a8.968,8.968,0,0,1,.076.942,1.061,1.061,0,0,1-.758,1,7.362,7.362,0,0,1-2.619.325h-1.689a10.482,10.482,0,0,0-.6-3.431,5.613,5.613,0,0,0-1.449-2.258,3.469,3.469,0,0,0-1.78-.85,3.07,3.07,0,0,0-2.476.662,4.91,4.91,0,0,0-1.418,1.894,6.472,6.472,0,0,0-.53,2.663,3.508,3.508,0,0,0,.974,2.738,4.47,4.47,0,0,0,3.052.877h2.1a3.753,3.753,0,0,1-2.078,1.764,17.581,17.581,0,0,1-4.037.954.214.214,0,0,0-.181.252l.369,1.775a.216.216,0,0,0,.235.169,12.645,12.645,0,0,0,5.163-1.516,5.3,5.3,0,0,0,2.435-3.377h1.905a6.794,6.794,0,0,0,3.843-.888,3.13,3.13,0,0,0,1.288-2.771q0-.433-.065-1.191t-.163-1.678m-10.489,4.276a4.012,4.012,0,0,1-2.068-.379,1.524,1.524,0,0,1-.574-1.375,3.242,3.242,0,0,1,.585-1.981,1.7,1.7,0,0,1,1.386-.79,1.98,1.98,0,0,1,1.407.606,4.294,4.294,0,0,1,1.006,1.635,7.312,7.312,0,0,1,.422,2.284Z" transform="translate(-98.901 -72.337)" fill="#fff"/>
      <path id="Path_4874" data-name="Path 4874" d="M268.662,118.328a5.5,5.5,0,0,0-1.494-2.013,3.158,3.158,0,0,0-2.057-.769q-2.013,0-3.529,2.619l-1.212,2.057a4.241,4.241,0,0,1-1.321,1.473,2.921,2.921,0,0,1-1.645.519,4.014,4.014,0,0,1-2.186-.455,1.516,1.516,0,0,1-.671-1.342q0-.216.022-.574t.043-.573l.136-1.593a.168.168,0,0,0-.167-.182h-1.4a.168.168,0,0,0-.167.15l-.287,2.772a2.661,2.661,0,0,1-.238.845,1.413,1.413,0,0,1-.812.714,5.664,5.664,0,0,1-1.938.238H242.33c.946-.359,1.829-.709,2.648-1.018,0,0,2.231-.953,2.617-1.134a.173.173,0,0,0,.105-.156l.229-1.7a.112.112,0,0,0-.094-.125,12.58,12.58,0,0,1-1.255-.275c-3.283-.881-6.951-2.83-9.588-2.83-2.108,0-3.5,1.923-3.787,2.357a.124.124,0,0,0,.019.158l1.058,1.021a.124.124,0,0,0,.183-.008c.331-.4,1.6-1.732,2.878-1.732,1.674,0,3.546,1.143,7.657,2.431-4.174,1.8-9.97,3.639-15.538,3.639-1.17,0-4.235.18-5.592-1.116a4,4,0,0,1-.931-1.873l-1.76-6.683a.227.227,0,0,0-.281-.161l-1.4.4a.227.227,0,0,0-.158.278l2.085,7.707a3.229,3.229,0,0,1-1.234.779,5.311,5.311,0,0,1-1.84.281,3.475,3.475,0,0,1-2.263-.584,2,2,0,0,1-.682-1.6V119.3a.222.222,0,0,0-.223-.222h-1.265a.222.222,0,0,0-.222.222v1.661a3.631,3.631,0,0,0,1.06,2.814,4.855,4.855,0,0,0,3.356.974,6.134,6.134,0,0,0,2.414-.422,4.2,4.2,0,0,0,1.656-1.266c.934,1.621,4.3,1.9,6.747,1.9a34.891,34.891,0,0,0,12.113-2.272,2.316,2.316,0,0,0,2.266,1.839h6.433a6.4,6.4,0,0,0,2.4-.368,2.616,2.616,0,0,0,1.321-1.126,2.579,2.579,0,0,0,1.407,1.159,6.592,6.592,0,0,0,2.23.335h.17a4.4,4.4,0,0,0,2.07-.48,5.3,5.3,0,0,0,1.831-1.664,6.105,6.105,0,0,0,1.965,1.69,5.493,5.493,0,0,0,2.445.667,3.474,3.474,0,0,0,2.712-.939,3.8,3.8,0,0,0,.931-2.782,6.47,6.47,0,0,0-.563-2.7m-1.386,3.659a1.141,1.141,0,0,1-.638.4,3.245,3.245,0,0,1-.725.087,4.215,4.215,0,0,1-2.165-.519,4.343,4.343,0,0,1-1.472-1.429l.476-.822q1.082-1.948,2.36-1.948a1.79,1.79,0,0,1,1.245.509,3.55,3.55,0,0,1,.866,1.255,3.859,3.859,0,0,1,.314,1.5,1.488,1.488,0,0,1-.26.963" transform="translate(-142.866 -68.553)" fill="#fff"/>
      <path id="Path_4875" data-name="Path 4875" d="M102.121,189.411a4.319,4.319,0,0,1-.771-2.151.141.141,0,0,1,.138-.155h1.62a.136.136,0,0,1,.132.114,2.571,2.571,0,0,0,.96,1.729,3.917,3.917,0,0,0,2.306.568,3.818,3.818,0,0,0,1.616-.279,1.746,1.746,0,0,0,.83-.743,2.156,2.156,0,0,0,.244-1.022,2.217,2.217,0,0,0-.166-.856,1.572,1.572,0,0,0-.611-.7,3.555,3.555,0,0,0-1.319-.454l-1.59-.3a8.641,8.641,0,0,1-2.114-.637,3.143,3.143,0,0,1-1.337-1.118,3.31,3.31,0,0,1-.463-1.843,3.118,3.118,0,0,1,.612-1.974,3.67,3.67,0,0,1,1.677-1.179,6.873,6.873,0,0,1,2.393-.393,6.083,6.083,0,0,1,2.63.472,3.325,3.325,0,0,1,1.441,1.249,4.8,4.8,0,0,1,.6,1.527.14.14,0,0,1-.114.165l-1.521.253a.136.136,0,0,1-.152-.1,3.514,3.514,0,0,0-.457-1.042,1.937,1.937,0,0,0-.882-.7,4.07,4.07,0,0,0-1.529-.236,3.605,3.605,0,0,0-2.114.489,1.6,1.6,0,0,0-.664,1.363,1.68,1.68,0,0,0,.463,1.257,3.3,3.3,0,0,0,1.686.682l1.73.314a5.537,5.537,0,0,1,2.848,1.223,3.269,3.269,0,0,1,.926,2.5,3.485,3.485,0,0,1-.515,1.878,3.538,3.538,0,0,1-1.555,1.319,6.129,6.129,0,0,1-2.612.489,7.482,7.482,0,0,1-2.586-.411,3.789,3.789,0,0,1-1.782-1.3" transform="translate(-62.78 -114.901)" fill="#fff"/>
      <path id="Path_4876" data-name="Path 4876" d="M142.973,179.26a.144.144,0,0,1,.144-.144h4.1a6.548,6.548,0,0,1,2.856.507,2.929,2.929,0,0,1,1.424,1.363,4.425,4.425,0,0,1,.4,1.9,4.738,4.738,0,0,1-.419,2.009,3.091,3.091,0,0,1-1.433,1.441,6.159,6.159,0,0,1-2.83.533h-2.376v4.611a.106.106,0,0,1-.106.106h-1.657a.106.106,0,0,1-.106-.106Zm4.245,6.04a4.145,4.145,0,0,0,1.738-.288,1.646,1.646,0,0,0,.839-.821,3.064,3.064,0,0,0,.236-1.249,2.814,2.814,0,0,0-.245-1.258,1.55,1.55,0,0,0-.865-.734,4.845,4.845,0,0,0-1.721-.244h-2.358V185.3Z" transform="translate(-92.452 -115.682)" fill="#fff"/>
      <path id="Path_4877" data-name="Path 4877" d="M179.9,179.116h8.018a.117.117,0,0,1,.117.117v1.408a.117.117,0,0,1-.117.117H179.9a.111.111,0,0,1-.111-.111v-1.42a.111.111,0,0,1,.111-.111m0,10.831h8.33a.117.117,0,0,1,.116.136l-.225,1.408a.117.117,0,0,1-.116.1h-8.1a.111.111,0,0,1-.111-.111v-1.42a.111.111,0,0,1,.111-.111m0-5.59H188a.117.117,0,0,1,.117.117v1.408A.117.117,0,0,1,188,186h-8.1a.111.111,0,0,1-.111-.111v-1.42a.111.111,0,0,1,.111-.111" transform="translate(-118.698 -115.682)" fill="#fff"/>
      <path id="Path_4878" data-name="Path 4878" d="M220.281,181.2l-3.732,10.33a.1.1,0,0,1-.092.065h-1.745a.1.1,0,0,1-.092-.134l4.723-12.264a.119.119,0,0,1,.111-.076h1.776a.119.119,0,0,1,.111.076l4.706,12.264a.1.1,0,0,1-.092.134h-1.833a.1.1,0,0,1-.092-.065Z" transform="translate(-143.52 -115.682)" fill="#fff"/>
      <path id="Path_4879" data-name="Path 4879" d="M260.006,179.116h1.75a.1.1,0,0,1,.1.1v5.662l5.473-5.733a.1.1,0,0,1,.075-.032h1.867a.1.1,0,0,1,.075.173l-4.205,4.491,4.725,7.652a.1.1,0,0,1-.088.157h-1.959a.1.1,0,0,1-.088-.049l-3.971-6.45-1.9,1.974v4.422a.1.1,0,0,1-.1.1h-1.75a.1.1,0,0,1-.1-.1V179.219a.1.1,0,0,1,.1-.1" transform="translate(-175.804 -115.682)" fill="#fff"/>
      <path id="Path_4880" data-name="Path 4880" d="M300.421,189.947h8.343a.1.1,0,0,1,.095.111l-.231,1.45a.1.1,0,0,1-.095.081h-8.112a.122.122,0,0,1-.122-.122v-1.4a.122.122,0,0,1,.122-.121m0-5.59H308.1a.1.1,0,0,1,.1.1v1.45a.1.1,0,0,1-.1.1h-7.679a.122.122,0,0,1-.122-.121v-1.4a.122.122,0,0,1,.122-.122m0-5.241h8.028a.1.1,0,0,1,.1.1v1.45a.1.1,0,0,1-.1.1h-8.028a.122.122,0,0,1-.122-.122v-1.4a.122.122,0,0,1,.122-.122" transform="translate(-204.6 -115.682)" fill="#fff"/>
      <path id="Path_4881" data-name="Path 4881" d="M336.864,179.116h4.228a7.484,7.484,0,0,1,2.289.3,3.533,3.533,0,0,1,1.424.812,2.9,2.9,0,0,1,.725,1.162,4.274,4.274,0,0,1,.21,1.328,3.949,3.949,0,0,1-.5,2.036,3.351,3.351,0,0,1-1.6,1.336l2.551,5.356a.1.1,0,0,1-.093.147h-1.833a.1.1,0,0,1-.093-.06l-2.279-5.006q-.21.018-.446.026c-.157.006-.3.009-.428.009h-2.306v4.928a.1.1,0,0,1-.1.1h-1.646a.1.1,0,0,1-.1-.1Zm4.333,5.87a3.857,3.857,0,0,0,1.616-.271,1.578,1.578,0,0,0,.795-.769,2.828,2.828,0,0,0,.227-1.179,2.39,2.39,0,0,0-.245-1.127,1.582,1.582,0,0,0-.856-.708,4.762,4.762,0,0,0-1.712-.245h-2.306v4.3Z" transform="translate(-230.665 -115.682)" fill="#fff"/>
      <path id="Path_4882" data-name="Path 4882" d="M373.629,189.411a4.354,4.354,0,0,1-.776-2.2.1.1,0,0,1,.093-.1h1.708a.091.091,0,0,1,.088.077,2.592,2.592,0,0,0,.966,1.766,3.917,3.917,0,0,0,2.306.568,3.818,3.818,0,0,0,1.616-.279,1.747,1.747,0,0,0,.83-.743,2.156,2.156,0,0,0,.244-1.022,2.217,2.217,0,0,0-.166-.856,1.572,1.572,0,0,0-.611-.7,3.556,3.556,0,0,0-1.319-.454l-1.59-.3a8.642,8.642,0,0,1-2.113-.637,3.143,3.143,0,0,1-1.337-1.118,3.311,3.311,0,0,1-.463-1.843,3.118,3.118,0,0,1,.612-1.974,3.67,3.67,0,0,1,1.677-1.179,6.873,6.873,0,0,1,2.393-.393,6.083,6.083,0,0,1,2.63.472,3.325,3.325,0,0,1,1.441,1.249,4.8,4.8,0,0,1,.611,1.574.1.1,0,0,1-.077.111l-1.607.268a.092.092,0,0,1-.1-.068,3.548,3.548,0,0,0-.468-1.081,1.937,1.937,0,0,0-.882-.7,4.07,4.07,0,0,0-1.529-.236,3.605,3.605,0,0,0-2.114.489,1.6,1.6,0,0,0-.664,1.363,1.68,1.68,0,0,0,.463,1.257,3.3,3.3,0,0,0,1.686.682l1.73.314a5.537,5.537,0,0,1,2.848,1.223,3.269,3.269,0,0,1,.926,2.5,3.485,3.485,0,0,1-.515,1.878,3.538,3.538,0,0,1-1.555,1.319,6.129,6.129,0,0,1-2.612.489,7.48,7.48,0,0,1-2.586-.411,3.789,3.789,0,0,1-1.782-1.3" transform="translate(-256.319 -114.901)" fill="#fff"/>
      <path id="Path_4883" data-name="Path 4883" d="M342.513,116.018h5.43a.1.1,0,0,1,.1.1v1.45a.1.1,0,0,1-.1.1h-5.43a.122.122,0,0,1-.122-.122v-1.4a.122.122,0,0,1,.122-.122" transform="translate(-234.605 -70.703)" fill="#fff"/>
      <path id="Path_4884" data-name="Path 4884" d="M175,106.97h5.43a.1.1,0,0,1,.1.1v1.45a.1.1,0,0,1-.1.1H175a.122.122,0,0,1-.122-.122v-1.4a.122.122,0,0,1,.122-.122" transform="translate(-115.198 -64.253)" fill="#fff"/>
      <path id="Path_4885" data-name="Path 4885" d="M175,96.691h2.4a.1.1,0,0,1,.1.1v1.45a.1.1,0,0,1-.1.1H175a.122.122,0,0,1-.122-.122v-1.4a.122.122,0,0,1,.122-.122" transform="translate(-115.198 -56.926)" fill="#fff"/>
      <path id="Path_4886" data-name="Path 4886" d="M118.755,113h2.4a.1.1,0,0,1,.1.1v1.45a.1.1,0,0,1-.1.1h-2.4a.122.122,0,0,1-.122-.122v-1.4a.122.122,0,0,1,.122-.122" transform="translate(-75.101 -68.553)" fill="#fff"/>
    </g>
  </g>
</svg>
