<svg xmlns="http://www.w3.org/2000/svg" xmlns:xlink="http://www.w3.org/1999/xlink" width="135" height="82" viewBox="0 0 135 82">
  <defs>
    <clipPath id="clip-mom-logo">
      <rect width="135" height="82"/>
    </clipPath>
  </defs>
  <g id="mom-logo" clip-path="url(#clip-mom-logo)">
    <g id="Group_536" data-name="Group 536" transform="translate(5555.174 -1618.724)">
      <path id="Path_4956" data-name="Path 4956" d="M534.476,64.877a.95.95,0,0,1-.786-.5,1.733,1.733,0,0,1-.3-1.066,1.268,1.268,0,0,1,.305-.916,1.055,1.055,0,0,1,.741-.313v0a11.51,11.51,0,0,1,1.527.133V61.27a11.511,11.511,0,0,0-1.527-.133,2.638,2.638,0,0,0-.845.15,1.987,1.987,0,0,0-.709.433,1.91,1.91,0,0,0-.458.683,2.419,2.419,0,0,0-.163.911,1.748,1.748,0,0,0,.054.418,2.554,2.554,0,0,0,.137.4,3.025,3.025,0,0,0,.188.352,2.614,2.614,0,0,0,.3.351v.039h-5.2a.926.926,0,0,1-.293-.051.713.713,0,0,1-.262-.164.879.879,0,0,1-.186-.286,1.088,1.088,0,0,1-.072-.418V59l-1.128.444v4.7a.821.821,0,0,1-.067.355.652.652,0,0,1-.167.225.587.587,0,0,1-.215.118.766.766,0,0,1-.211.033h-.893V61.111l-1.128.444v3.322h-1.063v.967h2.969c.1,0,.22-.008.354-.021a2.263,2.263,0,0,0,.846-.252,1.306,1.306,0,0,0,.388-.31,1.5,1.5,0,0,0,.536.414,1.58,1.58,0,0,0,.707.17h.4c.015,0,.025,0,.039,0s.022,0,.036,0h8.194v-.967Z" transform="translate(-6028.684 1616.154)" fill="#fff"/>
      <path id="Path_4957" data-name="Path 4957" d="M545.565,63.957V59l-1.128.444v4.7a.823.823,0,0,1-.067.357.7.7,0,0,1-.167.225.582.582,0,0,1-.215.116.779.779,0,0,1-.21.033h-.893V61.111l-1.128.444v3.322h-1.065v.967h2.97c.1,0,.221-.007.354-.02a2.224,2.224,0,0,0,.416-.081,1.759,1.759,0,0,0,.431-.173c.379-.221.7-.638.7-1.614" transform="translate(-6031.478 1616.154)" fill="#fff"/>
      <path id="Path_4958" data-name="Path 4958" d="M549.128,59l-1.09.431v6.411h1.09Z" transform="translate(-6032.58 1616.154)" fill="#fff"/>
      <path id="Path_4959" data-name="Path 4959" d="M556.409,62.113a2.018,2.018,0,0,0-.745-.445,3.176,3.176,0,0,0-1.942,0,2,2,0,0,0-.744.445,1.95,1.95,0,0,0-.484.737,3.13,3.13,0,0,0,0,2.045,1.967,1.967,0,0,0,.484.738,2.01,2.01,0,0,0,.744.445,3.227,3.227,0,0,0,1.942,0,1.951,1.951,0,0,0,1.228-1.182,3.146,3.146,0,0,0,0-2.045,2,2,0,0,0-.484-.737m-.78,2.754a1.311,1.311,0,0,1-1.873,0,1.723,1.723,0,0,1,0-1.99,1.309,1.309,0,0,1,1.873,0,1.727,1.727,0,0,1,0,1.99" transform="translate(-6033.222 1615.777)" fill="#fff"/>
      <path id="Path_4960" data-name="Path 4960" d="M559.974,68.108a2.939,2.939,0,0,0,.378-1.629V61.5l-1.09.429V66.48a3.933,3.933,0,0,1-.047.666,1.2,1.2,0,0,1-.135.391.43.43,0,0,1-.21.183.825.825,0,0,1-.287.046h-.717v.912h.832a1.418,1.418,0,0,0,1.276-.569" transform="translate(-6034.053 1615.779)" fill="#fff"/>
      <path id="Path_4961" data-name="Path 4961" d="M563.489,59l-1.091.445v6.3h1.091Z" transform="translate(-6034.732 1616.154)" fill="#fff"/>
      <path id="Path_4962" data-name="Path 4962" d="M565.789,68.11a2.948,2.948,0,0,0,.377-1.629V61.517l-1.089.431v4.533a3.744,3.744,0,0,1-.048.666,1.183,1.183,0,0,1-.133.391.442.442,0,0,1-.21.183.834.834,0,0,1-.288.046h-.717v.912h.832a1.421,1.421,0,0,0,1.277-.569" transform="translate(-6034.925 1615.777)" fill="#fff"/>
      <path id="Path_4963" data-name="Path 4963" d="M566.409,59v1.31l-1.091-.429V59Z" transform="translate(-6035.17 1616.154)" fill="#fff"/>
      <path id="Path_4964" data-name="Path 4964" d="M556.778,59v1.31l-1.091-.429V59Z" transform="translate(-6033.727 1616.154)" fill="#fff"/>
      <path id="Path_4965" data-name="Path 4965" d="M554.344,59v1.31l-1.091-.429V59Z" transform="translate(-6033.361 1616.154)" fill="#fff"/>
      <path id="Path_4966" data-name="Path 4966" d="M542.5,69.289a.335.335,0,0,1-.267-.109.4.4,0,0,1-.1-.286.41.41,0,0,1,.086-.276.278.278,0,0,1,.219-.1,4.337,4.337,0,0,1,.576.05v-.355a4.2,4.2,0,0,0-.576-.052.816.816,0,0,0-.563.179.642.642,0,0,0-.2.507.657.657,0,0,0,.153.4v.039h-.325v.385h1.7v-.385Z" transform="translate(-6031.601 1614.781)" fill="#fff"/>
      <path id="Path_4967" data-name="Path 4967" d="M572.6,63.136a2.249,2.249,0,0,0-.372-.882,1.639,1.639,0,0,0-.7-.547,2.788,2.788,0,0,0-1.091-.189,2.558,2.558,0,0,0-1.079.2,1.813,1.813,0,0,0-.685.535,1.993,1.993,0,0,0-.351.771,4.9,4.9,0,0,0-.1,1.009,2.343,2.343,0,0,0,.167.9,2.007,2.007,0,0,0,.474.694,2.085,2.085,0,0,0,.721.446,2.642,2.642,0,0,0,.923.156h.3a3.616,3.616,0,0,0,.736-.5c-.083,1.1-.268,2.027-1.83,2.027H568.8v.92h1.049a3.576,3.576,0,0,0,1.349-.221,1.942,1.942,0,0,0,.882-.707,4.394,4.394,0,0,0,.484-1.469,10.2,10.2,0,0,0,.143-1.853,6.974,6.974,0,0,0-.11-1.291m-1.027,2.126H570.5a1.153,1.153,0,0,1-.87-.292,1.325,1.325,0,0,1-.276-.937,4.1,4.1,0,0,1,.052-.663,1.293,1.293,0,0,1,.182-.464.956.956,0,0,1,.344-.315,1.132,1.132,0,0,1,.541-.116.911.911,0,0,1,.884.46,3.474,3.474,0,0,1,.243,1.445c0,.326-.01.62-.028.882" transform="translate(-6035.604 1615.777)" fill="#fff"/>
      <path id="Path_4968" data-name="Path 4968" d="M519.784,62.807a1.977,1.977,0,0,0-.5-.721,2.048,2.048,0,0,0-.754-.434,3.139,3.139,0,0,0-.95-.14,2.886,2.886,0,0,0-.952.151,2.1,2.1,0,0,0-.756.445,2.028,2.028,0,0,0-.5.723,2.449,2.449,0,0,0-.178.967,2.491,2.491,0,0,0,.239.971,2.912,2.912,0,0,0,.816.5,2.415,2.415,0,0,0-.433.02c-.069.011-.137.024-.2.037l-.032.01a2.138,2.138,0,0,0-.488.173,1.5,1.5,0,0,0-.5.4,1.959,1.959,0,0,0-.386,1.248v1.506h1.091V67.148a1.381,1.381,0,0,1,.042-.346.72.72,0,0,1,.158-.3.745.745,0,0,1,.31-.207,1.415,1.415,0,0,1,.5-.075h1.263a3.225,3.225,0,0,0,.974-.14,2.009,2.009,0,0,0,.752-.428,1.933,1.933,0,0,0,.482-.718,3.447,3.447,0,0,0,.171-1.135,2.545,2.545,0,0,0-.176-.991m-1.272,2.108a1.341,1.341,0,0,1-1.863,0,1.836,1.836,0,0,1-.321-1.117,1.446,1.446,0,0,1,.315-.976,1.345,1.345,0,0,1,1.875,0,1.454,1.454,0,0,1,.315.976,1.836,1.836,0,0,1-.321,1.117" transform="translate(-6027.509 1615.778)" fill="#fff"/>
      <path id="Path_4969" data-name="Path 4969" d="M510.669,74.125v6.239h-1.08V75.982a8.078,8.078,0,0,1-.394.887l-1.318,2.59h-.944l-1.3-2.59a7.448,7.448,0,0,1-.423-.9v4.4h-1.061V74.125h1.186l1.415,2.744a11.616,11.616,0,0,1,.666,1.493,11.006,11.006,0,0,1,.662-1.493l1.426-2.744Z" transform="translate(-6026 1613.887)" fill="#fff"/>
      <path id="Path_4970" data-name="Path 4970" d="M512.863,76.439l1.04-.107V80.7h-1.04Z" transform="translate(-6027.307 1613.556)" fill="#fff"/>
      <path id="Path_4971" data-name="Path 4971" d="M518.986,77.617v3.072h-1.041V77.954c0-.625-.173-.828-.683-.828a2.54,2.54,0,0,0-1.089.3v3.264h-1.04V76.433l1.04-.105v.414a3.028,3.028,0,0,1,1.5-.453,1.172,1.172,0,0,1,1.31,1.329" transform="translate(-6027.646 1613.563)" fill="#fff"/>
      <path id="Path_4972" data-name="Path 4972" d="M520.709,76.439l1.04-.107V80.7h-1.04Z" transform="translate(-6028.482 1613.556)" fill="#fff"/>
      <path id="Path_4973" data-name="Path 4973" d="M522.977,80.236l.443-.7a2.481,2.481,0,0,0,1.454.492c.51,0,.771-.174.771-.483,0-.25-.163-.434-.886-.627l-.289-.077c-.9-.241-1.3-.605-1.3-1.271,0-.761.694-1.28,1.666-1.28a3.294,3.294,0,0,1,1.7.462l-.4.692a2.521,2.521,0,0,0-1.282-.365c-.4,0-.625.173-.625.423,0,.232.144.337.674.473l.307.076c1.051.279,1.484.7,1.484,1.395,0,.781-.6,1.367-1.791,1.367a3.16,3.16,0,0,1-1.926-.576" transform="translate(-6028.823 1613.563)" fill="#fff"/>
      <path id="Path_4974" data-name="Path 4974" d="M531.227,80.351a2.431,2.431,0,0,1-1.156.289,1.232,1.232,0,0,1-1.319-1.367v-2.2h-.819v-.819h.819v-.961l1.039-.156v1.118h1.329l-.105.819h-1.223v2.04c0,.482.184.683.51.683a1.665,1.665,0,0,0,.637-.155Z" transform="translate(-6029.566 1613.736)" fill="#fff"/>
      <path id="Path_4975" data-name="Path 4975" d="M535.663,76.375l-.173,1.059a1.684,1.684,0,0,0-.587-.116,1.14,1.14,0,0,0-1.012.6v2.772h-1.041V76.423l1.041-.1v.606a1.467,1.467,0,0,1,1.213-.644,1.8,1.8,0,0,1,.558.086" transform="translate(-6030.303 1613.563)" fill="#fff"/>
      <path id="Path_4976" data-name="Path 4976" d="M540.843,76.447v.059l-1.474,4.3c-.443,1.3-.981,1.819-1.964,1.819a2.818,2.818,0,0,1-.9-.153l.269-.762a1.73,1.73,0,0,0,.54.086c.4,0,.732-.1,1.049-.951l.049-.136h-.281l-1.619-4.206v-.059h1.1l.887,2.532c.107.3.184.549.241.771.067-.241.145-.52.223-.771l.808-2.532Z" transform="translate(-6030.852 1613.539)" fill="#fff"/>
      <path id="Path_4977" data-name="Path 4977" d="M521.759,74.125v1.31L520.668,75v-.88Z" transform="translate(-6028.477 1613.887)" fill="#fff"/>
      <path id="Path_4978" data-name="Path 4978" d="M513.923,74.125v1.31L512.832,75v-.88Z" transform="translate(-6027.302 1613.887)" fill="#fff"/>
      <path id="Path_4979" data-name="Path 4979" d="M543.9,78.625a2.056,2.056,0,0,1,2.157-2.272,2.034,2.034,0,0,1,2.1,2.3,2.131,2.131,0,1,1-4.259-.028m3.3.026c0-.869-.368-1.458-1.143-1.458-.8,0-1.19.584-1.19,1.421,0,.87.369,1.385,1.148,1.385.8,0,1.184-.51,1.184-1.348" transform="translate(-6031.959 1613.553)" fill="#fff"/>
      <path id="Path_4980" data-name="Path 4980" d="M551.7,75.817v.742h1.222l-.106.817H551.7v3.006h-1.04V77.376h-.712v-.817h.712v-.723a1.551,1.551,0,0,1,1.618-1.705,2.652,2.652,0,0,1,1.02.184l-.26.819A1.685,1.685,0,0,0,552.37,75c-.435,0-.666.309-.666.819" transform="translate(-6032.867 1613.886)" fill="#fff"/>
      <path id="Path_4981" data-name="Path 4981" d="M563.186,74.145v6.239h-1.08V76a7.938,7.938,0,0,1-.394.887l-1.318,2.59h-.944l-1.3-2.59a7.447,7.447,0,0,1-.423-.9v4.4h-1.059V74.145h1.184l1.415,2.744a11.608,11.608,0,0,1,.665,1.493,11.02,11.02,0,0,1,.662-1.493l1.427-2.744Z" transform="translate(-6033.874 1613.884)" fill="#fff"/>
      <path id="Path_4982" data-name="Path 4982" d="M569.289,78.782H566.42c.048.906.578,1.234,1.165,1.234a2.343,2.343,0,0,0,1.262-.385l.366.672a2.962,2.962,0,0,1-1.7.53,1.955,1.955,0,0,1-2.128-2.2,2.059,2.059,0,0,1,2.09-2.321,1.713,1.713,0,0,1,1.848,1.83c0,.162-.01.414-.03.643m-2.821-.721h1.848v-.029c0-.692-.346-.973-.836-.973-.587,0-.9.385-1.012,1" transform="translate(-6035.18 1613.559)" fill="#fff"/>
      <path id="Path_4983" data-name="Path 4983" d="M575.088,74.134v6.249h-.914l-.068-.318a2.481,2.481,0,0,1-1.339.443c-1.164,0-1.781-.8-1.781-2.157a2.145,2.145,0,0,1,2.214-2.369,3.174,3.174,0,0,1,.848.125V74.24Zm-2.041,5.546a1.927,1.927,0,0,0,1-.307V76.879a2.116,2.116,0,0,0-.723-.116c-.712,0-1.251.5-1.251,1.579,0,.933.354,1.338.972,1.338" transform="translate(-6036.02 1613.885)" fill="#fff"/>
      <path id="Path_4984" data-name="Path 4984" d="M576.857,76.46l1.04-.107v4.363h-1.04Z" transform="translate(-6036.9 1613.553)" fill="#fff"/>
      <path id="Path_4985" data-name="Path 4985" d="M582.9,77.723v2.985h-.9l-.077-.355a2.434,2.434,0,0,1-1.493.48,1.167,1.167,0,0,1-1.3-1.164c0-1.088,1.262-1.551,2.735-1.589v-.165c0-.538-.162-.78-.693-.78a2.643,2.643,0,0,0-1.425.491l-.423-.663a3.394,3.394,0,0,1,2-.656c1.02,0,1.579.4,1.579,1.416m-2.137,2.3a2.117,2.117,0,0,0,1.1-.328v-.924c-1,.048-1.647.309-1.647.78,0,.31.193.473.549.473" transform="translate(-6037.24 1613.56)" fill="#fff"/>
      <path id="Path_4986" data-name="Path 4986" d="M577.918,74.145v1.31l-1.091-.429v-.881Z" transform="translate(-6036.896 1613.884)" fill="#fff"/>
      <path id="Path_4987" data-name="Path 4987" d="M552.316,11.215a7.179,7.179,0,0,0-4.726-4.859,7.143,7.143,0,0,1,2.16-.331,7.244,7.244,0,0,1,1.571.172.151.151,0,0,0,.14-.254,7.3,7.3,0,0,0-1.018-.815A7.132,7.132,0,0,0,546.5,3.943c-.048,0-.1,0-.147,0a7.126,7.126,0,0,1,2.362-1.284.15.15,0,0,0-.015-.289,7.2,7.2,0,0,0-4.052.3A3.675,3.675,0,0,1,545.9.877a.152.152,0,0,0-.1-.27,3.728,3.728,0,0,0-2.8,1.557,3.661,3.661,0,0,0-.788-2.108.149.149,0,0,0-.232,0,3.664,3.664,0,0,0-.785,2.108,3.734,3.734,0,0,0-2.8-1.557.152.152,0,0,0-.106.27,3.675,3.675,0,0,1,1.254,1.8,7.2,7.2,0,0,0-4.052-.3.151.151,0,0,0-.015.289,7.152,7.152,0,0,1,2.364,1.284c-.05,0-.1,0-.149,0a7.12,7.12,0,0,0-3.945,1.184,7.21,7.21,0,0,0-1.02.815.151.151,0,0,0,.14.254,7.25,7.25,0,0,1,1.571-.172,7.139,7.139,0,0,1,2.16.331,7.179,7.179,0,0,0-4.726,4.859.151.151,0,0,0,.254.147,7.048,7.048,0,0,1,4.516-2.2,7.121,7.121,0,0,0-3.232,6.372.151.151,0,0,0,.292.048,7.083,7.083,0,0,1,4.164-4.051,7.072,7.072,0,0,0-1.408,7.112.15.15,0,0,0,.292-.029,6.856,6.856,0,0,1,3.528-5.251l.252-.14a.062.062,0,0,1,.092.04,18.235,18.235,0,0,1,.319,4.182c0,3.565-.286,10.462-.317,10.747a.045.045,0,0,0,.016.042l1.43,1.047a.047.047,0,0,0,.054,0l1.426-1.046a.05.05,0,0,0,.021-.044c-.033-.294-.318-7.188-.318-10.745a18.27,18.27,0,0,1,.318-4.182.062.062,0,0,1,.092-.04l.252.14a6.851,6.851,0,0,1,3.528,5.251.151.151,0,0,0,.293.029,7.111,7.111,0,0,0,.41-2.38,7.036,7.036,0,0,0-1.819-4.732,7.09,7.09,0,0,1,4.166,4.051.151.151,0,0,0,.292-.048,7.126,7.126,0,0,0-3.234-6.372,7.04,7.04,0,0,1,4.517,2.2.151.151,0,0,0,.254-.147" transform="translate(-6030.155 1625)" fill="#fff"/>
      <path id="Path_4988" data-name="Path 4988" d="M549.024,46.287a2.285,2.285,0,0,1-.256.215.99.99,0,0,1-.236.131.5.5,0,0,1-.215.037.394.394,0,0,1-.192-.072,1.161,1.161,0,0,1-.193-.218,1.191,1.191,0,0,0-.329-.28,1.187,1.187,0,0,0-.92-.1s-.006,0-.01,0a1.174,1.174,0,0,0-.655.513,1.139,1.139,0,0,0-.133.327,1.261,1.261,0,0,0,.041.694,1.5,1.5,0,0,0,1.619.87,3.493,3.493,0,0,0,1.891-1.233A.98.98,0,0,0,549.3,46c-.088.1-.179.2-.274.286" transform="translate(-6032.252 1618.111)" fill="#fff"/>
      <path id="Path_4989" data-name="Path 4989" d="M541.117,46.516a1.145,1.145,0,0,0-.272-.31,1.2,1.2,0,0,0-.383-.2l-.011,0a1.178,1.178,0,0,0-.456-.044,1.144,1.144,0,0,0-.464.145,1.174,1.174,0,0,0-.329.278,1.114,1.114,0,0,1-.192.218.393.393,0,0,1-.193.072.508.508,0,0,1-.216-.037,1.068,1.068,0,0,1-.236-.13,2.559,2.559,0,0,1-.254-.216c-.1-.09-.186-.186-.274-.286a.979.979,0,0,0-.139,1.172,3.509,3.509,0,0,0,1.891,1.234,1.5,1.5,0,0,0,1.619-.87,1.275,1.275,0,0,0,.041-.693,1.135,1.135,0,0,0-.133-.328" transform="translate(-6031.009 1618.111)" fill="#fff"/>
      <path id="Path_4990" data-name="Path 4990" d="M561.685,31.2c-8.161-3.21-15.993.436-21.623,4.477-5.631-4.041-13.462-7.687-21.623-4.477a.179.179,0,0,0,.079.346c7.159-.561,12.818.985,19.545,5.65-2.019,1.616-3.651,3.166-4.773,4.234-.173-.241-.462-.613-.614-.789a3.5,3.5,0,0,0-1.891-1.234,1.5,1.5,0,0,0-1.619.87,1.277,1.277,0,0,0-.04.694,1.171,1.171,0,0,0,.4.638,1.19,1.19,0,0,0,.383.2l.011,0a1.165,1.165,0,0,0,.921-.1,1.174,1.174,0,0,0,.329-.279,1.042,1.042,0,0,1,.192-.217.362.362,0,0,1,.191-.072.5.5,0,0,1,.217.036,1.192,1.192,0,0,1,.236.131,6.611,6.611,0,0,1,.892.968c.1.131.221.28.324.413.011.013.138.176.148.189s-1.151-.428-1.326-.261c-.848.8-1.519,1.432-2.135,1.99a5.622,5.622,0,0,1-.567.456,3.389,3.389,0,0,1-.508.293,2.273,2.273,0,0,1-.451.157,1.843,1.843,0,0,1-.409.044,1.816,1.816,0,0,1-.37-.044,2.41,2.41,0,0,1-.342-.107c-.11-.043-.215-.093-.32-.145a3.269,3.269,0,0,0-.326-.156,1.211,1.211,0,0,0-.333-.073,1.451,1.451,0,0,0-.219,0,1.245,1.245,0,0,0-1.116,1.361,1.276,1.276,0,0,0,.232.611,1.734,1.734,0,0,0,.331.343,2.414,2.414,0,0,0,.446.274,3.273,3.273,0,0,0,.542.2,3.774,3.774,0,0,0,.615.112,4.6,4.6,0,0,0,.666.024c.1,0,.2-.011.3-.02a7.012,7.012,0,0,0,3.592-2.061,105.2,105.2,0,0,1,8.384-7.231,105.487,105.487,0,0,1,8.386,7.231,7,7,0,0,0,3.591,2.061c.1.009.2.016.3.02a4.609,4.609,0,0,0,.668-.024,3.748,3.748,0,0,0,.614-.112,3.279,3.279,0,0,0,.542-.2,2.414,2.414,0,0,0,.446-.274,1.666,1.666,0,0,0,.331-.343,1.294,1.294,0,0,0,.232-.611,1.224,1.224,0,0,0-.1-.621,1.249,1.249,0,0,0-1.018-.74,1.451,1.451,0,0,0-.219,0,1.217,1.217,0,0,0-.334.073,3.139,3.139,0,0,0-.323.156c-.107.053-.213.1-.323.145a2.376,2.376,0,0,1-.342.107,1.729,1.729,0,0,1-.778,0,2.239,2.239,0,0,1-.451-.157,3.33,3.33,0,0,1-.506-.293,5.458,5.458,0,0,1-.569-.456c-.617-.558-1.288-1.191-2.135-1.99-.175-.167-1.326.261-1.326.261s.138-.176.146-.189c.1-.133.225-.282.325-.413a6.621,6.621,0,0,1,.893-.968,1.176,1.176,0,0,1,.237-.131.493.493,0,0,1,.216-.036.37.37,0,0,1,.191.072,1.04,1.04,0,0,1,.192.217,1.181,1.181,0,0,0,.795.427,1.205,1.205,0,0,0,.454-.046l.011,0a1.153,1.153,0,0,0,.383-.2,1.163,1.163,0,0,0,.405-.638,1.269,1.269,0,0,0-.04-.694,1.5,1.5,0,0,0-1.619-.87,3.5,3.5,0,0,0-1.891,1.234c-.151.176-.44.548-.615.789-1.12-1.069-2.754-2.618-4.773-4.234,6.726-4.664,12.387-6.211,19.546-5.65a.179.179,0,0,0,.079-.346" transform="translate(-6028.125 1620.506)" fill="#fff"/>
    </g>
  </g>
</svg>
