<svg xmlns="http://www.w3.org/2000/svg" xmlns:xlink="http://www.w3.org/1999/xlink" width="167" height="167" viewBox="0 0 167 167">
  <defs>
    <clipPath id="clip-t1">
      <rect width="167" height="167"/>
    </clipPath>
  </defs>
  <g id="t1" clip-path="url(#clip-t1)">
    <path id="Union_13" data-name="Union 13" d="M16.357,137.24c-2.245-.042-3.1-1.037-3.1-3.5-.016-7.3-.006-14.605-.007-21.907,0-7.254-.03-14.507.024-21.761.01-1.371-.361-1.946-1.8-1.846-1.552.107-3.116.056-4.673.011A6.826,6.826,0,0,1,.028,81.413C0,69.778-.025,58.143.046,46.509c.038-6.164,5.517-11.736,11.644-12.2,1.836-.14,3.672-.14,5.506-.139,1.327,0,2.652,0,3.977-.051a3.844,3.844,0,0,1,4.032,2.47A43.182,43.182,0,0,0,30.632,45.4a2.831,2.831,0,0,0,4.828-.017A47.535,47.535,0,0,0,41.225,36.1a2.986,2.986,0,0,1,2.828-1.935c1.313-.035,2.627-.047,3.942-.068,7.98-.119,15.963-.193,23.942-.374,4.326-.1,8.653-.34,12.974-.587A7.637,7.637,0,0,1,92.9,38.171a7.864,7.864,0,0,1-2.922,9.173c-2.426,1.733-5.261,2.211-8.105,2.641-6.2.936-12.5,1.1-18.659,2.35a25.022,25.022,0,0,0-6.776,2.211,6.434,6.434,0,0,0-3.8,6.3c.122,24.146.121,48.291.156,72.437,0,3.312-.662,3.973-4.022,3.979-2.825.006-5.649.023-8.473-.007-2.562-.029-3.334-.877-3.479-3.408-.527-9.321-1.109-18.639-1.65-27.959-.166-2.865-.265-5.734-.394-8.6-.088-1.914-.43-2.179-2.306-2.029-.764.062-.979.411-1.016,1.107-.279,5.2-.585,10.391-.874,15.586-.412,7.429-.8,14.859-1.233,22.287a2.8,2.8,0,0,1-3.065,3q-2.539.045-5.078.045Q18.782,137.284,16.357,137.24ZM27.4,29.577c-6.319-3.371-9.986-11.8-8.194-18.721A14.218,14.218,0,0,1,34.25.074C42.383.937,47.574,6.758,47.548,16A17.07,17.07,0,0,1,40.06,28.866a11.514,11.514,0,0,1-6.752,2.31A12.5,12.5,0,0,1,27.4,29.577Z" transform="translate(36.807 14.858)" fill="#6379bf" stroke="rgba(0,0,0,0)" stroke-miterlimit="10" stroke-width="1"/>
  </g>
</svg>
