<svg xmlns="http://www.w3.org/2000/svg" xmlns:xlink="http://www.w3.org/1999/xlink" width="167" height="167" viewBox="0 0 167 167">
  <defs>
    <clipPath id="clip-t2">
      <rect width="167" height="167"/>
    </clipPath>
  </defs>
  <g id="t2" clip-path="url(#clip-t2)">
    <path id="Union_14" data-name="Union 14" d="M37.207,86.6a2.512,2.512,0,0,1-2.631-1.49,2.463,2.463,0,0,1,.83-2.805,20.294,20.294,0,0,0,4.539-7.1c.527-1.436.454-1.535-1.064-1.537H8.654c-4.649,0-7.1-1.727-8.655-6.093V6.1A9.28,9.28,0,0,1,1.687,2.795,8.342,8.342,0,0,1,8.449,0Q51.768.016,95.088.007c.269,0,.539,0,.808.009,4.384.19,7.693,3.383,7.7,7.521q.023,29.318.005,58.635a7.137,7.137,0,0,1-1.855,4.793,8.091,8.091,0,0,1-6.5,2.7q-15.367-.009-30.733,0c-1.422,0-1.482.092-1,1.436a20.455,20.455,0,0,0,4.592,7.188A2.395,2.395,0,0,1,66.322,86.6l-14.557,0ZM11.859,56.172c.743.035,1.022-.283,1.01-1.018-.028-1.583-.018-3.168,0-4.751A11.88,11.88,0,0,1,23.328,38.994a91.92,91.92,0,0,1,12.624-.1c6.233.293,10.626,4.449,11.528,10.6a40.861,40.861,0,0,1,.088,5.655c.005.725.26,1.035,1.01,1.026q3.182-.041,6.368,0c.75.009,1.016-.3,1-1.028-.025-1.55-.028-3.1,0-4.649A11.935,11.935,0,0,1,66.569,38.99,87.577,87.577,0,0,1,79.091,38.9a11.787,11.787,0,0,1,11.437,10,27.883,27.883,0,0,1,.128,4.741c.043,2.567-.28,2.546,1.668,2.524.248,0,.531,0,.857,0,1.582.014,1.584,0,1.584-1.642V10.648c0-1.686,0-1.689-1.66-1.689H10.416c-1.657,0-1.659,0-1.659,1.691q0,21.936,0,43.872c0,.269.01.539,0,.808-.014.6.293.846.876.836.407-.007.814-.015,1.221-.015C11.191,56.151,11.525,56.156,11.859,56.172ZM21.424,26a8.752,8.752,0,0,1,8.824-8.649,8.613,8.613,0,0,1,8.649,8.76,8.753,8.753,0,0,1-8.659,8.714h-.07A8.885,8.885,0,0,1,21.424,26Zm43.2.053a8.611,8.611,0,0,1,8.707-8.7A8.752,8.752,0,0,1,82.1,26.054a8.871,8.871,0,0,1-8.768,8.765h-.023A8.756,8.756,0,0,1,64.625,26.049Z" transform="translate(32 40)" fill="#6379bf" stroke="rgba(0,0,0,0)" stroke-miterlimit="10" stroke-width="1"/>
  </g>
</svg>
