<svg xmlns="http://www.w3.org/2000/svg" xmlns:xlink="http://www.w3.org/1999/xlink" width="167" height="167" viewBox="0 0 167 167">
  <defs>
    <clipPath id="clip-t3">
      <rect width="167" height="167"/>
    </clipPath>
  </defs>
  <g id="t3" clip-path="url(#clip-t3)">
    <path id="Union_15" data-name="Union 15" d="M80.236,116.71c-2.386-1.583-2.867-2.815-2.271-5.815a11.024,11.024,0,0,1,10.706-8.839c2.581-.016,5.163-.022,7.744,0a11.071,11.071,0,0,1,10.756,10.469,4.191,4.191,0,0,1-2.562,4.182Zm-38.725,0c-2.322-1.307-2.926-2.57-2.519-5.255a11,11,0,0,1,10.9-9.4c2.578-.014,5.155-.022,7.733.005A11,11,0,0,1,68.256,112.6a4.041,4.041,0,0,1-2.6,4.114Zm-38.954,0c-2.386-1.468-2.879-2.589-2.384-5.418a10.923,10.923,0,0,1,10.919-9.239c2.581-.011,5.163-.023,7.744.008a11.09,11.09,0,0,1,10.6,10.864,4.235,4.235,0,0,1-2.507,3.785ZM92.415,97.4a7.531,7.531,0,0,1-7.4-7.439,7.617,7.617,0,0,1,7.437-7.427A7.433,7.433,0,0,1,92.473,97.4ZM7.287,90.03a7.531,7.531,0,0,1,7.456-7.5,7.612,7.612,0,0,1,7.408,7.457A7.525,7.525,0,0,1,14.724,97.4h-.035A7.482,7.482,0,0,1,7.287,90.03ZM53.569,97.4a7.371,7.371,0,1,1,.012,0Zm17.215-9.786c-.754-.149-.673-.761-.779-1.225A16.992,16.992,0,0,0,64.5,77.172,16.8,16.8,0,0,0,37.513,85.05c-.063.218-.12.439-.178.659-.571,2.147-.7,2.224-2.965,1.726-2.4-.528-3.582-1.679-3.9-4.116-.5-3.87-.889-7.756-1.308-11.636Q28.235,63.09,27.34,54.5c-.067-.648-.358-.842-.949-.83-.759.017-1.521.034-2.277-.018a5.083,5.083,0,0,1-4.7-5.1,4.919,4.919,0,0,1,4.945-4.8q14.631-.026,29.264-.006,14.518,0,29.036,0a4.866,4.866,0,0,1,4.915,3.772,5.007,5.007,0,0,1-4.611,6.144c-.758.041-1.518.027-2.277.014-.562-.009-.8.229-.859.8q-.771,7.407-1.586,14.81c-.521,4.785-1,9.576-1.6,14.35a5.039,5.039,0,0,1-4.983,4.07A4.511,4.511,0,0,1,70.784,87.616ZM58.218,39.091q-2.362,0-4.724,0-7.568,0-15.135,0c-3.054,0-4.663-1.875-4.257-4.924a11.055,11.055,0,0,1,11.036-9.939q8.419-.143,16.842,0A11.134,11.134,0,0,1,73.158,34.789a3.874,3.874,0,0,1-4.074,4.293q-3.26.015-6.52.013ZM53.533,19.675a9.969,9.969,0,0,1-9.8-9.845,9.85,9.85,0,0,1,19.7-.008,9.965,9.965,0,0,1-9.788,9.854Z" transform="translate(30.001 25)" fill="#6379bf" stroke="rgba(0,0,0,0)" stroke-miterlimit="10" stroke-width="1"/>
  </g>
</svg>
